# Blender 4.5.5 LTS
# www.blender.org
o V_bridge_step
v -4.319393 20.244400 2.606687
v -4.319393 20.217403 2.769387
v -4.319394 20.441250 2.638470
v -4.319394 20.415443 2.801362
v -1.680606 20.244400 2.606687
v -1.680606 20.217403 2.769387
v -1.680606 20.441250 2.638469
v -1.680606 20.415443 2.801362
v -4.319394 20.017185 2.569664
v -4.319394 19.992584 2.732743
v -4.319393 20.215883 2.601933
v -4.319393 20.188707 2.764602
v -1.680606 20.017185 2.569664
v -1.680606 19.992584 2.732743
v -1.680606 20.215883 2.601933
v -1.680606 20.188707 2.764602
v -4.319393 19.788227 2.538428
v -4.319393 19.767757 2.702077
v -4.319393 19.988142 2.565341
v -4.319393 19.964262 2.728528
v -1.680606 19.788227 2.538428
v -1.680606 19.767757 2.702077
v -1.680606 19.988142 2.565341
v -1.680606 19.964262 2.728528
v -4.319394 19.558680 2.512714
v -4.319394 19.542166 2.676810
v -4.319393 19.759188 2.534841
v -4.319393 19.739237 2.698554
v -1.680606 19.558680 2.512714
v -1.680606 19.542166 2.676810
v -1.680606 19.759188 2.534841
v -1.680606 19.739237 2.698554
v -4.319393 19.329735 2.490995
v -4.319393 19.315159 2.655274
v -4.319393 19.529667 2.509818
v -4.319393 19.513466 2.673944
v -1.680606 19.329735 2.490995
v -1.680606 19.315159 2.655274
v -1.680606 19.529667 2.509818
v -1.680606 19.513466 2.673944
v -4.319394 19.099829 2.472843
v -4.319393 19.088491 2.637377
v -4.319393 19.300671 2.488435
v -4.319393 19.286449 2.652745
v -1.680606 19.099831 2.472843
v -1.680606 19.088493 2.637377
v -1.680606 19.300671 2.488435
v -1.680606 19.286449 2.652745
v -4.319393 18.870426 2.458410
v -4.319393 18.860806 2.623053
v -4.319393 19.070730 2.470871
v -4.319393 19.059725 2.635428
v -1.680606 18.870426 2.458410
v -1.680606 18.860806 2.623053
v -1.680606 19.070730 2.470871
v -1.680606 19.059725 2.635428
v -4.319393 18.640457 2.446584
v -4.319393 18.633381 2.611356
v -4.319393 18.841358 2.456734
v -4.319393 18.831966 2.621391
v -1.680606 18.640457 2.446584
v -1.680606 18.633381 2.611356
v -1.680606 18.841358 2.456734
v -1.680606 18.831966 2.621391
v -4.319393 18.410559 2.438416
v -4.319393 18.405569 2.603264
v -4.319394 18.611300 2.445354
v -4.319394 18.604593 2.610142
v -1.680606 18.410559 2.438415
v -1.680606 18.405569 2.603264
v -1.680606 18.611300 2.445354
v -1.680606 18.604593 2.610142
v -4.319394 18.180773 2.432463
v -4.319394 18.177515 2.597355
v -4.319393 18.381500 2.437542
v -4.319393 18.376656 2.602395
v -1.680606 18.180773 2.432463
v -1.680606 18.177515 2.597355
v -1.680606 18.381500 2.437542
v -1.680606 18.376656 2.602395
v -4.319393 17.950527 2.429780
v -4.319393 17.949795 2.594703
v -4.319393 18.151609 2.431905
v -4.319393 18.148687 2.596803
v -1.680606 17.950527 2.429780
v -1.680606 17.949795 2.594703
v -1.680606 18.151609 2.431904
v -1.680606 18.148687 2.596803
v -4.319393 17.720846 2.429725
v -4.319393 17.721479 2.594648
v -4.319394 17.921417 2.429668
v -4.319394 17.920906 2.594592
v -1.680606 17.720846 2.429725
v -1.680606 17.721479 2.594648
v -1.680606 17.921417 2.429668
v -1.680606 17.920906 2.594592
v -4.319393 17.490618 2.432230
v -4.319393 17.493738 2.597124
v -4.319393 17.691725 2.429857
v -4.319393 17.692598 2.594779
v -1.680606 17.490618 2.432230
v -1.680606 17.493738 2.597124
v -1.680606 17.691727 2.429857
v -1.680606 17.692600 2.594779
v -4.319394 17.260788 2.438048
v -4.319394 17.265717 2.602899
v -4.319394 17.461460 2.432802
v -4.319394 17.464909 2.597691
v -1.680606 17.260788 2.438048
v -1.680606 17.265717 2.602899
v -1.680606 17.461460 2.432802
v -1.680606 17.464909 2.597690
v -4.319393 17.030933 2.446065
v -4.319393 17.037853 2.610845
v -4.319393 17.231728 2.438927
v -4.319393 17.236801 2.603773
v -1.680606 17.030933 2.446065
v -1.680606 17.037853 2.610845
v -1.680606 17.231728 2.438927
v -1.680606 17.236801 2.603773
v -4.319393 16.800926 2.457710
v -4.319393 16.810452 2.622359
v -4.319393 17.001770 2.447310
v -4.319393 17.009068 2.612072
v -1.680606 16.800926 2.457710
v -1.680606 16.810452 2.622359
v -1.680606 17.001772 2.447310
v -1.680606 17.009069 2.612072
v -4.319393 16.571533 2.472019
v -4.319393 16.582733 2.636562
v -4.319393 16.771873 2.459409
v -4.319393 16.781605 2.624045
v -1.680606 16.571533 2.472019
v -1.680606 16.582733 2.636562
v -1.680606 16.771873 2.459409
v -1.680606 16.781605 2.624045
v -4.319394 16.341614 2.489918
v -4.319394 16.356045 2.654210
v -4.319393 16.542425 2.474026
v -4.319393 16.553980 2.638545
v -1.680606 16.341612 2.489918
v -1.680606 16.356043 2.654210
v -1.680606 16.542423 2.474026
v -1.680606 16.553978 2.638545
v -4.319393 16.112648 2.511504
v -4.319393 16.129032 2.675612
v -4.319393 16.312551 2.492494
v -4.319393 16.327330 2.656755
v -1.680606 16.112648 2.511504
v -1.680606 16.129032 2.675612
v -1.680606 16.312551 2.492494
v -1.680606 16.327330 2.656755
v -4.319393 15.883111 2.536930
v -4.319393 15.903365 2.700605
v -4.319393 16.083628 2.514421
v -4.319393 16.100344 2.678496
v -1.680606 15.883111 2.536930
v -1.680606 15.903365 2.700605
v -1.680606 16.083628 2.514421
v -1.680606 16.100344 2.678496
v -4.319393 15.654152 2.567837
v -4.319393 15.678450 2.730962
v -4.319393 15.854089 2.540566
v -4.319393 15.874837 2.704180
v -1.680606 15.654152 2.567837
v -1.680606 15.678450 2.730961
v -1.680606 15.854089 2.540566
v -1.680606 15.874837 2.704180
v -4.319393 15.426705 2.604712
v -4.319393 15.453807 2.767395
v -4.319393 15.625116 2.572217
v -4.319393 15.650135 2.735233
v -1.680606 15.426705 2.604712
v -1.680606 15.453807 2.767395
v -1.680606 15.625116 2.572217
v -1.680606 15.650135 2.735233
v -4.319393 15.201289 2.641142
v -4.319393 15.227098 2.804034
v -4.319393 15.398225 2.609439
v -4.319393 15.425071 2.772163
v -1.680605 15.201289 2.641142
v -1.680605 15.227098 2.804034
v -1.680606 15.398225 2.609439
v -1.680606 15.425071 2.772163
vn -1.0000 -0.0000 -0.0000
vn -0.0000 0.9877 0.1565
vn 1.0000 -0.0000 -0.0000
vn -0.0000 -0.9865 -0.1637
vn -0.0000 0.1594 -0.9872
vn -0.0000 -0.1594 0.9872
vn -0.0000 0.9863 0.1648
vn -0.0000 -0.9888 -0.1492
vn -0.0000 0.1603 -0.9871
vn -0.0000 -0.1603 0.9871
vn -0.0000 0.9895 0.1448
vn -0.0000 -0.9923 -0.1241
vn -0.0000 0.1334 -0.9911
vn -0.0000 -0.1334 0.9911
vn -0.0000 0.9927 0.1210
vn -0.0000 -0.9950 -0.1001
vn -0.0000 0.1097 -0.9940
vn -0.0000 -0.1097 0.9940
vn -0.0000 0.9952 0.0982
vn -0.0000 -0.9961 -0.0884
vn -0.0000 0.0937 -0.9956
vn -0.0000 -0.0937 0.9956
vn -0.0000 0.9963 0.0862
vn -0.0000 -0.9976 -0.0687
vn -0.0000 0.0774 -0.9970
vn -0.0000 -0.0774 0.9970
vn -0.0000 0.9978 0.0667
vn -0.0000 -0.9983 -0.0583
vn -0.0000 0.0621 -0.9981
vn -0.0000 -0.0621 0.9981
vn -0.0000 0.9984 0.0570
vn -0.0000 -0.9991 -0.0429
vn -0.0000 0.0505 -0.9987
vn -0.0000 -0.0505 0.9987
vn -0.0000 0.9992 0.0407
vn -0.0000 -0.9995 -0.0302
vn -0.0000 0.0345 -0.9994
vn -0.0000 -0.0345 0.9994
vn -0.0000 0.9996 0.0294
vn -0.0000 -0.9998 -0.0197
vn -0.0000 0.0253 -0.9997
vn -0.0000 -0.0253 0.9997
vn -0.0000 0.9998 0.0177
vn -0.0000 -1.0000 -0.0044
vn -0.0000 0.0106 -0.9999
vn -0.0000 -0.0106 0.9999
vn -0.0000 1.0000 0.0031
vn -0.0000 -1.0000 0.0038
vn -0.0000 -0.0003 -1.0000
vn -0.0000 0.0003 1.0000
vn -0.0000 1.0000 -0.0053
vn -0.0000 -0.9998 0.0189
vn -0.0000 -0.0118 -0.9999
vn -0.0000 0.0118 0.9999
vn -0.0000 0.9998 -0.0209
vn -0.0000 -0.9996 0.0299
vn -0.0000 -0.0261 -0.9997
vn -0.0000 0.0261 0.9997
vn -0.0000 0.9995 -0.0308
vn -0.0000 -0.9991 0.0420
vn -0.0000 -0.0355 -0.9994
vn -0.0000 0.0355 0.9994
vn -0.0000 0.9990 -0.0442
vn -0.0000 -0.9983 0.0578
vn -0.0000 -0.0517 -0.9987
vn -0.0000 0.0517 0.9987
vn -0.0000 0.9983 -0.0590
vn -0.0000 -0.9977 0.0679
vn -0.0000 -0.0628 -0.9980
vn -0.0000 0.0628 0.9980
vn -0.0000 0.9975 -0.0701
vn -0.0000 -0.9962 0.0875
vn -0.0000 -0.0789 -0.9969
vn -0.0000 0.0789 0.9969
vn -0.0000 0.9960 -0.0896
vn -0.0000 -0.9951 0.0993
vn -0.0000 -0.0947 -0.9955
vn -0.0000 0.0947 0.9955
vn -0.0000 0.9949 -0.1014
vn -0.0000 -0.9924 0.1228
vn -0.0000 -0.1116 -0.9938
vn -0.0000 0.1115 0.9938
vn -0.0000 0.9921 -0.1258
vn -0.0000 -0.9891 0.1473
vn -0.0000 -0.1351 -0.9908
vn -0.0000 0.1351 0.9908
vn -0.0000 0.9884 -0.1517
vn -0.0000 -0.9864 0.1643
vn -0.0000 -0.1616 -0.9869
vn -0.0000 0.1617 0.9868
vn -0.0000 0.9867 -0.1628
vn -0.0000 -0.9877 0.1565
vn -0.0000 -0.1589 -0.9873
vn -0.0000 0.1589 0.9873
vt 0.375000 0.000000
vt 0.625000 0.000000
vt 0.625000 0.250000
vt 0.375000 0.250000
vt 0.625000 0.500000
vt 0.375000 0.500000
vt 0.625000 0.750000
vt 0.375000 0.750000
vt 0.625000 1.000000
vt 0.375000 1.000000
vt 0.125000 0.500000
vt 0.125000 0.750000
vt 0.875000 0.500000
vt 0.875000 0.750000
s 0
f 1/1/1 2/2/1 4/3/1 3/4/1
f 3/4/2 4/3/2 8/5/2 7/6/2
f 7/6/3 8/5/3 6/7/3 5/8/3
f 5/8/4 6/7/4 2/9/4 1/10/4
f 3/11/5 7/6/5 5/8/5 1/12/5
f 8/5/6 4/13/6 2/14/6 6/7/6
f 9/1/1 10/2/1 12/3/1 11/4/1
f 11/4/7 12/3/7 16/5/7 15/6/7
f 15/6/3 16/5/3 14/7/3 13/8/3
f 13/8/8 14/7/8 10/9/8 9/10/8
f 11/11/9 15/6/9 13/8/9 9/12/9
f 16/5/10 12/13/10 10/14/10 14/7/10
f 17/1/1 18/2/1 20/3/1 19/4/1
f 19/4/11 20/3/11 24/5/11 23/6/11
f 23/6/3 24/5/3 22/7/3 21/8/3
f 21/8/12 22/7/12 18/9/12 17/10/12
f 19/11/13 23/6/13 21/8/13 17/12/13
f 24/5/14 20/13/14 18/14/14 22/7/14
f 25/1/1 26/2/1 28/3/1 27/4/1
f 27/4/15 28/3/15 32/5/15 31/6/15
f 31/6/3 32/5/3 30/7/3 29/8/3
f 29/8/16 30/7/16 26/9/16 25/10/16
f 27/11/17 31/6/17 29/8/17 25/12/17
f 32/5/18 28/13/18 26/14/18 30/7/18
f 33/1/1 34/2/1 36/3/1 35/4/1
f 35/4/19 36/3/19 40/5/19 39/6/19
f 39/6/3 40/5/3 38/7/3 37/8/3
f 37/8/20 38/7/20 34/9/20 33/10/20
f 35/11/21 39/6/21 37/8/21 33/12/21
f 40/5/22 36/13/22 34/14/22 38/7/22
f 41/1/1 42/2/1 44/3/1 43/4/1
f 43/4/23 44/3/23 48/5/23 47/6/23
f 47/6/3 48/5/3 46/7/3 45/8/3
f 45/8/24 46/7/24 42/9/24 41/10/24
f 43/11/25 47/6/25 45/8/25 41/12/25
f 48/5/26 44/13/26 42/14/26 46/7/26
f 49/1/1 50/2/1 52/3/1 51/4/1
f 51/4/27 52/3/27 56/5/27 55/6/27
f 55/6/3 56/5/3 54/7/3 53/8/3
f 53/8/28 54/7/28 50/9/28 49/10/28
f 51/11/29 55/6/29 53/8/29 49/12/29
f 56/5/30 52/13/30 50/14/30 54/7/30
f 57/1/1 58/2/1 60/3/1 59/4/1
f 59/4/31 60/3/31 64/5/31 63/6/31
f 63/6/3 64/5/3 62/7/3 61/8/3
f 61/8/32 62/7/32 58/9/32 57/10/32
f 59/11/33 63/6/33 61/8/33 57/12/33
f 64/5/34 60/13/34 58/14/34 62/7/34
f 65/1/1 66/2/1 68/3/1 67/4/1
f 67/4/35 68/3/35 72/5/35 71/6/35
f 71/6/3 72/5/3 70/7/3 69/8/3
f 69/8/36 70/7/36 66/9/36 65/10/36
f 67/11/37 71/6/37 69/8/37 65/12/37
f 72/5/38 68/13/38 66/14/38 70/7/38
f 73/1/1 74/2/1 76/3/1 75/4/1
f 75/4/39 76/3/39 80/5/39 79/6/39
f 79/6/3 80/5/3 78/7/3 77/8/3
f 77/8/40 78/7/40 74/9/40 73/10/40
f 75/11/41 79/6/41 77/8/41 73/12/41
f 80/5/42 76/13/42 74/14/42 78/7/42
f 81/1/1 82/2/1 84/3/1 83/4/1
f 83/4/43 84/3/43 88/5/43 87/6/43
f 87/6/3 88/5/3 86/7/3 85/8/3
f 85/8/44 86/7/44 82/9/44 81/10/44
f 83/11/45 87/6/45 85/8/45 81/12/45
f 88/5/46 84/13/46 82/14/46 86/7/46
f 89/1/1 90/2/1 92/3/1 91/4/1
f 91/4/47 92/3/47 96/5/47 95/6/47
f 95/6/3 96/5/3 94/7/3 93/8/3
f 93/8/48 94/7/48 90/9/48 89/10/48
f 91/11/49 95/6/49 93/8/49 89/12/49
f 96/5/50 92/13/50 90/14/50 94/7/50
f 97/1/1 98/2/1 100/3/1 99/4/1
f 99/4/51 100/3/51 104/5/51 103/6/51
f 103/6/3 104/5/3 102/7/3 101/8/3
f 101/8/52 102/7/52 98/9/52 97/10/52
f 99/11/53 103/6/53 101/8/53 97/12/53
f 104/5/54 100/13/54 98/14/54 102/7/54
f 105/1/1 106/2/1 108/3/1 107/4/1
f 107/4/55 108/3/55 112/5/55 111/6/55
f 111/6/3 112/5/3 110/7/3 109/8/3
f 109/8/56 110/7/56 106/9/56 105/10/56
f 107/11/57 111/6/57 109/8/57 105/12/57
f 112/5/58 108/13/58 106/14/58 110/7/58
f 113/1/1 114/2/1 116/3/1 115/4/1
f 115/4/59 116/3/59 120/5/59 119/6/59
f 119/6/3 120/5/3 118/7/3 117/8/3
f 117/8/60 118/7/60 114/9/60 113/10/60
f 115/11/61 119/6/61 117/8/61 113/12/61
f 120/5/62 116/13/62 114/14/62 118/7/62
f 121/1/1 122/2/1 124/3/1 123/4/1
f 123/4/63 124/3/63 128/5/63 127/6/63
f 127/6/3 128/5/3 126/7/3 125/8/3
f 125/8/64 126/7/64 122/9/64 121/10/64
f 123/11/65 127/6/65 125/8/65 121/12/65
f 128/5/66 124/13/66 122/14/66 126/7/66
f 129/1/1 130/2/1 132/3/1 131/4/1
f 131/4/67 132/3/67 136/5/67 135/6/67
f 135/6/3 136/5/3 134/7/3 133/8/3
f 133/8/68 134/7/68 130/9/68 129/10/68
f 131/11/69 135/6/69 133/8/69 129/12/69
f 136/5/70 132/13/70 130/14/70 134/7/70
f 137/1/1 138/2/1 140/3/1 139/4/1
f 139/4/71 140/3/71 144/5/71 143/6/71
f 143/6/3 144/5/3 142/7/3 141/8/3
f 141/8/72 142/7/72 138/9/72 137/10/72
f 139/11/73 143/6/73 141/8/73 137/12/73
f 144/5/74 140/13/74 138/14/74 142/7/74
f 145/1/1 146/2/1 148/3/1 147/4/1
f 147/4/75 148/3/75 152/5/75 151/6/75
f 151/6/3 152/5/3 150/7/3 149/8/3
f 149/8/76 150/7/76 146/9/76 145/10/76
f 147/11/77 151/6/77 149/8/77 145/12/77
f 152/5/78 148/13/78 146/14/78 150/7/78
f 153/1/1 154/2/1 156/3/1 155/4/1
f 155/4/79 156/3/79 160/5/79 159/6/79
f 159/6/3 160/5/3 158/7/3 157/8/3
f 157/8/80 158/7/80 154/9/80 153/10/80
f 155/11/81 159/6/81 157/8/81 153/12/81
f 160/5/82 156/13/82 154/14/82 158/7/82
f 161/1/1 162/2/1 164/3/1 163/4/1
f 163/4/83 164/3/83 168/5/83 167/6/83
f 167/6/3 168/5/3 166/7/3 165/8/3
f 165/8/84 166/7/84 162/9/84 161/10/84
f 163/11/85 167/6/85 165/8/85 161/12/85
f 168/5/86 164/13/86 162/14/86 166/7/86
f 169/1/1 170/2/1 172/3/1 171/4/1
f 171/4/87 172/3/87 176/5/87 175/6/87
f 175/6/3 176/5/3 174/7/3 173/8/3
f 173/8/88 174/7/88 170/9/88 169/10/88
f 171/11/89 175/6/89 173/8/89 169/12/89
f 176/5/90 172/13/90 170/14/90 174/7/90
f 177/1/1 178/2/1 180/3/1 179/4/1
f 179/4/91 180/3/91 184/5/91 183/6/91
f 183/6/3 184/5/3 182/7/3 181/8/3
f 181/8/92 182/7/92 178/9/92 177/10/92
f 179/11/93 183/6/93 181/8/93 177/12/93
f 184/5/94 180/13/94 178/14/94 182/7/94
