# Blender 4.5.5 LTS
# www.blender.org
o V_bridge_step_020
v -1.319395 -0.091137 -0.093015
v -1.319395 -0.107651 0.071080
v -1.319394 0.109371 -0.070889
v -1.319394 0.089420 0.092824
v 1.319394 -0.091137 -0.093016
v 1.319394 -0.107651 0.071080
v 1.319394 0.109371 -0.070889
v 1.319394 0.089420 0.092824
vn -1.0000 -0.0000 -0.0000
vn -0.0000 0.9927 0.1210
vn 1.0000 -0.0000 -0.0000
vn -0.0000 -0.9950 -0.1001
vn -0.0000 0.1097 -0.9940
vn -0.0000 -0.1097 0.9940
vt 0.375000 0.000000
vt 0.625000 0.000000
vt 0.625000 0.250000
vt 0.375000 0.250000
vt 0.625000 0.500000
vt 0.375000 0.500000
vt 0.625000 0.750000
vt 0.375000 0.750000
vt 0.625000 1.000000
vt 0.375000 1.000000
vt 0.125000 0.500000
vt 0.125000 0.750000
vt 0.875000 0.500000
vt 0.875000 0.750000
s 0
f 1/1/1 2/2/1 4/3/1 3/4/1
f 3/4/2 4/3/2 8/5/2 7/6/2
f 7/6/3 8/5/3 6/7/3 5/8/3
f 5/8/4 6/7/4 2/9/4 1/10/4
f 3/11/5 7/6/5 5/8/5 1/12/5
f 8/5/6 4/13/6 2/14/6 6/7/6
