# Blender 4.5.5 LTS
# www.blender.org
o V_cone_mesh_003
v -5.000000 10.229630 1.294095
v -4.921963 10.221943 1.294095
v -5.078036 10.221943 1.294095
v -5.000000 9.882537 2.161826
v -5.000000 9.868884 2.173686
v -5.010321 9.881520 2.161826
v -4.989678 9.881520 2.161826
v -4.992341 9.868130 2.173686
v -4.979753 9.878510 2.161826
v -4.984977 9.865896 2.173686
v -4.970605 9.873621 2.161826
v -4.846926 10.199181 1.294095
v -4.777771 10.162217 1.294095
v -4.717157 10.112472 1.294095
v -4.667412 10.051857 1.294095
v -4.962588 9.867041 2.161826
v -4.972242 9.857387 2.173686
v -4.956008 9.859023 2.161826
v -4.967360 9.851439 2.173686
v -4.951119 9.849876 2.161826
v -4.963732 9.844651 2.173686
v -4.948108 9.839951 2.161826
v -4.630448 9.982702 1.294095
v -4.607686 9.907665 1.294095
v -4.599999 9.829629 1.294095
v -4.607686 9.751593 1.294095
v -4.947092 9.829629 2.161826
v -4.960744 9.829629 2.173686
v -4.948108 9.819307 2.161826
v -4.961499 9.821971 2.173686
v -4.951119 9.809382 2.161826
v -4.963732 9.814607 2.173686
v -4.956008 9.800235 2.161826
v -4.630448 9.676556 1.294095
v -4.667412 9.607401 1.294095
v -4.717157 9.546786 1.294095
v -4.777771 9.497042 1.294095
v -4.962588 9.792217 2.161826
v -4.972242 9.801871 2.173686
v -4.970605 9.785638 2.161826
v -4.978190 9.796989 2.173686
v -4.979753 9.780748 2.161826
v -4.984977 9.793362 2.173686
v -4.989678 9.777738 2.161826
v -4.846926 9.460077 1.294095
v -4.921963 9.437315 1.294095
v -5.000000 9.429629 1.294095
v -5.078036 9.437315 1.294095
v -5.000000 9.776721 2.161826
v -5.000000 9.790374 2.173686
v -5.010321 9.777738 2.161826
v -5.007658 9.791128 2.173686
v -5.020247 9.780748 2.161826
v -5.015022 9.793362 2.173686
v -5.029394 9.785638 2.161826
v -5.153073 9.460077 1.294095
v -5.222228 9.497042 1.294095
v -5.282842 9.546786 1.294095
v -5.332587 9.607401 1.294095
v -5.037411 9.792217 2.161826
v -5.027757 9.801871 2.173686
v -5.043991 9.800235 2.161826
v -5.032639 9.807820 2.173686
v -5.048880 9.809382 2.161826
v -5.036267 9.814607 2.173686
v -5.051891 9.819307 2.161826
v -5.369551 9.676556 1.294095
v -5.392313 9.751593 1.294095
v -5.400000 9.829629 1.294095
v -5.392313 9.907665 1.294095
v -5.052907 9.829629 2.161826
v -5.039255 9.829629 2.173686
v -5.051891 9.839951 2.161826
v -5.038500 9.837288 2.173686
v -5.048880 9.849876 2.161826
v -5.036267 9.844651 2.173686
v -5.043991 9.859023 2.161826
v -5.369551 9.982702 1.294095
v -5.332587 10.051857 1.294095
v -5.282842 10.112472 1.294095
v -5.222228 10.162217 1.294095
v -5.037411 9.867041 2.161826
v -5.027757 9.857387 2.173686
v -5.029394 9.873621 2.161826
v -5.021809 9.862268 2.173686
v -5.020247 9.878510 2.161826
v -5.015022 9.865896 2.173686
v -5.153073 10.199181 1.294095
v -5.005755 9.843525 2.183736
v -5.007658 9.868130 2.173686
v -5.002934 9.844381 2.183736
v -5.000000 9.844670 2.183736
v -4.997065 9.844381 2.183736
v -4.994244 9.843525 2.183736
v -4.991643 9.842135 2.183736
v -4.978190 9.862268 2.173686
v -4.989364 9.840265 2.183736
v -4.987494 9.837986 2.183736
v -4.986104 9.835385 2.183736
v -4.985248 9.832563 2.183736
v -4.961499 9.837288 2.173686
v -4.984959 9.829629 2.183736
v -4.985248 9.826694 2.183736
v -4.986104 9.823874 2.183736
v -4.987494 9.821273 2.183736
v -4.967360 9.807820 2.173686
v -4.989364 9.818994 2.183736
v -4.991643 9.817123 2.183736
v -4.994244 9.815733 2.183736
v -4.997065 9.814877 2.183736
v -4.992341 9.791128 2.173686
v -5.000000 9.814589 2.183736
v -5.002934 9.814877 2.183736
v -5.005755 9.815733 2.183736
v -5.008356 9.817123 2.183736
v -5.021809 9.796989 2.173686
v -5.010635 9.818994 2.183736
v -5.012506 9.821273 2.183736
v -5.013896 9.823874 2.183736
v -5.014751 9.826694 2.183736
v -5.038500 9.821971 2.173686
v -5.015040 9.829629 2.183736
v -5.014751 9.832563 2.183736
v -5.013896 9.835385 2.183736
v -5.012506 9.837986 2.183736
v -5.032639 9.851439 2.173686
v -5.010635 9.840265 2.183736
v -5.008356 9.842135 2.183736
vn 0.0911 0.9246 0.3698
vn -0.0000 -0.0000 -1.0000
vn -0.0911 0.9246 0.3698
vn 0.0645 0.6544 0.7534
vn -0.0645 0.6544 0.7534
vn 0.1909 0.6294 0.7533
vn 0.2697 0.8891 0.3698
vn 0.3100 0.5800 0.7534
vn 0.4380 0.8194 0.3698
vn 0.5894 0.7182 0.3699
vn 0.7182 0.5894 0.3698
vn 0.4172 0.5083 0.7534
vn 0.5083 0.4172 0.7534
vn 0.5800 0.3100 0.7534
vn 0.8194 0.4380 0.3698
vn 0.6293 0.1909 0.7534
vn 0.8891 0.2697 0.3699
vn 0.9246 0.0911 0.3698
vn 0.9246 -0.0911 0.3698
vn 0.6545 0.0645 0.7533
vn 0.6544 -0.0645 0.7534
vn 0.6293 -0.1909 0.7534
vn 0.8891 -0.2697 0.3698
vn 0.5800 -0.3100 0.7533
vn 0.8194 -0.4380 0.3699
vn 0.7182 -0.5894 0.3698
vn 0.5894 -0.7182 0.3699
vn 0.5084 -0.4172 0.7534
vn 0.4171 -0.5083 0.7534
vn 0.3100 -0.5800 0.7533
vn 0.4380 -0.8194 0.3698
vn 0.1909 -0.6293 0.7533
vn 0.2697 -0.8891 0.3698
vn 0.0911 -0.9246 0.3698
vn -0.0911 -0.9246 0.3698
vn 0.0645 -0.6544 0.7534
vn -0.0645 -0.6544 0.7534
vn -0.1909 -0.6293 0.7533
vn -0.2697 -0.8891 0.3698
vn -0.3100 -0.5800 0.7533
vn -0.4380 -0.8194 0.3698
vn -0.5894 -0.7182 0.3698
vn -0.7182 -0.5894 0.3698
vn -0.4171 -0.5083 0.7534
vn -0.5084 -0.4172 0.7534
vn -0.5800 -0.3100 0.7533
vn -0.8194 -0.4380 0.3699
vn -0.6293 -0.1909 0.7534
vn -0.8891 -0.2697 0.3698
vn -0.9246 -0.0911 0.3698
vn -0.9246 0.0911 0.3698
vn -0.6544 -0.0645 0.7534
vn -0.6545 0.0645 0.7533
vn -0.6293 0.1909 0.7534
vn -0.8891 0.2697 0.3698
vn -0.5800 0.3100 0.7533
vn -0.8194 0.4380 0.3698
vn -0.7182 0.5894 0.3698
vn -0.5894 0.7182 0.3699
vn -0.5083 0.4172 0.7534
vn -0.4172 0.5083 0.7534
vn -0.3100 0.5800 0.7534
vn -0.4380 0.8194 0.3698
vn -0.1909 0.6293 0.7533
vn -0.2697 0.8891 0.3699
vn -0.1814 0.3395 0.9229
vn -0.1118 0.3683 0.9230
vn -0.0377 0.3831 0.9230
vn -0.0000 -0.0000 1.0000
vn 0.0377 0.3831 0.9230
vn 0.1118 0.3684 0.9229
vn 0.1814 0.3395 0.9230
vn 0.2442 0.2976 0.9229
vn 0.2976 0.2442 0.9229
vn 0.3395 0.1814 0.9230
vn 0.3684 0.1117 0.9230
vn 0.3831 0.0377 0.9230
vn 0.3831 -0.0378 0.9229
vn 0.3684 -0.1117 0.9229
vn 0.3394 -0.1814 0.9230
vn 0.2975 -0.2442 0.9230
vn 0.2442 -0.2976 0.9229
vn 0.1814 -0.3394 0.9230
vn 0.1118 -0.3684 0.9229
vn 0.0377 -0.3831 0.9230
vn -0.0377 -0.3831 0.9230
vn -0.1118 -0.3683 0.9230
vn -0.1814 -0.3395 0.9230
vn -0.2442 -0.2976 0.9229
vn -0.2975 -0.2442 0.9230
vn -0.3394 -0.1814 0.9230
vn -0.3684 -0.1117 0.9229
vn -0.3831 -0.0377 0.9229
vn -0.3831 0.0377 0.9230
vn -0.3683 0.1117 0.9230
vn -0.3395 0.1814 0.9230
vn -0.2976 0.2442 0.9229
vn -0.2442 0.2976 0.9229
vt 0.250000 0.490000
vt 0.250000 0.281745
vt 0.256193 0.281135
vt 0.296822 0.485388
vt 0.750000 0.490000
vt 0.796822 0.485388
vt 0.841844 0.471731
vt 0.883337 0.449553
vt 0.919706 0.419706
vt 0.949553 0.383337
vt 0.971731 0.341844
vt 0.985388 0.296822
vt 0.990000 0.250000
vt 0.985388 0.203178
vt 0.971731 0.158156
vt 0.949553 0.116663
vt 0.919706 0.080294
vt 0.883337 0.050447
vt 0.841844 0.028269
vt 0.796822 0.014612
vt 0.750000 0.010000
vt 0.703178 0.014612
vt 0.658156 0.028269
vt 0.616663 0.050447
vt 0.580294 0.080294
vt 0.550447 0.116663
vt 0.528269 0.158156
vt 0.514612 0.203178
vt 0.510000 0.250000
vt 0.514612 0.296822
vt 0.528269 0.341844
vt 0.550447 0.383337
vt 0.580294 0.419706
vt 0.616663 0.449553
vt 0.658156 0.471731
vt 0.703178 0.485388
vt 0.203178 0.485388
vt 0.243807 0.281135
vt 0.250000 0.277991
vt 0.255461 0.277453
vt 0.244539 0.277453
vt 0.260712 0.275860
vt 0.262148 0.279328
vt 0.341844 0.471731
vt 0.265551 0.273274
vt 0.267636 0.276395
vt 0.383337 0.449553
vt 0.272447 0.272447
vt 0.419706 0.419706
vt 0.276395 0.267636
vt 0.449553 0.383337
vt 0.269793 0.269793
vt 0.273274 0.265551
vt 0.275860 0.260712
vt 0.279328 0.262148
vt 0.471731 0.341844
vt 0.277453 0.255461
vt 0.281135 0.256193
vt 0.485388 0.296822
vt 0.281745 0.250000
vt 0.490000 0.250000
vt 0.281135 0.243807
vt 0.485388 0.203178
vt 0.277991 0.250000
vt 0.277453 0.244539
vt 0.275860 0.239288
vt 0.279328 0.237852
vt 0.471731 0.158156
vt 0.273274 0.234449
vt 0.276395 0.232364
vt 0.449553 0.116663
vt 0.272447 0.227553
vt 0.419706 0.080294
vt 0.267636 0.223605
vt 0.383337 0.050447
vt 0.269793 0.230207
vt 0.265551 0.226726
vt 0.260712 0.224140
vt 0.262148 0.220672
vt 0.341844 0.028269
vt 0.255461 0.222547
vt 0.256193 0.218865
vt 0.296822 0.014612
vt 0.250000 0.218255
vt 0.250000 0.010000
vt 0.243807 0.218865
vt 0.203178 0.014612
vt 0.250000 0.222009
vt 0.244539 0.222547
vt 0.239288 0.224140
vt 0.237852 0.220672
vt 0.158156 0.028269
vt 0.234449 0.226726
vt 0.232364 0.223605
vt 0.116663 0.050447
vt 0.227553 0.227553
vt 0.080294 0.080294
vt 0.223605 0.232364
vt 0.050447 0.116663
vt 0.230207 0.230207
vt 0.226726 0.234449
vt 0.224140 0.239288
vt 0.220672 0.237852
vt 0.028269 0.158156
vt 0.222547 0.244539
vt 0.218865 0.243807
vt 0.014612 0.203178
vt 0.218255 0.250000
vt 0.010000 0.250000
vt 0.218865 0.256193
vt 0.014612 0.296822
vt 0.222009 0.250000
vt 0.222547 0.255461
vt 0.224140 0.260712
vt 0.220672 0.262148
vt 0.028269 0.341844
vt 0.226726 0.265551
vt 0.223605 0.267636
vt 0.050447 0.383337
vt 0.227553 0.272447
vt 0.080294 0.419706
vt 0.232364 0.276395
vt 0.116663 0.449553
vt 0.230207 0.269793
vt 0.234449 0.273274
vt 0.239288 0.275860
vt 0.237852 0.279328
vt 0.158156 0.471731
vt 0.244986 0.257504
vt 0.246546 0.258338
vt 0.248239 0.258851
vt 0.250000 0.259025
vt 0.243619 0.256381
vt 0.242496 0.255014
vt 0.241662 0.253454
vt 0.241149 0.251761
vt 0.240975 0.250000
vt 0.241149 0.248239
vt 0.241662 0.246546
vt 0.242496 0.244986
vt 0.243619 0.243619
vt 0.244986 0.242496
vt 0.246546 0.241662
vt 0.248239 0.241149
vt 0.250000 0.240975
vt 0.251761 0.241149
vt 0.253454 0.241662
vt 0.255014 0.242496
vt 0.256381 0.243619
vt 0.257504 0.244986
vt 0.258338 0.246546
vt 0.258851 0.248239
vt 0.259025 0.250000
vt 0.258851 0.251761
vt 0.258338 0.253454
vt 0.257504 0.255014
vt 0.256381 0.256381
vt 0.255014 0.257504
vt 0.253454 0.258338
vt 0.251761 0.258851
s 0
f 1/1/1 4/2/1 7/3/1 2/4/1
f 1/5/2 2/6/2 12/7/2 13/8/2 14/9/2 15/10/2 23/11/2 24/12/2 25/13/2 26/14/2 34/15/2 35/16/2 36/17/2 37/18/2 45/19/2 46/20/2 47/21/2 48/22/2 56/23/2 57/24/2 58/25/2 59/26/2 67/27/2 68/28/2 69/29/2 70/30/2 78/31/2 79/32/2 80/33/2 81/34/2 88/35/2 3/36/2
f 3/37/3 6/38/3 4/2/3 1/1/3
f 5/39/4 8/40/4 7/3/4 4/2/4
f 90/41/5 5/39/5 4/2/5 6/38/5
f 8/40/6 10/42/6 9/43/6 7/3/6
f 2/4/7 7/3/7 9/43/7 12/44/7
f 10/42/8 96/45/8 11/46/8 9/43/8
f 12/44/9 9/43/9 11/46/9 13/47/9
f 13/47/10 11/46/10 16/48/10 14/49/10
f 14/49/11 16/48/11 18/50/11 15/51/11
f 96/45/12 17/52/12 16/48/12 11/46/12
f 17/52/13 19/53/13 18/50/13 16/48/13
f 19/53/14 21/54/14 20/55/14 18/50/14
f 15/51/15 18/50/15 20/55/15 23/56/15
f 21/54/16 101/57/16 22/58/16 20/55/16
f 23/56/17 20/55/17 22/58/17 24/59/17
f 24/59/18 22/58/18 27/60/18 25/61/18
f 25/61/19 27/60/19 29/62/19 26/63/19
f 101/57/20 28/64/20 27/60/20 22/58/20
f 28/64/21 30/65/21 29/62/21 27/60/21
f 30/65/22 32/66/22 31/67/22 29/62/22
f 26/63/23 29/62/23 31/67/23 34/68/23
f 32/66/24 106/69/24 33/70/24 31/67/24
f 34/68/25 31/67/25 33/70/25 35/71/25
f 35/71/26 33/70/26 38/72/26 36/73/26
f 36/73/27 38/72/27 40/74/27 37/75/27
f 106/69/28 39/76/28 38/72/28 33/70/28
f 39/76/29 41/77/29 40/74/29 38/72/29
f 41/77/30 43/78/30 42/79/30 40/74/30
f 37/75/31 40/74/31 42/79/31 45/80/31
f 43/78/32 111/81/32 44/82/32 42/79/32
f 45/80/33 42/79/33 44/82/33 46/83/33
f 46/83/34 44/82/34 49/84/34 47/85/34
f 47/85/35 49/84/35 51/86/35 48/87/35
f 111/81/36 50/88/36 49/84/36 44/82/36
f 50/88/37 52/89/37 51/86/37 49/84/37
f 52/89/38 54/90/38 53/91/38 51/86/38
f 48/87/39 51/86/39 53/91/39 56/92/39
f 54/90/40 116/93/40 55/94/40 53/91/40
f 56/92/41 53/91/41 55/94/41 57/95/41
f 57/95/42 55/94/42 60/96/42 58/97/42
f 58/97/43 60/96/43 62/98/43 59/99/43
f 116/93/44 61/100/44 60/96/44 55/94/44
f 61/100/45 63/101/45 62/98/45 60/96/45
f 63/101/46 65/102/46 64/103/46 62/98/46
f 59/99/47 62/98/47 64/103/47 67/104/47
f 65/102/48 121/105/48 66/106/48 64/103/48
f 67/104/49 64/103/49 66/106/49 68/107/49
f 68/107/50 66/106/50 71/108/50 69/109/50
f 69/109/51 71/108/51 73/110/51 70/111/51
f 121/105/52 72/112/52 71/108/52 66/106/52
f 72/112/53 74/113/53 73/110/53 71/108/53
f 74/113/54 76/114/54 75/115/54 73/110/54
f 70/111/55 73/110/55 75/115/55 78/116/55
f 76/114/56 126/117/56 77/118/56 75/115/56
f 78/116/57 75/115/57 77/118/57 79/119/57
f 79/119/58 77/118/58 82/120/58 80/121/58
f 80/121/59 82/120/59 84/122/59 81/123/59
f 126/117/60 83/124/60 82/120/60 77/118/60
f 83/124/61 85/125/61 84/122/61 82/120/61
f 85/125/62 87/126/62 86/127/62 84/122/62
f 81/123/63 84/122/63 86/127/63 88/128/63
f 87/126/64 90/41/64 6/38/64 86/127/64
f 88/128/65 86/127/65 6/38/65 3/37/65
f 128/129/66 89/130/66 87/126/66 85/125/66
f 89/130/67 91/131/67 90/41/67 87/126/67
f 91/131/68 92/132/68 5/39/68 90/41/68
f 91/131/69 89/130/69 128/129/69 127/133/69 125/134/69 124/135/69 123/136/69 122/137/69 120/138/69 119/139/69 118/140/69 117/141/69 115/142/69 114/143/69 113/144/69 112/145/69 110/146/69 109/147/69 108/148/69 107/149/69 105/150/69 104/151/69 103/152/69 102/153/69 100/154/69 99/155/69 98/156/69 97/157/69 95/158/69 94/159/69 93/160/69 92/132/69
f 92/132/70 93/160/70 8/40/70 5/39/70
f 93/160/71 94/159/71 10/42/71 8/40/71
f 94/159/72 95/158/72 96/45/72 10/42/72
f 95/158/73 97/157/73 17/52/73 96/45/73
f 97/157/74 98/156/74 19/53/74 17/52/74
f 98/156/75 99/155/75 21/54/75 19/53/75
f 99/155/76 100/154/76 101/57/76 21/54/76
f 100/154/77 102/153/77 28/64/77 101/57/77
f 102/153/78 103/152/78 30/65/78 28/64/78
f 103/152/79 104/151/79 32/66/79 30/65/79
f 104/151/80 105/150/80 106/69/80 32/66/80
f 105/150/81 107/149/81 39/76/81 106/69/81
f 107/149/82 108/148/82 41/77/82 39/76/82
f 108/148/83 109/147/83 43/78/83 41/77/83
f 109/147/84 110/146/84 111/81/84 43/78/84
f 110/146/85 112/145/85 50/88/85 111/81/85
f 112/145/86 113/144/86 52/89/86 50/88/86
f 113/144/87 114/143/87 54/90/87 52/89/87
f 114/143/88 115/142/88 116/93/88 54/90/88
f 115/142/89 117/141/89 61/100/89 116/93/89
f 117/141/90 118/140/90 63/101/90 61/100/90
f 118/140/91 119/139/91 65/102/91 63/101/91
f 119/139/92 120/138/92 121/105/92 65/102/92
f 120/138/93 122/137/93 72/112/93 121/105/93
f 122/137/94 123/136/94 74/113/94 72/112/94
f 123/136/95 124/135/95 76/114/95 74/113/95
f 124/135/96 125/134/96 126/117/96 76/114/96
f 125/134/97 127/133/97 83/124/97 126/117/97
f 127/133/98 128/129/98 85/125/98 83/124/98
