# Blender 4.5.5 LTS
# www.blender.org
o V_left_stair1_004
v -2.000000 0.100000 0.075000
v 2.000000 0.100000 0.075000
v -2.000000 -0.100000 0.075000
v 2.000000 -0.100000 0.075000
v 2.000000 0.100000 -0.075000
v -2.000000 0.100000 -0.075000
v 2.000000 -0.100000 -0.075000
v -2.000000 -0.100000 -0.075000
vn -0.0000 -0.0000 1.0000
vn -0.0000 -0.0000 -1.0000
vn -1.0000 -0.0000 -0.0000
vn -0.0000 -1.0000 -0.0000
vn -0.0000 1.0000 -0.0000
vn 1.0000 -0.0000 -0.0000
vt 1.000000 0.400000
vt 0.000000 0.400000
s 0
f 2/1/1 1/2/1 3/2/1 4/1/1
f 5/1/2 7/1/2 8/2/2 6/2/2
f 1/2/3 6/2/3 8/2/3 3/2/3
f 3/2/4 8/2/4 7/1/4 4/1/4
f 2/1/5 5/1/5 6/2/5 1/2/5
f 4/1/6 7/1/6 5/1/6 2/1/6
