# Blender 4.5.5 LTS
# www.blender.org
o V_right_stair1_006
v -3.000000 0.100000 0.075000
v 3.000000 0.100000 0.075000
v -3.000000 -0.100000 0.075000
v 3.000000 -0.100000 0.075000
v 3.000000 0.100000 -0.075000
v -3.000000 0.100000 -0.075000
v 3.000000 -0.100000 -0.075000
v -3.000000 -0.100000 -0.075000
vn -0.0000 -0.0000 1.0000
vn -0.0000 -0.0000 -1.0000
vn 1.0000 -0.0000 -0.0000
vn -1.0000 -0.0000 -0.0000
vn -0.0000 -1.0000 -0.0000
vn -0.0000 1.0000 -0.0000
vt 1.000000 0.600000
vt 0.000000 0.600000
s 0
f 2/1/1 1/2/1 3/2/1 4/1/1
f 5/1/2 7/1/2 8/2/2 6/2/2
f 4/1/3 7/1/3 5/1/3 2/1/3
f 1/2/4 6/2/4 8/2/4 3/2/4
f 3/2/5 8/2/5 7/1/5 4/1/5
f 2/1/6 5/1/6 6/2/6 1/2/6
