# Blender 4.5.5 LTS
# www.blender.org
o V_s2_end_BK
v -0.250000 -0.250000 -0.600000
v -0.250000 -0.250000 0.600000
v -0.250000 0.250000 -0.600000
v -0.250000 0.250000 0.600000
v 0.250000 -0.250000 -0.600000
v -0.050000 -0.250000 0.600000
v 0.250000 0.250000 -0.600000
v -0.050000 0.250000 0.600000
v -0.250000 1.000000 -0.600000
v 0.250000 1.000000 -0.600000
v -0.250000 -1.000000 -0.600000
v 0.250000 -1.000000 -0.600000
v -0.250000 0.500000 0.600000
v -0.250000 1.000000 0.100000
v -0.250000 0.629410 0.582963
v -0.250000 0.750000 0.533013
v -0.250000 0.853553 0.453553
v -0.250000 0.933013 0.350000
v -0.250000 0.982963 0.229410
v 0.075000 1.000000 0.100000
v -0.050000 0.500000 0.600000
v 0.042648 0.982963 0.229410
v 0.012500 0.933013 0.350000
v -0.013388 0.853553 0.453553
v -0.033253 0.750000 0.533013
v -0.045740 0.629410 0.582963
v -0.250000 -1.000000 0.100000
v -0.250000 -0.500000 0.600000
v -0.250000 -0.982963 0.229410
v -0.250000 -0.933013 0.350000
v -0.250000 -0.853553 0.453553
v -0.250000 -0.750000 0.533013
v -0.250000 -0.629410 0.582963
v -0.050000 -0.500000 0.600000
v 0.075000 -1.000000 0.100000
v -0.045740 -0.629410 0.582963
v -0.033253 -0.750000 0.533013
v -0.013388 -0.853553 0.453553
v 0.012500 -0.933013 0.350000
v 0.042648 -0.982963 0.229410
v 10.250002 0.999996 -0.600000
v 0.250001 1.000000 -0.600000
v 10.250000 -1.000004 -0.600000
v 0.250000 -1.000000 -0.600000
v 10.050001 -0.800003 -0.600000
v 10.050001 0.799996 -0.600000
v 0.450001 0.800000 -0.600000
v 0.450000 -0.800000 -0.600000
v 10.150001 -0.900003 -0.600000
v 10.150002 0.899996 -0.600000
v 0.350001 0.900000 -0.600000
v 0.350000 -0.900000 -0.600000
v 10.250002 0.999996 -1.600000
v 0.250001 1.000000 -1.600000
v 10.250000 -1.000004 -1.600000
v 0.250000 -1.000000 -1.600000
v 10.750001 0.249996 -0.600000
v 10.750001 0.249996 0.600000
v 10.750001 -0.250004 -0.600000
v 10.750001 -0.250004 0.600000
v 10.250001 0.249996 -0.600000
v 10.550001 0.249996 0.600000
v 10.250001 -0.250004 -0.600000
v 10.550000 -0.250004 0.600000
v 10.750001 -1.000004 -0.600000
v 10.250001 -1.000004 -0.600000
v 10.750001 0.999996 -0.600000
v 10.250001 0.999996 -0.600000
v 10.750001 -0.500004 0.600000
v 10.750001 -1.000004 0.100000
v 10.750001 -0.629413 0.582963
v 10.750001 -0.750004 0.533013
v 10.750001 -0.853557 0.453553
v 10.750001 -0.933017 0.350000
v 10.750001 -0.982967 0.229410
v 10.425000 -1.000004 0.100000
v 10.550000 -0.500004 0.600000
v 10.457353 -0.982967 0.229410
v 10.487500 -0.933017 0.350000
v 10.513389 -0.853557 0.453553
v 10.533254 -0.750004 0.533013
v 10.545741 -0.629413 0.582963
v 10.750001 0.999996 0.100000
v 10.750001 0.499996 0.600000
v 10.750001 0.982959 0.229410
v 10.750001 0.933009 0.350000
v 10.750001 0.853550 0.453553
v 10.750001 0.749996 0.533013
v 10.750001 0.629406 0.582963
v 10.550001 0.499996 0.600000
v 10.425001 0.999996 0.100000
v 10.545742 0.629406 0.582963
v 10.533254 0.749996 0.533013
v 10.513390 0.853550 0.453553
v 10.487501 0.933009 0.350000
v 10.457354 0.982959 0.229410
vn 0.9701 -0.0000 0.2425
vn -0.0000 -0.0000 1.0000
vn -0.0000 0.0661 0.9978
vn -0.0000 0.0654 0.9979
vn -0.0000 1.0000 -0.0000
vn -0.0000 0.9979 0.0654
vn -0.0000 0.9985 0.0552
vn -1.0000 -0.0000 -0.0000
vn -0.0000 -0.0654 0.9979
vn -0.0000 -0.0661 0.9978
vn -0.0000 -1.0000 -0.0000
vn -0.0000 -0.9985 0.0552
vn -0.0000 -0.9979 0.0654
vn -0.0000 0.2639 0.9646
vn -0.0000 0.2588 0.9659
vn -0.0000 0.5088 0.8609
vn -0.0000 0.5000 0.8660
vn -0.0000 0.7172 0.6969
vn -0.0000 0.7071 0.7071
vn -0.0000 0.8747 0.4847
vn -0.0000 0.8660 0.5000
vn -0.0000 0.9708 0.2398
vn -0.0000 0.9659 0.2588
vn -0.0000 -0.2588 0.9659
vn -0.0000 -0.2639 0.9646
vn -0.0000 -0.5000 0.8660
vn -0.0000 -0.5088 0.8609
vn -0.0000 -0.7071 0.7071
vn -0.0000 -0.7172 0.6969
vn -0.0000 -0.8660 0.5000
vn -0.0000 -0.8747 0.4847
vn -0.0000 -0.9659 0.2588
vn -0.0000 -0.9708 0.2398
vn 1.0000 -0.0000 -0.0000
vn -0.9701 -0.0000 0.2425
vt 0.632780 0.644714
vt 0.632779 0.767072
vt 0.557779 0.767072
vt 0.557779 0.695697
vt 0.559483 0.682501
vt 0.564478 0.670205
vt 0.572424 0.659647
vt 0.582780 0.651545
vt 0.594839 0.646452
vt 0.607780 0.644714
vt 0.557780 0.522357
vt 0.557780 0.400000
vt 0.582780 0.400000
vt 0.595720 0.401737
vt 0.607780 0.406830
vt 0.618135 0.414932
vt 0.626081 0.425491
vt 0.631076 0.437787
vt 0.632780 0.450982
vt 0.632780 0.522357
vt 0.732301 0.000000
vt 0.752301 0.000000
vt 0.752301 0.025000
vt 0.732301 0.025000
vt 0.657301 0.584065
vt 0.657301 0.514842
vt 0.689801 0.514842
vt 0.707301 0.584065
vt 0.732301 0.000000
vt 0.732301 0.119426
vt 0.657301 0.119426
vt 0.657301 0.049761
vt 0.659005 0.036882
vt 0.664000 0.024880
vt 0.671946 0.014575
vt 0.682301 0.006667
vt 0.694360 0.001696
vt 0.707301 0.000000
vt 0.752301 0.120711
vt 0.732301 0.120711
vt 0.732301 0.095711
vt 0.752301 0.095711
vt 0.657301 0.690426
vt 0.674801 0.621204
vt 0.707301 0.621204
vt 0.707301 0.690426
vt 0.752727 0.037941
vt 0.732301 0.037941
vt 0.753976 0.050000
vt 0.732301 0.050000
vt 0.755962 0.060355
vt 0.732301 0.060355
vt 0.657301 0.477703
vt 0.680962 0.477703
vt 0.683551 0.489124
vt 0.657301 0.489124
vt 0.686566 0.501791
vt 0.657301 0.501791
vt 0.732301 0.082770
vt 0.752727 0.082770
vt 0.732301 0.070711
vt 0.753976 0.070711
vt 0.683640 0.584065
vt 0.707301 0.584065
vt 0.707301 0.595486
vt 0.681051 0.595486
vt 0.707301 0.608153
vt 0.678036 0.608153
vt 0.657301 0.238851
vt 0.682301 0.119426
vt 0.695242 0.121121
vt 0.707301 0.126092
vt 0.717656 0.134000
vt 0.725602 0.144306
vt 0.730597 0.156307
vt 0.732301 0.169186
vt 0.732301 0.238851
vt 0.360000 0.000000
vt 0.360000 0.960000
vt 0.200000 0.960000
vt 0.200000 -0.000000
vt 0.190000 0.010000
vt 0.010000 0.010000
vt -0.000000 0.000000
vt 0.200000 0.000000
vt 0.190000 0.990000
vt 0.200000 1.000000
vt 0.010000 0.990000
vt 0.000000 1.000000
vt 0.657301 0.000000
vt 0.657301 0.200000
vt 0.557780 0.200000
vt 0.557779 0.000000
vt 0.458890 0.000000
vt 0.458890 1.000000
vt 0.360000 1.000000
vt 0.360000 0.000000
vt 0.557779 0.400000
vt 0.557779 0.200000
vt 0.657301 0.200000
vt 0.657301 0.400000
vt 0.557779 0.000000
vt 0.557779 1.000000
vt 0.458890 1.000000
vt 0.458890 0.000000
vt 0.632779 0.767072
vt 0.632779 0.889429
vt 0.557779 0.889429
vt 0.557779 0.818054
vt 0.559483 0.804859
vt 0.564478 0.792563
vt 0.572424 0.782004
vt 0.582779 0.773902
vt 0.594839 0.768809
vt 0.607780 0.767072
vt 0.557779 0.644714
vt 0.557779 0.522357
vt 0.582779 0.522357
vt 0.595720 0.524094
vt 0.607780 0.529188
vt 0.618135 0.537290
vt 0.626081 0.547848
vt 0.631076 0.560144
vt 0.632779 0.573339
vt 0.632779 0.644714
vt 0.680962 0.963506
vt 0.660962 0.963506
vt 0.660962 0.938506
vt 0.680962 0.938505
vt 0.657301 0.796788
vt 0.657301 0.727565
vt 0.689801 0.727565
vt 0.707301 0.796788
vt 0.732301 0.238851
vt 0.732301 0.358277
vt 0.657301 0.358277
vt 0.657301 0.288612
vt 0.659005 0.275733
vt 0.664000 0.263732
vt 0.671946 0.253426
vt 0.682301 0.245518
vt 0.694360 0.240547
vt 0.707301 0.238851
vt 0.735962 0.120711
vt 0.755962 0.120711
vt 0.755962 0.145711
vt 0.735962 0.145711
vt 0.657301 0.903150
vt 0.674801 0.833927
vt 0.707301 0.833927
vt 0.707301 0.903150
vt 0.660536 0.925565
vt 0.680962 0.925565
vt 0.659287 0.913505
vt 0.680962 0.913505
vt 0.680962 0.903150
vt 0.657301 0.690426
vt 0.680962 0.690426
vt 0.683551 0.701848
vt 0.657301 0.701848
vt 0.686566 0.714515
vt 0.657301 0.714515
vt 0.755962 0.158652
vt 0.735536 0.158652
vt 0.755962 0.170711
vt 0.734287 0.170711
vt 0.755962 0.181066
vt 0.732301 0.181066
vt 0.683640 0.796788
vt 0.707301 0.796788
vt 0.707301 0.808209
vt 0.681051 0.808209
vt 0.707301 0.820877
vt 0.678036 0.820877
vt 0.657301 0.477703
vt 0.682301 0.358277
vt 0.695242 0.359973
vt 0.707301 0.364944
vt 0.717656 0.372852
vt 0.725602 0.383157
vt 0.730597 0.395159
vt 0.732301 0.408038
vt 0.732301 0.477703
s 1
f 8/1/1 7/2/1 10/3/1 20/4/1 22/5/1 23/6/1 24/7/1 25/8/1 26/9/1 21/10/1
f 5/11/1 6/12/1 34/13/1 36/14/1 37/15/1 38/16/1 39/17/1 40/18/1 35/19/1 12/20/1
f 4/21/2 8/22/2 21/23/3 13/24/4
f 9/25/5 14/26/6 20/27/7 10/28/5
f 2/29/8 1/30/8 11/31/8 27/32/8 29/33/8 30/34/8 31/35/8 32/36/8 33/37/8 28/38/8
f 6/39/2 2/40/2 28/41/9 34/42/10
f 12/43/11 35/44/12 27/45/13 11/46/11
f 13/24/4 21/23/3 26/47/14 15/48/15
f 15/48/15 26/47/14 25/49/16 16/50/17
f 16/50/17 25/49/16 24/51/18 17/52/19
f 17/53/19 24/54/18 23/55/20 18/56/21
f 18/56/21 23/55/20 22/57/22 19/58/23
f 19/58/23 22/57/22 20/27/7 14/26/6
f 34/42/10 28/41/9 33/59/24 36/60/25
f 36/60/25 33/59/24 32/61/26 37/62/27
f 37/62/27 32/61/26 31/52/28 38/51/29
f 38/63/29 31/64/28 30/65/30 39/66/31
f 39/66/31 30/65/30 29/67/32 40/68/33
f 40/68/33 29/67/32 27/45/13 35/44/12
f 3/69/8 4/31/8 13/70/8 15/71/8 16/72/8 17/73/8 18/74/8 19/75/8 14/76/8 9/77/8
s 0
f 46/78/2 47/79/2 48/80/2 45/81/2
f 50/82/2 49/83/2 43/84/2 41/85/2
f 51/86/2 50/82/2 41/85/2 42/87/2
f 52/88/2 51/86/2 42/87/2 44/89/2
f 49/83/2 52/88/2 44/89/2 43/84/2
f 41/90/34 43/91/34 55/92/34 53/93/34
f 42/94/5 41/95/5 53/96/5 54/97/5
f 44/98/8 42/99/8 54/100/8 56/101/8
f 43/102/11 44/103/11 56/104/11 55/105/11
s 1
f 64/106/35 63/107/35 66/108/35 76/109/35 78/110/35 79/111/35 80/112/35 81/113/35 82/114/35 77/115/35
f 61/116/35 62/117/35 90/118/35 92/119/35 93/120/35 94/121/35 95/122/35 96/123/35 91/124/35 68/125/35
f 60/126/2 64/127/2 77/128/10 69/129/9
f 65/130/11 70/131/13 76/132/12 66/133/11
f 58/134/34 57/135/34 67/136/34 83/137/34 85/138/34 86/139/34 87/140/34 88/141/34 89/142/34 84/143/34
f 62/144/2 58/145/2 84/146/4 90/147/3
f 68/148/5 91/149/7 83/150/6 67/151/5
f 69/129/9 77/128/10 82/152/25 71/153/24
f 71/153/24 82/152/25 81/154/27 72/155/26
f 72/155/26 81/154/27 80/148/29 73/156/28
f 73/157/28 80/158/29 79/159/31 74/160/30
f 74/160/30 79/159/31 78/161/33 75/162/32
f 75/162/32 78/161/33 76/132/12 70/131/13
f 90/147/3 84/146/4 89/163/15 92/164/14
f 92/164/14 89/163/15 88/165/17 93/166/16
f 93/166/16 88/165/17 87/167/19 94/168/18
f 94/169/18 87/170/19 86/171/21 95/172/20
f 95/172/20 86/171/21 85/173/23 96/174/22
f 96/174/22 85/173/23 83/150/6 91/149/7
f 59/175/34 60/136/34 69/176/34 71/177/34 72/178/34 73/179/34 74/180/34 75/181/34 70/182/34 65/183/34
