# Blender 4.5.5 LTS
# www.blender.org
o V_Section_1_003
v -5.000000 11.829629 1.294095
v 5.000000 11.829629 1.294095
v -5.000000 12.329629 1.294095
v 5.000000 12.329629 1.294095
v -5.000000 12.329629 0.294096
v -5.000000 11.829629 0.294096
v 5.000000 11.829629 0.294096
v 5.000000 12.329629 0.294096
vn -0.0000 -0.0000 1.0000
vn -0.0000 -0.0000 -1.0000
vn 1.0000 -0.0000 -0.0000
vn -1.0000 -0.0000 -0.0000
vn -0.0000 1.0000 -0.0000
vn -0.0000 -1.0000 -0.0000
vt 0.000000 0.000000
vt 1.000000 0.000000
vt 1.000000 1.000000
vt 0.000000 1.000000
s 0
f 1/1/1 2/2/1 4/3/1 3/4/1
f 6/1/2 5/4/2 8/3/2 7/2/2
f 2/2/3 7/2/3 8/3/3 4/3/3
f 3/4/4 5/4/4 6/1/4 1/1/4
f 4/3/5 8/3/5 5/4/5 3/4/5
f 1/1/6 6/1/6 7/2/6 2/2/6
