# Blender 4.5.5 LTS
# www.blender.org
o V_Section_1_SLOP_004
v -5.000000 14.579628 2.294095
v 5.000000 14.579628 2.294095
v -5.000000 14.329628 2.294095
v 5.000000 14.329628 2.294095
v -5.000000 14.579628 0.294096
v 5.000000 14.579628 0.294096
v -5.000000 14.329628 0.294096
v 5.000000 14.329628 0.294096
vn -0.0000 -0.0000 1.0000
vn -0.0000 -0.0000 -1.0000
vn 1.0000 -0.0000 -0.0000
vn -0.0000 -1.0000 -0.0000
vn -1.0000 -0.0000 -0.0000
vn -0.0000 1.0000 -0.0000
vt 1.000000 0.035714
vt 0.000000 0.035714
vt 0.000000 0.000000
vt 1.000000 0.000000
s 0
f 2/1/1 1/2/1 3/3/1 4/4/1
f 6/1/2 8/4/2 7/3/2 5/2/2
f 4/4/3 8/4/3 6/1/3 2/1/3
f 3/3/4 7/3/4 8/4/4 4/4/4
f 1/2/5 5/2/5 7/3/5 3/3/5
f 2/1/6 6/1/6 5/2/6 1/2/6
