# Blender 4.5.5 LTS
# www.blender.org
o V_01_004
v -5.000000 21.329628 2.794095
v -1.000000 21.329628 2.794095
v -5.000000 21.329628 1.794095
v -1.000000 21.329628 1.794095
v -5.000000 14.329629 2.794095
v -1.000000 14.329629 2.794095
v -5.000000 14.329629 1.794095
v -1.000000 14.329629 1.794095
v -5.000000 20.729628 2.794095
v -4.599999 20.329628 2.794095
v -4.986370 20.626101 2.794095
v -4.946410 20.529629 2.794095
v -4.882842 20.446785 2.794095
v -4.799999 20.383217 2.794095
v -4.703527 20.343258 2.794095
v -1.399999 20.329628 2.794095
v -1.000000 20.729628 2.794095
v -1.296472 20.343258 2.794095
v -1.200000 20.383217 2.794095
v -1.117157 20.446785 2.794095
v -1.053589 20.529629 2.794095
v -1.013629 20.626101 2.794095
v -4.599999 20.329628 1.794095
v -5.000000 20.729628 1.794095
v -4.703527 20.343258 1.794095
v -4.799999 20.383217 1.794095
v -4.882842 20.446785 1.794095
v -4.946410 20.529629 1.794095
v -4.986370 20.626101 1.794095
v -1.000000 20.729628 1.794095
v -1.399999 20.329628 1.794095
v -1.013629 20.626101 1.794095
v -1.053589 20.529629 1.794095
v -1.117157 20.446785 1.794095
v -1.200000 20.383217 1.794095
v -1.296472 20.343258 1.794095
v -4.599999 15.329629 2.794095
v -5.000000 14.929628 2.794095
v -4.703527 15.316000 2.794095
v -4.799999 15.276039 2.794095
v -4.882842 15.212472 2.794095
v -4.946410 15.129629 2.794095
v -4.986370 15.033157 2.794095
v -1.000000 14.929628 2.794095
v -1.399999 15.329629 2.794095
v -1.013629 15.033157 2.794095
v -1.053589 15.129629 2.794095
v -1.117157 15.212472 2.794095
v -1.200000 15.276039 2.794095
v -1.296472 15.316000 2.794095
v -5.000000 14.929628 1.794095
v -4.599999 15.329629 1.794095
v -4.986370 15.033157 1.794095
v -4.946410 15.129629 1.794095
v -4.882842 15.212472 1.794095
v -4.799999 15.276039 1.794095
v -4.703527 15.316000 1.794095
v -1.399999 15.329629 1.794095
v -1.000000 14.929628 1.794095
v -1.296472 15.316000 1.794095
v -1.200000 15.276039 1.794095
v -1.117157 15.212472 1.794095
v -1.053589 15.129629 1.794095
v -1.013629 15.033157 1.794095
vn 0.0654 -0.9979 -0.0000
vn -0.0654 -0.9979 -0.0000
vn -1.0000 -0.0000 -0.0000
vn -0.9979 0.0654 -0.0000
vn -0.0000 -0.0000 1.0000
vn 1.0000 -0.0000 -0.0000
vn 0.9979 -0.0654 -0.0000
vn -0.0000 -0.0000 -1.0000
vn -0.0000 1.0000 -0.0000
vn -0.0654 0.9979 -0.0000
vn 0.0654 0.9979 -0.0000
vn -0.0000 -1.0000 -0.0000
vn 0.9979 0.0654 -0.0000
vn -0.9979 -0.0654 -0.0000
vn -0.9659 -0.2588 -0.0000
vn -0.8660 -0.5000 -0.0000
vn -0.7071 -0.7071 -0.0000
vn -0.5000 -0.8660 -0.0000
vn -0.2588 -0.9659 -0.0000
vn 0.2588 -0.9659 -0.0000
vn 0.5000 -0.8660 -0.0000
vn 0.7071 -0.7071 -0.0000
vn 0.8660 -0.5000 -0.0000
vn 0.9659 -0.2588 -0.0000
vn -0.2588 0.9659 -0.0000
vn -0.5000 0.8660 -0.0000
vn -0.7071 0.7071 -0.0000
vn -0.8660 0.5000 -0.0000
vn -0.9659 0.2588 -0.0000
vn 0.9659 0.2588 -0.0000
vn 0.8660 0.5000 -0.0000
vn 0.7071 0.7071 -0.0000
vn 0.5000 0.8660 -0.0000
vn 0.2588 0.9659 -0.0000
vt 0.900000 0.000000
vt 0.100000 0.000000
vt 0.100000 0.000000
vt 0.000000 0.000000
vt 0.000000 0.600000
vt 0.000000 0.400000
vt 0.001136 0.296472
vt 0.004466 0.200000
vt 0.009763 0.039052
vt 0.050000 0.017863
vt 0.074118 0.004543
vt 0.925882 0.004543
vt 0.950000 0.017863
vt 0.990237 0.039052
vt 0.995534 0.200000
vt 0.998864 0.296472
vt 1.000000 0.400000
vt 1.000000 1.000000
vt 0.000000 1.000000
vt 0.074118 0.004543
vt 0.009763 0.039052
vt 0.000000 0.400000
vt 0.925882 0.004543
vt 0.100000 1.000000
vt 0.900000 1.000000
vt 0.100000 1.000000
vt 1.000000 0.000000
vt 1.000000 0.600000
vt 0.998864 0.703528
vt 0.995534 0.800000
vt 0.990237 0.960948
vt 0.950000 0.982137
vt 0.925882 0.995457
vt 0.074118 0.995457
vt 0.050000 0.982137
vt 0.009763 0.960948
vt 0.004466 0.800000
vt 0.001136 0.703528
vt 0.074118 0.995457
s 1
f 16/1/1 10/2/2 23/3/2 31/1/1
f 5/4/3 38/5/4 51/5/4 7/4/3
f 9/6/5 11/7/5 12/8/5 13/9/5 14/10/5 15/11/5 10/2/5 16/1/5 18/12/5 19/13/5 20/14/5 21/15/5 22/16/5 17/17/5 2/18/5 1/19/5
f 2/18/6 17/17/7 30/17/7 4/18/6
f 23/3/8 25/20/8 26/10/8 27/21/8 28/8/8 29/7/8 24/22/8 3/19/8 4/18/8 30/17/8 32/16/8 33/15/8 34/14/8 35/13/8 36/23/8 31/1/8
f 1/19/9 2/18/9 4/18/9 3/19/9
f 37/24/10 45/25/11 58/25/11 52/26/10
f 5/4/5 6/27/5 44/28/5 46/29/5 47/30/5 48/31/5 49/32/5 50/33/5 45/25/5 37/24/5 39/34/5 40/35/5 41/36/5 42/37/5 43/38/5 38/5/5
f 6/27/12 5/4/12 7/4/12 8/27/12
f 7/4/8 51/5/8 53/38/8 54/37/8 55/36/8 56/35/8 57/39/8 52/26/8 58/25/8 60/33/8 61/32/8 62/31/8 63/30/8 64/29/8 59/28/8 8/27/8
f 44/28/13 6/27/6 8/27/6 59/28/13
f 9/6/14 24/22/14 29/7/15 11/7/15
f 11/7/15 29/7/15 28/8/16 12/8/16
f 12/8/16 28/8/16 27/21/17 13/9/17
f 13/9/17 27/21/17 26/10/18 14/10/18
f 14/10/18 26/10/18 25/20/19 15/11/19
f 15/11/19 25/20/19 23/3/2 10/2/2
f 16/1/1 31/1/1 36/23/20 18/12/20
f 18/12/20 36/23/20 35/13/21 19/13/21
f 19/13/21 35/13/21 34/14/22 20/14/22
f 20/14/22 34/14/22 33/15/23 21/15/23
f 21/15/23 33/15/23 32/16/24 22/16/24
f 22/16/24 32/16/24 30/17/7 17/17/7
f 37/24/10 52/26/10 57/39/25 39/34/25
f 39/34/25 57/39/25 56/35/26 40/35/26
f 40/35/26 56/35/26 55/36/27 41/36/27
f 41/36/27 55/36/27 54/37/28 42/37/28
f 42/37/28 54/37/28 53/38/29 43/38/29
f 43/38/29 53/38/29 51/5/4 38/5/4
f 44/28/13 59/28/13 64/29/30 46/29/30
f 46/29/30 64/29/30 63/30/31 47/30/31
f 47/30/31 63/30/31 62/31/32 48/31/32
f 48/31/32 62/31/32 61/32/33 49/32/33
f 49/32/33 61/32/33 60/33/34 50/33/34
f 50/33/34 60/33/34 58/25/11 45/25/11
f 9/6/14 1/19/3 3/19/3 24/22/14
