# Blender 4.5.5 LTS
# www.blender.org
o V_arrow_1
v 0.499999 -0.499999 0.000000
v -0.499999 -0.499999 0.000000
v 0.000000 0.000000 0.000000
v -0.499999 -0.871016 0.000000
v 0.499999 -0.871016 0.000000
v 0.000000 -0.160150 0.000000
v 0.339850 -0.499999 0.000000
v -0.339849 -0.499999 0.000000
v 0.000000 -0.371017 0.000000
v 0.000000 -0.531167 0.000000
v 0.339850 -0.871016 0.000000
v -0.339850 -0.871016 0.000000
v 0.000000 -0.371017 0.010000
v 0.499999 -0.871016 0.010000
v -0.499999 -0.871016 0.010000
v 0.499999 -0.499999 0.010000
v 0.000000 0.000000 0.010000
v -0.499999 -0.499999 0.010000
v 0.000000 -0.160150 0.010000
v 0.339850 -0.499999 0.010000
v -0.339849 -0.499999 0.010000
v 0.000000 -0.531167 0.010000
v 0.339850 -0.871016 0.010000
v -0.339850 -0.871016 0.010000
vn -0.0000 -0.0000 -1.0000
vn -0.0000 -0.0000 1.0000
vn -0.0000 -1.0000 -0.0000
vn -0.7071 0.7071 -0.0000
vn -0.7071 -0.7071 -0.0000
vn 0.7071 0.7071 -0.0000
vn 0.7071 -0.7071 -0.0000
vt 0.000000 0.000000
s 0
f 3/1/1 1/1/1 7/1/1 6/1/1
f 2/1/1 3/1/1 6/1/1 8/1/1
f 9/1/1 5/1/1 11/1/1 10/1/1
f 4/1/1 9/1/1 10/1/1 12/1/1
f 17/1/2 19/1/2 20/1/2 16/1/2
f 18/1/2 21/1/2 19/1/2 17/1/2
f 13/1/2 22/1/2 23/1/2 14/1/2
f 15/1/2 24/1/2 22/1/2 13/1/2
f 4/1/3 12/1/3 24/1/3 15/1/3
f 3/1/4 2/1/4 18/1/4 17/1/4
f 10/1/5 11/1/5 23/1/5 22/1/5
f 5/1/6 9/1/6 13/1/6 14/1/6
f 8/1/7 6/1/7 19/1/7 21/1/7
f 11/1/3 5/1/3 14/1/3 23/1/3
f 9/1/4 4/1/4 15/1/4 13/1/4
f 2/1/3 8/1/3 21/1/3 18/1/3
f 6/1/5 7/1/5 20/1/5 19/1/5
f 12/1/7 10/1/7 22/1/7 24/1/7
f 1/1/6 3/1/6 17/1/6 16/1/6
f 7/1/3 1/1/3 16/1/3 20/1/3
