# Blender 4.5.5 LTS
# www.blender.org
o V_BAKE_INSIDE
v 0.000000 10.000000 0.000000
v -0.980171 9.951847 0.000000
v -1.950903 9.807853 0.000000
v -2.902847 9.569404 0.000000
v -3.826835 9.238795 0.000000
v -4.713967 8.819212 0.000000
v -5.555702 8.314696 0.000000
v -6.343933 7.730104 0.000000
v -7.071068 7.071068 0.000000
v -7.730104 6.343933 0.000000
v -8.314696 5.555702 0.000000
v -8.819212 4.713967 0.000000
v -9.238795 3.826835 0.000000
v -9.569404 2.902847 0.000000
v -9.807853 1.950903 0.000000
v -9.951847 0.980171 0.000000
v -10.000000 0.000000 0.000000
v -9.951847 -0.980171 0.000000
v -9.807853 -1.950903 0.000000
v -9.569404 -2.902847 0.000000
v -9.238795 -3.826835 0.000000
v -8.819212 -4.713967 0.000000
v -8.314696 -5.555702 0.000000
v -7.730104 -6.343933 0.000000
v -7.071068 -7.071068 0.000000
v -6.343933 -7.730104 0.000000
v -5.555702 -8.314696 0.000000
v -4.713967 -8.819212 0.000000
v -3.826835 -9.238795 0.000000
v -2.902847 -9.569404 0.000000
v -1.950903 -9.807853 0.000000
v -0.980171 -9.951847 0.000000
v 0.000000 -10.000000 0.000000
v 0.980171 -9.951847 0.000000
v 1.950903 -9.807853 0.000000
v 2.902847 -9.569404 0.000000
v 3.826835 -9.238795 0.000000
v 4.713967 -8.819212 0.000000
v 5.555702 -8.314696 0.000000
v 6.343933 -7.730104 0.000000
v 7.071068 -7.071068 0.000000
v 7.730104 -6.343933 0.000000
v 8.314696 -5.555702 0.000000
v 8.819212 -4.713967 0.000000
v 9.238795 -3.826835 0.000000
v 9.569404 -2.902847 0.000000
v 9.807853 -1.950903 0.000000
v 9.951847 -0.980171 0.000000
v 10.000000 0.000000 0.000000
v 9.951847 0.980171 0.000000
v 9.807853 1.950903 0.000000
v 9.569404 2.902847 0.000000
v 9.238795 3.826835 0.000000
v 8.819212 4.713967 0.000000
v 8.314696 5.555702 0.000000
v 7.730104 6.343933 0.000000
v 7.071068 7.071068 0.000000
v 6.343933 7.730104 0.000000
v 5.555702 8.314696 0.000000
v 4.713967 8.819212 0.000000
v 3.826835 9.238795 0.000000
v 2.902847 9.569404 0.000000
v 1.950903 9.807853 0.000000
v 0.980171 9.951847 0.000000
v -0.096953 0.984382 0.000000
v 0.000000 0.989145 0.000000
v -0.192975 0.970140 0.000000
v -0.287134 0.946553 0.000000
v -0.378526 0.913853 0.000000
v -0.466280 0.872349 0.000000
v -0.549542 0.822443 0.000000
v -0.627507 0.764621 0.000000
v -0.699432 0.699432 0.000000
v -0.764621 0.627507 0.000000
v -0.822444 0.549543 0.000000
v -0.872349 0.466280 0.000000
v -0.913852 0.378526 0.000000
v -0.946554 0.287135 0.000000
v -0.970140 0.192975 0.000000
v -0.984383 0.096953 0.000000
v -0.989145 0.000000 0.000000
v -0.984382 -0.096953 0.000000
v -0.970140 -0.192975 0.000000
v -0.946553 -0.287134 0.000000
v -0.913853 -0.378526 0.000000
v -0.872349 -0.466280 0.000000
v -0.822443 -0.549542 0.000000
v -0.764621 -0.627507 0.000000
v -0.699432 -0.699432 0.000000
v -0.627507 -0.764621 0.000000
v -0.549543 -0.822444 0.000000
v -0.466280 -0.872349 0.000000
v -0.378526 -0.913852 0.000000
v -0.287135 -0.946554 0.000000
v -0.192975 -0.970140 0.000000
v -0.096953 -0.984383 0.000000
v 0.000000 -0.989145 0.000000
v 0.096953 -0.984382 0.000000
v 0.192975 -0.970140 0.000000
v 0.287134 -0.946553 0.000000
v 0.378526 -0.913853 0.000000
v 0.466280 -0.872349 0.000000
v 0.549542 -0.822443 0.000000
v 0.627507 -0.764621 0.000000
v 0.699432 -0.699432 0.000000
v 0.764621 -0.627507 0.000000
v 0.822444 -0.549543 0.000000
v 0.872349 -0.466280 0.000000
v 0.913852 -0.378526 0.000000
v 0.946554 -0.287135 0.000000
v 0.970140 -0.192975 0.000000
v 0.984383 -0.096953 0.000000
v 0.989145 0.000000 0.000000
v 0.984382 0.096953 0.000000
v 0.970140 0.192975 0.000000
v 0.946553 0.287134 0.000000
v 0.913853 0.378526 0.000000
v 0.872349 0.466280 0.000000
v 0.822443 0.549542 0.000000
v 0.764621 0.627507 0.000000
v 0.699432 0.699432 0.000000
v 0.627507 0.764621 0.000000
v 0.549543 0.822444 0.000000
v 0.466280 0.872349 0.000000
v 0.378526 0.913852 0.000000
v 0.287135 0.946554 0.000000
v 0.192975 0.970140 0.000000
v 0.096953 0.984383 0.000000
v 0.980171 9.951847 -2.000000
v 1.950903 9.807853 -2.000000
v 2.902847 9.569404 -2.000000
v 3.826835 9.238795 -2.000000
v 4.713967 8.819212 -2.000000
v 5.555702 8.314696 -2.000000
v 6.343933 7.730104 -2.000000
v 7.071068 7.071068 -2.000000
v 7.730104 6.343933 -2.000000
v 8.314696 5.555702 -2.000000
v 8.819212 4.713967 -2.000000
v 9.238795 3.826835 -2.000000
v 9.569404 2.902847 -2.000000
v 9.807853 1.950903 -2.000000
v 9.951847 0.980171 -2.000000
v 10.000000 0.000000 -2.000000
v 9.951847 -0.980171 -2.000000
v 9.807853 -1.950903 -2.000000
v 9.569404 -2.902847 -2.000000
v 9.238795 -3.826835 -2.000000
v 8.819212 -4.713967 -2.000000
v 8.314696 -5.555702 -2.000000
v 7.730104 -6.343933 -2.000000
v 7.071068 -7.071068 -2.000000
v 6.343933 -7.730104 -2.000000
v 5.555702 -8.314696 -2.000000
v 4.713967 -8.819212 -2.000000
v 3.826835 -9.238795 -2.000000
v 2.902847 -9.569404 -2.000000
v 1.950903 -9.807853 -2.000000
v 0.980171 -9.951847 -2.000000
v 0.000000 -10.000000 -2.000000
v -0.980171 -9.951847 -2.000000
v -1.950903 -9.807853 -2.000000
v -2.902847 -9.569404 -2.000000
v -3.826835 -9.238795 -2.000000
v -4.713967 -8.819212 -2.000000
v -5.555702 -8.314696 -2.000000
v -6.343933 -7.730104 -2.000000
v -7.071068 -7.071068 -2.000000
v -7.730104 -6.343933 -2.000000
v -8.314696 -5.555702 -2.000000
v -8.819212 -4.713967 -2.000000
v -9.238795 -3.826835 -2.000000
v -9.569404 -2.902847 -2.000000
v -9.807853 -1.950903 -2.000000
v -9.951847 -0.980171 -2.000000
v -10.000000 0.000000 -2.000000
v -9.951847 0.980171 -2.000000
v -9.807853 1.950903 -2.000000
v -9.569404 2.902847 -2.000000
v -9.238795 3.826835 -2.000000
v -8.819212 4.713967 -2.000000
v -8.314696 5.555702 -2.000000
v -7.730104 6.343933 -2.000000
v -7.071068 7.071068 -2.000000
v -6.343933 7.730104 -2.000000
v -5.555702 8.314696 -2.000000
v -4.713967 8.819212 -2.000000
v -3.826835 9.238795 -2.000000
v -2.902847 9.569404 -2.000000
v -1.950903 9.807853 -2.000000
v -0.980171 9.951847 -2.000000
v 0.000000 10.000000 -2.000000
vn -0.0000 -0.0000 1.0000
vn -0.3827 -0.9239 -0.0000
vn -0.4714 -0.8819 -0.0000
vn 0.0980 0.9952 -0.0000
vn 0.1951 0.9808 -0.0000
vn 0.8315 0.5556 -0.0000
vn 0.8819 0.4714 -0.0000
vn -0.8315 0.5556 -0.0000
vn -0.7730 0.6344 -0.0000
vn 0.7071 -0.7071 -0.0000
vn 0.6344 -0.7730 -0.0000
vn -0.0980 0.9952 -0.0000
vn -0.0000 1.0000 -0.0000
vn 0.3827 -0.9239 -0.0000
vn 0.2903 -0.9569 -0.0000
vn -0.5556 -0.8315 -0.0000
vn 0.2903 0.9569 -0.0000
vn 0.9239 0.3827 -0.0000
vn -0.7071 0.7071 -0.0000
vn -0.6344 -0.7730 -0.0000
vn 0.1951 -0.9808 -0.0000
vn 0.9569 0.2903 -0.0000
vn 0.3827 0.9239 -0.0000
vn -0.7071 -0.7071 -0.0000
vn -0.6344 0.7730 -0.0000
vn 0.9808 0.1951 -0.0000
vn 0.0980 -0.9952 -0.0000
vn -0.7730 -0.6344 -0.0000
vn 0.4714 0.8819 -0.0000
vn 0.9952 0.0980 -0.0000
vn -0.5556 0.8315 -0.0000
vn -0.8315 -0.5556 -0.0000
vn -0.0000 -1.0000 -0.0000
vn 1.0000 -0.0000 -0.0000
vn 0.5556 0.8315 -0.0000
vn -0.8819 -0.4714 -0.0000
vn -0.4714 0.8819 -0.0000
vn 0.9952 -0.0980 -0.0000
vn -0.0980 -0.9952 -0.0000
vn -0.9239 -0.3827 -0.0000
vn 0.6344 0.7730 -0.0000
vn 0.9808 -0.1951 -0.0000
vn -0.3827 0.9239 -0.0000
vn -0.9569 -0.2903 -0.0000
vn -0.1951 -0.9808 -0.0000
vn 0.7730 -0.6344 -0.0000
vn 0.9569 -0.2903 -0.0000
vn 0.7071 0.7071 -0.0000
vn -0.9808 0.1951 -0.0000
vn -0.9569 0.2903 -0.0000
vn -0.9808 -0.1951 -0.0000
vn -0.2903 0.9569 -0.0000
vn -0.9239 0.3827 -0.0000
vn 0.9239 -0.3827 -0.0000
vn -0.2903 -0.9569 -0.0000
vn 0.5556 -0.8315 -0.0000
vn -0.9952 -0.0980 -0.0000
vn 0.7730 0.6344 -0.0000
vn -0.8819 0.4714 -0.0000
vn 0.8819 -0.4714 -0.0000
vn -0.1951 0.9808 -0.0000
vn 0.4714 -0.8819 -0.0000
vn -1.0000 -0.0000 -0.0000
vn 0.8315 -0.5556 -0.0000
vn -0.9952 0.0980 -0.0000
vt 0.379199 0.434721
vt 0.382438 0.436885
vt 0.196558 0.747009
vt 0.163817 0.725132
vt 0.376188 0.432250
vt 0.133378 0.700151
vt 0.373434 0.429496
vt 0.105534 0.672308
vt 0.370963 0.426486
vt 0.080554 0.641869
vt 0.368799 0.423247
vt 0.058677 0.609128
vt 0.366963 0.419812
vt 0.040115 0.574400
vt 0.365473 0.416213
vt 0.025046 0.538021
vt 0.364342 0.412486
vt 0.013615 0.500339
vt 0.363582 0.408666
vt 0.005933 0.461719
vt 0.363200 0.404790
vt 0.002073 0.422531
vt 0.363200 0.400895
vt 0.002073 0.383154
vt 0.363582 0.397019
vt 0.005933 0.343967
vt 0.364342 0.393199
vt 0.013615 0.305347
vt 0.365473 0.389471
vt 0.025045 0.267665
vt 0.366963 0.385873
vt 0.040114 0.231285
vt 0.368799 0.382438
vt 0.058676 0.196558
vt 0.370963 0.379199
vt 0.080553 0.163817
vt 0.373434 0.376188
vt 0.105533 0.133378
vt 0.376188 0.373434
vt 0.133377 0.105534
vt 0.379199 0.370963
vt 0.163816 0.080554
vt 0.382438 0.368799
vt 0.196557 0.058677
vt 0.385873 0.366963
vt 0.231284 0.040115
vt 0.389471 0.365473
vt 0.267664 0.025046
vt 0.393198 0.364342
vt 0.305345 0.013615
vt 0.397019 0.363582
vt 0.343966 0.005933
vt 0.400895 0.363200
vt 0.383153 0.002073
vt 0.404790 0.363200
vt 0.422530 0.002073
vt 0.408666 0.363582
vt 0.461718 0.005933
vt 0.412486 0.364342
vt 0.500338 0.013615
vt 0.416213 0.365473
vt 0.538020 0.025045
vt 0.419812 0.366963
vt 0.574399 0.040114
vt 0.423247 0.368799
vt 0.609127 0.058676
vt 0.426485 0.370963
vt 0.641868 0.080553
vt 0.429496 0.373434
vt 0.672307 0.105533
vt 0.432250 0.376188
vt 0.700150 0.133377
vt 0.434721 0.379199
vt 0.725131 0.163816
vt 0.436885 0.382438
vt 0.747008 0.196557
vt 0.438721 0.385873
vt 0.765570 0.231284
vt 0.440212 0.389471
vt 0.780639 0.267664
vt 0.441343 0.393198
vt 0.792070 0.305345
vt 0.442102 0.397018
vt 0.799752 0.343966
vt 0.442484 0.400895
vt 0.803612 0.383153
vt 0.442484 0.404790
vt 0.803612 0.422530
vt 0.442102 0.408666
vt 0.799752 0.461718
vt 0.441343 0.412486
vt 0.792070 0.500338
vt 0.440212 0.416213
vt 0.780640 0.538020
vt 0.438721 0.419812
vt 0.765571 0.574399
vt 0.436885 0.423247
vt 0.747009 0.609127
vt 0.434721 0.426485
vt 0.725132 0.641868
vt 0.432250 0.429496
vt 0.700151 0.672306
vt 0.429496 0.432250
vt 0.672308 0.700150
vt 0.426486 0.434721
vt 0.641869 0.725131
vt 0.423247 0.436885
vt 0.609128 0.747008
vt 0.419812 0.438721
vt 0.574401 0.765570
vt 0.416213 0.440212
vt 0.538021 0.780639
vt 0.412486 0.441343
vt 0.500339 0.792070
vt 0.408666 0.442102
vt 0.461719 0.799752
vt 0.404790 0.442484
vt 0.422532 0.803612
vt 0.400895 0.442484
vt 0.383154 0.803612
vt 0.397019 0.442102
vt 0.343967 0.799752
vt 0.393199 0.441343
vt 0.305347 0.792070
vt 0.389471 0.440212
vt 0.267665 0.780640
vt 0.385873 0.438721
vt 0.231285 0.765571
vt 0.908497 0.531923
vt 0.908497 0.487912
vt 0.998193 0.487912
vt 0.998193 0.531923
vt 0.663958 0.901452
vt 0.619946 0.901452
vt 0.619946 0.811756
vt 0.663958 0.811756
vt 0.267853 0.901452
vt 0.223842 0.901452
vt 0.223842 0.811756
vt 0.267853 0.811756
vt 0.811756 0.443900
vt 0.811756 0.399888
vt 0.901452 0.399888
vt 0.901452 0.443900
vt 0.355877 0.998193
vt 0.311865 0.998193
vt 0.311865 0.908498
vt 0.355877 0.908497
vt 0.811756 0.047795
vt 0.811756 0.003784
vt 0.901452 0.003784
vt 0.901452 0.047795
vt 0.179830 0.998193
vt 0.135819 0.998193
vt 0.135819 0.908498
vt 0.179830 0.908498
vt 0.908497 0.443900
vt 0.998193 0.443900
vt 0.575935 0.901452
vt 0.575935 0.811756
vt 0.179830 0.901452
vt 0.179830 0.811756
vt 0.811756 0.355877
vt 0.901452 0.355877
vt 0.908497 0.399888
vt 0.998193 0.399888
vt 0.091807 0.998193
vt 0.091807 0.908498
vt 0.135819 0.901452
vt 0.135819 0.811756
vt 0.531923 0.901452
vt 0.531923 0.811756
vt 0.908497 0.355877
vt 0.998193 0.355877
vt 0.811756 0.311865
vt 0.901452 0.311865
vt 0.091807 0.901452
vt 0.091807 0.811756
vt 0.047795 0.998193
vt 0.047795 0.908498
vt 0.908497 0.311865
vt 0.998193 0.311865
vt 0.487912 0.901452
vt 0.487912 0.811756
vt 0.047795 0.901452
vt 0.047795 0.811756
vt 0.811756 0.267853
vt 0.901452 0.267853
vt 0.908497 0.267854
vt 0.998193 0.267854
vt 0.003784 0.998193
vt 0.003784 0.908498
vt 0.003784 0.901452
vt 0.003784 0.811756
vt 0.443900 0.901452
vt 0.443900 0.811756
vt 0.908497 0.223842
vt 0.998193 0.223842
vt 0.811756 0.223842
vt 0.901452 0.223842
vt 0.707970 0.998193
vt 0.663958 0.998193
vt 0.663958 0.908497
vt 0.707970 0.908497
vt 0.908497 0.707970
vt 0.908497 0.663958
vt 0.998193 0.663958
vt 0.998193 0.707970
vt 0.908497 0.179830
vt 0.998193 0.179830
vt 0.399888 0.901452
vt 0.399888 0.811756
vt 0.619946 0.998193
vt 0.619946 0.908497
vt 0.811756 0.179830
vt 0.901452 0.179830
vt 0.908497 0.135819
vt 0.998193 0.135819
vt 0.908497 0.619946
vt 0.998193 0.619946
vt 0.399888 0.998193
vt 0.399888 0.908497
vt 0.575935 0.998193
vt 0.575935 0.908497
vt 0.355877 0.901452
vt 0.355877 0.811756
vt 0.811756 0.619946
vt 0.811756 0.575935
vt 0.901452 0.575935
vt 0.901452 0.619946
vt 0.908497 0.091807
vt 0.998193 0.091807
vt 0.811756 0.135819
vt 0.901452 0.135819
vt 0.811756 0.531923
vt 0.901452 0.531923
vt 0.531923 0.998193
vt 0.531923 0.908497
vt 0.908497 0.575935
vt 0.998193 0.575935
vt 0.267854 0.998193
vt 0.267854 0.908498
vt 0.908497 0.047796
vt 0.998193 0.047796
vt 0.311865 0.901452
vt 0.311865 0.811756
vt 0.811756 0.487911
vt 0.901452 0.487911
vt 0.487912 0.998193
vt 0.487912 0.908497
vt 0.811756 0.091807
vt 0.901452 0.091807
vt 0.223842 0.998193
vt 0.223842 0.908498
vt 0.908497 0.003784
vt 0.998193 0.003784
vt 0.707970 0.901452
vt 0.707970 0.811756
vt 0.443900 0.998193
vt 0.443900 0.908497
vt 0.811756 0.707970
vt 0.811756 0.663958
vt 0.901452 0.663958
vt 0.901452 0.707970
s 1
f 65/1/1 66/2/1 1/3/1 2/4/1
f 67/5/1 65/1/1 2/4/1 3/6/1
f 68/7/1 67/5/1 3/6/1 4/8/1
f 69/9/1 68/7/1 4/8/1 5/10/1
f 70/11/1 69/9/1 5/10/1 6/12/1
f 71/13/1 70/11/1 6/12/1 7/14/1
f 72/15/1 71/13/1 7/14/1 8/16/1
f 73/17/1 72/15/1 8/16/1 9/18/1
f 74/19/1 73/17/1 9/18/1 10/20/1
f 75/21/1 74/19/1 10/20/1 11/22/1
f 76/23/1 75/21/1 11/22/1 12/24/1
f 77/25/1 76/23/1 12/24/1 13/26/1
f 78/27/1 77/25/1 13/26/1 14/28/1
f 79/29/1 78/27/1 14/28/1 15/30/1
f 80/31/1 79/29/1 15/30/1 16/32/1
f 81/33/1 80/31/1 16/32/1 17/34/1
f 82/35/1 81/33/1 17/34/1 18/36/1
f 83/37/1 82/35/1 18/36/1 19/38/1
f 84/39/1 83/37/1 19/38/1 20/40/1
f 85/41/1 84/39/1 20/40/1 21/42/1
f 86/43/1 85/41/1 21/42/1 22/44/1
f 87/45/1 86/43/1 22/44/1 23/46/1
f 88/47/1 87/45/1 23/46/1 24/48/1
f 89/49/1 88/47/1 24/48/1 25/50/1
f 90/51/1 89/49/1 25/50/1 26/52/1
f 91/53/1 90/51/1 26/52/1 27/54/1
f 92/55/1 91/53/1 27/54/1 28/56/1
f 93/57/1 92/55/1 28/56/1 29/58/1
f 94/59/1 93/57/1 29/58/1 30/60/1
f 95/61/1 94/59/1 30/60/1 31/62/1
f 96/63/1 95/61/1 31/62/1 32/64/1
f 97/65/1 96/63/1 32/64/1 33/66/1
f 98/67/1 97/65/1 33/66/1 34/68/1
f 99/69/1 98/67/1 34/68/1 35/70/1
f 100/71/1 99/69/1 35/70/1 36/72/1
f 101/73/1 100/71/1 36/72/1 37/74/1
f 102/75/1 101/73/1 37/74/1 38/76/1
f 103/77/1 102/75/1 38/76/1 39/78/1
f 104/79/1 103/77/1 39/78/1 40/80/1
f 105/81/1 104/79/1 40/80/1 41/82/1
f 106/83/1 105/81/1 41/82/1 42/84/1
f 107/85/1 106/83/1 42/84/1 43/86/1
f 108/87/1 107/85/1 43/86/1 44/88/1
f 109/89/1 108/87/1 44/88/1 45/90/1
f 110/91/1 109/89/1 45/90/1 46/92/1
f 111/93/1 110/91/1 46/92/1 47/94/1
f 112/95/1 111/93/1 47/94/1 48/96/1
f 113/97/1 112/95/1 48/96/1 49/98/1
f 114/99/1 113/97/1 49/98/1 50/100/1
f 115/101/1 114/99/1 50/100/1 51/102/1
f 116/103/1 115/101/1 51/102/1 52/104/1
f 117/105/1 116/103/1 52/104/1 53/106/1
f 118/107/1 117/105/1 53/106/1 54/108/1
f 119/109/1 118/107/1 54/108/1 55/110/1
f 120/111/1 119/109/1 55/110/1 56/112/1
f 121/113/1 120/111/1 56/112/1 57/114/1
f 122/115/1 121/113/1 57/114/1 58/116/1
f 123/117/1 122/115/1 58/116/1 59/118/1
f 124/119/1 123/117/1 59/118/1 60/120/1
f 125/121/1 124/119/1 60/120/1 61/122/1
f 126/123/1 125/121/1 61/122/1 62/124/1
f 127/125/1 126/123/1 62/124/1 63/126/1
f 128/127/1 127/125/1 63/126/1 64/128/1
f 66/2/1 128/127/1 64/128/1 1/3/1
f 29/129/2 28/130/3 165/131/3 164/132/2
f 64/133/4 63/134/5 130/135/5 129/136/4
f 55/137/6 54/138/7 139/139/7 138/140/6
f 11/141/8 10/142/9 183/143/9 182/144/8
f 41/145/10 40/146/11 153/147/11 152/148/10
f 2/149/12 1/150/13 192/151/13 191/152/12
f 37/153/14 36/154/15 157/155/15 156/156/14
f 28/130/3 27/157/16 166/158/16 165/131/3
f 63/134/5 62/159/17 131/160/17 130/135/5
f 54/138/7 53/161/18 140/162/18 139/139/7
f 10/142/9 9/163/19 184/164/19 183/143/9
f 27/157/16 26/165/20 167/166/20 166/158/16
f 36/154/15 35/167/21 158/168/21 157/155/15
f 53/161/18 52/169/22 141/170/22 140/162/18
f 62/159/17 61/171/23 132/172/23 131/160/17
f 26/165/20 25/173/24 168/174/24 167/166/20
f 9/163/19 8/175/25 185/176/25 184/164/19
f 52/169/22 51/177/26 142/178/26 141/170/22
f 35/167/21 34/179/27 159/180/27 158/168/21
f 25/173/24 24/181/28 169/182/28 168/174/24
f 61/171/23 60/183/29 133/184/29 132/172/23
f 51/177/26 50/185/30 143/186/30 142/178/26
f 8/175/25 7/187/31 186/188/31 185/176/25
f 24/181/28 23/189/32 170/190/32 169/182/28
f 34/179/27 33/191/33 160/192/33 159/180/27
f 50/185/30 49/193/34 144/194/34 143/186/30
f 60/183/29 59/195/35 134/196/35 133/184/29
f 23/189/32 22/197/36 171/198/36 170/190/32
f 7/187/31 6/199/37 187/200/37 186/188/31
f 49/201/34 48/202/38 145/203/38 144/204/34
f 33/205/33 32/206/39 161/207/39 160/208/33
f 22/197/36 21/209/40 172/210/40 171/198/36
f 59/195/35 58/211/41 135/212/41 134/196/35
f 48/202/38 47/213/42 146/214/42 145/203/38
f 6/199/37 5/215/43 188/216/43 187/200/37
f 21/209/40 20/217/44 173/218/44 172/210/40
f 32/206/39 31/219/45 162/220/45 161/207/39
f 42/221/46 41/145/10 152/148/10 151/222/46
f 47/213/42 46/223/47 147/224/47 146/214/42
f 58/211/41 57/225/48 136/226/48 135/212/41
f 15/227/49 14/228/50 179/229/50 178/230/49
f 20/217/44 19/231/51 174/232/51 173/218/44
f 5/215/43 4/233/52 189/234/52 188/216/43
f 14/228/50 13/235/53 180/236/53 179/229/50
f 46/223/47 45/237/54 148/238/54 147/224/47
f 31/219/45 30/239/55 163/240/55 162/220/45
f 40/146/11 39/241/56 154/242/56 153/147/11
f 19/231/51 18/243/57 175/244/57 174/232/51
f 57/225/48 56/245/58 137/246/58 136/226/48
f 13/235/53 12/247/59 181/248/59 180/236/53
f 45/237/54 44/249/60 149/250/60 148/238/54
f 4/233/52 3/251/61 190/252/61 189/234/52
f 39/241/56 38/253/62 155/254/62 154/242/56
f 18/243/57 17/255/63 176/256/63 175/244/57
f 30/239/55 29/129/2 164/132/2 163/240/55
f 1/257/13 64/133/4 129/136/4 192/258/13
f 44/249/60 43/259/64 150/260/64 149/250/60
f 56/245/58 55/137/6 138/140/6 137/246/58
f 12/247/59 11/141/8 182/144/8 181/248/59
f 17/261/63 16/262/65 177/263/65 176/264/63
f 3/251/61 2/149/12 191/152/12 190/252/61
f 38/253/62 37/153/14 156/156/14 155/254/62
f 43/259/64 42/221/46 151/222/46 150/260/64
f 65/1/1 67/5/1 68/7/1 69/9/1 70/11/1 71/13/1 72/15/1 73/17/1 74/19/1 75/21/1 76/23/1 77/25/1 78/27/1 79/29/1 80/31/1 81/33/1 82/35/1 83/37/1 84/39/1 85/41/1 86/43/1 87/45/1 88/47/1 89/49/1 90/51/1 91/53/1 92/55/1 93/57/1 94/59/1 95/61/1 96/63/1 97/65/1 98/67/1 99/69/1 100/71/1 101/73/1 102/75/1 103/77/1 104/79/1 105/81/1 106/83/1 107/85/1 108/87/1 109/89/1 110/91/1 111/93/1 112/95/1 113/97/1 114/99/1 115/101/1 116/103/1 117/105/1 118/107/1 119/109/1 120/111/1 121/113/1 122/115/1 123/117/1 124/119/1 125/121/1 126/123/1 127/125/1 128/127/1 66/2/1
f 16/262/65 15/227/49 178/230/49 177/263/65
