# Blender 4.5.5 LTS
# www.blender.org
o V_cone_mesh_005
v 5.000000 12.229629 1.294095
v 4.921963 12.221943 1.294095
v 5.078036 12.221943 1.294095
v 5.000000 11.882537 2.161826
v 5.000000 11.868884 2.173686
v 5.010321 11.881520 2.161826
v 4.989678 11.881520 2.161826
v 4.992342 11.868130 2.173686
v 4.979753 11.878510 2.161826
v 4.984977 11.865896 2.173686
v 4.970605 11.873620 2.161826
v 4.846926 12.199181 1.294095
v 4.777771 12.162217 1.294095
v 4.717157 12.112472 1.294095
v 4.667411 12.051857 1.294095
v 4.962588 11.867041 2.161826
v 4.972242 11.857387 2.173686
v 4.956008 11.859023 2.161826
v 4.967360 11.851438 2.173686
v 4.951119 11.849875 2.161826
v 4.963732 11.844651 2.173686
v 4.948108 11.839951 2.161826
v 4.630448 11.982702 1.294095
v 4.607686 11.907665 1.294095
v 4.600000 11.829629 1.294095
v 4.607686 11.751593 1.294095
v 4.947092 11.829629 2.161826
v 4.960744 11.829629 2.173686
v 4.948108 11.819307 2.161826
v 4.961499 11.821971 2.173686
v 4.951119 11.809381 2.161826
v 4.963732 11.814607 2.173686
v 4.956008 11.800235 2.161826
v 4.630448 11.676556 1.294095
v 4.667411 11.607401 1.294095
v 4.717157 11.546786 1.294095
v 4.777771 11.497041 1.294095
v 4.962588 11.792217 2.161826
v 4.972242 11.801871 2.173686
v 4.970605 11.785638 2.161826
v 4.978191 11.796989 2.173686
v 4.979753 11.780748 2.161826
v 4.984977 11.793362 2.173686
v 4.989678 11.777738 2.161826
v 4.846926 11.460077 1.294095
v 4.921963 11.437315 1.294095
v 5.000000 11.429629 1.294095
v 5.078036 11.437315 1.294095
v 5.000000 11.776721 2.161826
v 5.000000 11.790374 2.173686
v 5.010321 11.777738 2.161826
v 5.007658 11.791128 2.173686
v 5.020246 11.780748 2.161826
v 5.015022 11.793362 2.173686
v 5.029394 11.785638 2.161826
v 5.153073 11.460077 1.294095
v 5.222228 11.497041 1.294095
v 5.282842 11.546786 1.294095
v 5.332588 11.607401 1.294095
v 5.037411 11.792217 2.161826
v 5.027757 11.801871 2.173686
v 5.043991 11.800235 2.161826
v 5.032639 11.807820 2.173686
v 5.048880 11.809381 2.161826
v 5.036267 11.814607 2.173686
v 5.051891 11.819307 2.161826
v 5.369551 11.676556 1.294095
v 5.392313 11.751593 1.294095
v 5.399999 11.829629 1.294095
v 5.392313 11.907665 1.294095
v 5.052907 11.829629 2.161826
v 5.039255 11.829629 2.173686
v 5.051891 11.839951 2.161826
v 5.038500 11.837287 2.173686
v 5.048880 11.849875 2.161826
v 5.036267 11.844651 2.173686
v 5.043991 11.859023 2.161826
v 5.369551 11.982702 1.294095
v 5.332588 12.051857 1.294095
v 5.282842 12.112472 1.294095
v 5.222228 12.162217 1.294095
v 5.037411 11.867041 2.161826
v 5.027757 11.857387 2.173686
v 5.029394 11.873620 2.161826
v 5.021808 11.862268 2.173686
v 5.020246 11.878510 2.161826
v 5.015022 11.865896 2.173686
v 5.153073 12.199181 1.294095
v 5.005756 11.843525 2.183736
v 5.007658 11.868130 2.173686
v 5.002934 11.844381 2.183736
v 5.000000 11.844670 2.183736
v 4.997065 11.844381 2.183736
v 4.994243 11.843525 2.183736
v 4.991643 11.842135 2.183736
v 4.978191 11.862268 2.173686
v 4.989364 11.840264 2.183736
v 4.987493 11.837985 2.183736
v 4.986104 11.835385 2.183736
v 4.985247 11.832563 2.183736
v 4.961499 11.837287 2.173686
v 4.984958 11.829629 2.183736
v 4.985247 11.826694 2.183736
v 4.986104 11.823873 2.183736
v 4.987493 11.821273 2.183736
v 4.967360 11.807820 2.173686
v 4.989364 11.818994 2.183736
v 4.991643 11.817122 2.183736
v 4.994243 11.815733 2.183736
v 4.997065 11.814877 2.183736
v 4.992342 11.791128 2.173686
v 5.000000 11.814588 2.183736
v 5.002934 11.814877 2.183736
v 5.005756 11.815733 2.183736
v 5.008356 11.817122 2.183736
v 5.021808 11.796989 2.173686
v 5.010635 11.818994 2.183736
v 5.012506 11.821273 2.183736
v 5.013896 11.823873 2.183736
v 5.014752 11.826694 2.183736
v 5.038500 11.821971 2.173686
v 5.015041 11.829629 2.183736
v 5.014752 11.832563 2.183736
v 5.013896 11.835385 2.183736
v 5.012506 11.837985 2.183736
v 5.032639 11.851438 2.173686
v 5.010635 11.840264 2.183736
v 5.008356 11.842135 2.183736
vn -0.0911 0.9246 0.3698
vn -0.0000 -0.0000 -1.0000
vn 0.0911 0.9246 0.3698
vn -0.0645 0.6545 0.7534
vn 0.0645 0.6545 0.7533
vn -0.1909 0.6293 0.7534
vn -0.2697 0.8891 0.3698
vn -0.3100 0.5800 0.7533
vn -0.4380 0.8194 0.3698
vn -0.5894 0.7182 0.3699
vn -0.7182 0.5894 0.3698
vn -0.4171 0.5083 0.7534
vn -0.5084 0.4172 0.7533
vn -0.5800 0.3100 0.7534
vn -0.8194 0.4380 0.3699
vn -0.6293 0.1909 0.7534
vn -0.8891 0.2697 0.3699
vn -0.9246 0.0911 0.3698
vn -0.9246 -0.0911 0.3698
vn -0.6544 0.0645 0.7534
vn -0.6545 -0.0645 0.7533
vn -0.6293 -0.1909 0.7534
vn -0.8891 -0.2697 0.3698
vn -0.5799 -0.3100 0.7534
vn -0.8194 -0.4380 0.3698
vn -0.7182 -0.5894 0.3698
vn -0.5894 -0.7182 0.3699
vn -0.5084 -0.4172 0.7533
vn -0.4171 -0.5083 0.7534
vn -0.3100 -0.5800 0.7533
vn -0.4380 -0.8194 0.3698
vn -0.1909 -0.6293 0.7533
vn -0.2697 -0.8891 0.3698
vn -0.0911 -0.9246 0.3698
vn 0.0911 -0.9246 0.3698
vn -0.0645 -0.6544 0.7534
vn 0.0645 -0.6545 0.7533
vn 0.1909 -0.6293 0.7533
vn 0.2697 -0.8891 0.3698
vn 0.3100 -0.5800 0.7533
vn 0.4380 -0.8194 0.3698
vn 0.5894 -0.7182 0.3699
vn 0.7182 -0.5894 0.3698
vn 0.4171 -0.5083 0.7534
vn 0.5083 -0.4172 0.7534
vn 0.5799 -0.3100 0.7534
vn 0.8194 -0.4380 0.3698
vn 0.6293 -0.1909 0.7534
vn 0.8891 -0.2697 0.3698
vn 0.9246 -0.0911 0.3698
vn 0.9246 0.0911 0.3698
vn 0.6545 -0.0645 0.7533
vn 0.6544 0.0645 0.7534
vn 0.6293 0.1909 0.7534
vn 0.8891 0.2697 0.3698
vn 0.5800 0.3100 0.7534
vn 0.8194 0.4380 0.3699
vn 0.7182 0.5894 0.3698
vn 0.5894 0.7182 0.3699
vn 0.5084 0.4172 0.7533
vn 0.4171 0.5083 0.7534
vn 0.3100 0.5800 0.7533
vn 0.4380 0.8194 0.3698
vn 0.1909 0.6293 0.7534
vn 0.2697 0.8891 0.3698
vn 0.1815 0.3395 0.9229
vn 0.1117 0.3683 0.9230
vn 0.0377 0.3831 0.9230
vn -0.0000 -0.0000 1.0000
vn -0.0377 0.3831 0.9230
vn -0.1117 0.3684 0.9229
vn -0.1814 0.3394 0.9230
vn -0.2442 0.2976 0.9229
vn -0.2975 0.2442 0.9230
vn -0.3394 0.1815 0.9230
vn -0.3682 0.1117 0.9230
vn -0.3831 0.0377 0.9230
vn -0.3831 -0.0377 0.9229
vn -0.3684 -0.1117 0.9229
vn -0.3394 -0.1815 0.9230
vn -0.2975 -0.2442 0.9230
vn -0.2442 -0.2976 0.9229
vn -0.1815 -0.3394 0.9230
vn -0.1117 -0.3684 0.9229
vn -0.0377 -0.3831 0.9230
vn 0.0377 -0.3831 0.9229
vn 0.1117 -0.3683 0.9230
vn 0.1814 -0.3395 0.9230
vn 0.2442 -0.2976 0.9229
vn 0.2975 -0.2442 0.9230
vn 0.3394 -0.1814 0.9230
vn 0.3684 -0.1117 0.9229
vn 0.3831 -0.0377 0.9230
vn 0.3831 0.0377 0.9229
vn 0.3682 0.1117 0.9230
vn 0.3395 0.1815 0.9229
vn 0.2975 0.2442 0.9230
vn 0.2442 0.2976 0.9229
vt 0.250000 0.490000
vt 0.296822 0.485388
vt 0.256193 0.281135
vt 0.250000 0.281745
vt 0.750000 0.490000
vt 0.703178 0.485388
vt 0.658156 0.471731
vt 0.616663 0.449553
vt 0.580294 0.419706
vt 0.550447 0.383337
vt 0.528269 0.341844
vt 0.514612 0.296822
vt 0.510000 0.250000
vt 0.514612 0.203178
vt 0.528269 0.158156
vt 0.550447 0.116663
vt 0.580294 0.080294
vt 0.616663 0.050447
vt 0.658156 0.028269
vt 0.703178 0.014612
vt 0.750000 0.010000
vt 0.796822 0.014612
vt 0.841844 0.028269
vt 0.883337 0.050447
vt 0.919706 0.080294
vt 0.949553 0.116663
vt 0.971731 0.158156
vt 0.985388 0.203178
vt 0.990000 0.250000
vt 0.985388 0.296822
vt 0.971731 0.341844
vt 0.949553 0.383337
vt 0.919706 0.419706
vt 0.883337 0.449553
vt 0.841844 0.471731
vt 0.796822 0.485388
vt 0.203178 0.485388
vt 0.243807 0.281135
vt 0.250000 0.277991
vt 0.255461 0.277453
vt 0.244539 0.277453
vt 0.262148 0.279328
vt 0.260712 0.275860
vt 0.341844 0.471731
vt 0.267636 0.276395
vt 0.265551 0.273274
vt 0.383337 0.449553
vt 0.419706 0.419706
vt 0.272447 0.272447
vt 0.449553 0.383337
vt 0.276395 0.267636
vt 0.269793 0.269793
vt 0.273274 0.265551
vt 0.279328 0.262148
vt 0.275860 0.260712
vt 0.471731 0.341844
vt 0.281135 0.256193
vt 0.277453 0.255461
vt 0.485388 0.296822
vt 0.490000 0.250000
vt 0.281745 0.250000
vt 0.485388 0.203178
vt 0.281135 0.243807
vt 0.277991 0.250000
vt 0.277453 0.244539
vt 0.279328 0.237852
vt 0.275860 0.239288
vt 0.471731 0.158156
vt 0.276395 0.232364
vt 0.273274 0.234449
vt 0.449553 0.116663
vt 0.419706 0.080294
vt 0.272447 0.227553
vt 0.383337 0.050447
vt 0.267636 0.223605
vt 0.269793 0.230207
vt 0.265551 0.226726
vt 0.262148 0.220672
vt 0.260712 0.224140
vt 0.341844 0.028269
vt 0.256193 0.218865
vt 0.255461 0.222547
vt 0.296822 0.014612
vt 0.250000 0.010000
vt 0.250000 0.218255
vt 0.203178 0.014612
vt 0.243807 0.218865
vt 0.250000 0.222009
vt 0.244539 0.222547
vt 0.237852 0.220672
vt 0.239288 0.224140
vt 0.158156 0.028269
vt 0.232364 0.223605
vt 0.234449 0.226726
vt 0.116663 0.050447
vt 0.080294 0.080294
vt 0.227553 0.227553
vt 0.050447 0.116663
vt 0.223605 0.232364
vt 0.230207 0.230207
vt 0.226726 0.234449
vt 0.220672 0.237852
vt 0.224140 0.239288
vt 0.028269 0.158156
vt 0.218865 0.243807
vt 0.222547 0.244539
vt 0.014612 0.203178
vt 0.010000 0.250000
vt 0.218255 0.250000
vt 0.014612 0.296822
vt 0.218865 0.256193
vt 0.222009 0.250000
vt 0.222547 0.255461
vt 0.220672 0.262148
vt 0.224140 0.260712
vt 0.028269 0.341844
vt 0.223605 0.267636
vt 0.226726 0.265551
vt 0.050447 0.383337
vt 0.080294 0.419706
vt 0.227553 0.272447
vt 0.116663 0.449553
vt 0.232364 0.276395
vt 0.230207 0.269793
vt 0.234449 0.273274
vt 0.237852 0.279328
vt 0.239288 0.275860
vt 0.158156 0.471731
vt 0.244986 0.257504
vt 0.246546 0.258338
vt 0.248239 0.258851
vt 0.250000 0.259025
vt 0.251761 0.258851
vt 0.253454 0.258338
vt 0.255014 0.257504
vt 0.256381 0.256381
vt 0.257504 0.255014
vt 0.258338 0.253454
vt 0.258851 0.251761
vt 0.259025 0.250000
vt 0.258851 0.248239
vt 0.258338 0.246546
vt 0.257504 0.244986
vt 0.256381 0.243619
vt 0.255014 0.242496
vt 0.253454 0.241662
vt 0.251761 0.241149
vt 0.250000 0.240975
vt 0.248239 0.241149
vt 0.246546 0.241662
vt 0.244986 0.242496
vt 0.243619 0.243619
vt 0.242496 0.244986
vt 0.241662 0.246546
vt 0.241149 0.248239
vt 0.240975 0.250000
vt 0.241149 0.251761
vt 0.241662 0.253454
vt 0.242496 0.255014
vt 0.243619 0.256381
s 0
f 1/1/1 2/2/1 7/3/1 4/4/1
f 1/5/2 3/6/2 88/7/2 81/8/2 80/9/2 79/10/2 78/11/2 70/12/2 69/13/2 68/14/2 67/15/2 59/16/2 58/17/2 57/18/2 56/19/2 48/20/2 47/21/2 46/22/2 45/23/2 37/24/2 36/25/2 35/26/2 34/27/2 26/28/2 25/29/2 24/30/2 23/31/2 15/32/2 14/33/2 13/34/2 12/35/2 2/36/2
f 3/37/3 1/1/3 4/4/3 6/38/3
f 5/39/4 4/4/4 7/3/4 8/40/4
f 90/41/5 6/38/5 4/4/5 5/39/5
f 8/40/6 7/3/6 9/42/6 10/43/6
f 2/2/7 12/44/7 9/42/7 7/3/7
f 10/43/8 9/42/8 11/45/8 96/46/8
f 12/44/9 13/47/9 11/45/9 9/42/9
f 13/47/10 14/48/10 16/49/10 11/45/10
f 14/48/11 15/50/11 18/51/11 16/49/11
f 96/46/12 11/45/12 16/49/12 17/52/12
f 17/52/13 16/49/13 18/51/13 19/53/13
f 19/53/14 18/51/14 20/54/14 21/55/14
f 15/50/15 23/56/15 20/54/15 18/51/15
f 21/55/16 20/54/16 22/57/16 101/58/16
f 23/56/17 24/59/17 22/57/17 20/54/17
f 24/59/18 25/60/18 27/61/18 22/57/18
f 25/60/19 26/62/19 29/63/19 27/61/19
f 101/58/20 22/57/20 27/61/20 28/64/20
f 28/64/21 27/61/21 29/63/21 30/65/21
f 30/65/22 29/63/22 31/66/22 32/67/22
f 26/62/23 34/68/23 31/66/23 29/63/23
f 32/67/24 31/66/24 33/69/24 106/70/24
f 34/68/25 35/71/25 33/69/25 31/66/25
f 35/71/26 36/72/26 38/73/26 33/69/26
f 36/72/27 37/74/27 40/75/27 38/73/27
f 106/70/28 33/69/28 38/73/28 39/76/28
f 39/76/29 38/73/29 40/75/29 41/77/29
f 41/77/30 40/75/30 42/78/30 43/79/30
f 37/74/31 45/80/31 42/78/31 40/75/31
f 43/79/32 42/78/32 44/81/32 111/82/32
f 45/80/33 46/83/33 44/81/33 42/78/33
f 46/83/34 47/84/34 49/85/34 44/81/34
f 47/84/35 48/86/35 51/87/35 49/85/35
f 111/82/36 44/81/36 49/85/36 50/88/36
f 50/88/37 49/85/37 51/87/37 52/89/37
f 52/89/38 51/87/38 53/90/38 54/91/38
f 48/86/39 56/92/39 53/90/39 51/87/39
f 54/91/40 53/90/40 55/93/40 116/94/40
f 56/92/41 57/95/41 55/93/41 53/90/41
f 57/95/42 58/96/42 60/97/42 55/93/42
f 58/96/43 59/98/43 62/99/43 60/97/43
f 116/94/44 55/93/44 60/97/44 61/100/44
f 61/100/45 60/97/45 62/99/45 63/101/45
f 63/101/46 62/99/46 64/102/46 65/103/46
f 59/98/47 67/104/47 64/102/47 62/99/47
f 65/103/48 64/102/48 66/105/48 121/106/48
f 67/104/49 68/107/49 66/105/49 64/102/49
f 68/107/50 69/108/50 71/109/50 66/105/50
f 69/108/51 70/110/51 73/111/51 71/109/51
f 121/106/52 66/105/52 71/109/52 72/112/52
f 72/112/53 71/109/53 73/111/53 74/113/53
f 74/113/54 73/111/54 75/114/54 76/115/54
f 70/110/55 78/116/55 75/114/55 73/111/55
f 76/115/56 75/114/56 77/117/56 126/118/56
f 78/116/57 79/119/57 77/117/57 75/114/57
f 79/119/58 80/120/58 82/121/58 77/117/58
f 80/120/59 81/122/59 84/123/59 82/121/59
f 126/118/60 77/117/60 82/121/60 83/124/60
f 83/124/61 82/121/61 84/123/61 85/125/61
f 85/125/62 84/123/62 86/126/62 87/127/62
f 81/122/63 88/128/63 86/126/63 84/123/63
f 87/127/64 86/126/64 6/38/64 90/41/64
f 88/128/65 3/37/65 6/38/65 86/126/65
f 128/129/66 85/125/66 87/127/66 89/130/66
f 89/130/67 87/127/67 90/41/67 91/131/67
f 91/131/68 90/41/68 5/39/68 92/132/68
f 91/131/69 92/132/69 93/133/69 94/134/69 95/135/69 97/136/69 98/137/69 99/138/69 100/139/69 102/140/69 103/141/69 104/142/69 105/143/69 107/144/69 108/145/69 109/146/69 110/147/69 112/148/69 113/149/69 114/150/69 115/151/69 117/152/69 118/153/69 119/154/69 120/155/69 122/156/69 123/157/69 124/158/69 125/159/69 127/160/69 128/129/69 89/130/69
f 92/132/70 5/39/70 8/40/70 93/133/70
f 93/133/71 8/40/71 10/43/71 94/134/71
f 94/134/72 10/43/72 96/46/72 95/135/72
f 95/135/73 96/46/73 17/52/73 97/136/73
f 97/136/74 17/52/74 19/53/74 98/137/74
f 98/137/75 19/53/75 21/55/75 99/138/75
f 99/138/76 21/55/76 101/58/76 100/139/76
f 100/139/77 101/58/77 28/64/77 102/140/77
f 102/140/78 28/64/78 30/65/78 103/141/78
f 103/141/79 30/65/79 32/67/79 104/142/79
f 104/142/80 32/67/80 106/70/80 105/143/80
f 105/143/81 106/70/81 39/76/81 107/144/81
f 107/144/82 39/76/82 41/77/82 108/145/82
f 108/145/83 41/77/83 43/79/83 109/146/83
f 109/146/84 43/79/84 111/82/84 110/147/84
f 110/147/85 111/82/85 50/88/85 112/148/85
f 112/148/86 50/88/86 52/89/86 113/149/86
f 113/149/87 52/89/87 54/91/87 114/150/87
f 114/150/88 54/91/88 116/94/88 115/151/88
f 115/151/89 116/94/89 61/100/89 117/152/89
f 117/152/90 61/100/90 63/101/90 118/153/90
f 118/153/91 63/101/91 65/103/91 119/154/91
f 119/154/92 65/103/92 121/106/92 120/155/92
f 120/155/93 121/106/93 72/112/93 122/156/93
f 122/156/94 72/112/94 74/113/94 123/157/94
f 123/157/95 74/113/95 76/115/95 124/158/95
f 124/158/96 76/115/96 126/118/96 125/159/96
f 125/159/97 126/118/97 83/124/97 127/160/97
f 127/160/98 83/124/98 85/125/98 128/129/98
