# Blender 4.5.5 LTS
# www.blender.org
o V_ground_light_left2_part
v -0.500000 0.000000 0.000000
v -0.500000 0.000000 1.200000
v -0.500000 0.500000 0.000000
v -0.500000 0.500000 1.200000
v 0.000000 0.000000 0.000000
v -0.300000 0.000000 1.200000
v 0.000000 0.500000 0.000000
v -0.300000 0.500000 1.200000
v -0.500000 1.607686 0.000000
v 0.000000 1.607686 0.000000
v -0.500000 -0.310583 1.159111
v -0.300000 -0.310583 1.159111
v -0.500000 0.607686 1.200000
v -0.500000 1.607686 0.200000
v -0.500000 0.866505 1.165926
v -0.500000 1.107686 1.066025
v -0.500000 1.314793 0.907107
v -0.500000 1.473711 0.700000
v -0.500000 1.573612 0.458819
v -0.050000 1.607686 0.200000
v -0.300000 0.607686 1.200000
v -0.114705 1.573612 0.458819
v -0.175000 1.473711 0.700000
v -0.226776 1.314793 0.907107
v -0.266506 1.107686 1.066025
v -0.291481 0.866505 1.165926
vn -0.0000 -0.1305 0.9914
vn -0.0000 -0.0000 1.0000
vn -0.0000 0.0661 0.9978
vn -0.0000 0.0654 0.9979
vn -0.0000 -0.0000 -1.0000
vn 0.9701 -0.0000 0.2425
vn -0.0000 1.0000 -0.0000
vn -0.0000 0.9979 0.0654
vn -0.0000 0.9985 0.0552
vn -0.0000 -0.9659 -0.2588
vn 0.9696 -0.0319 0.2424
vn -1.0000 -0.0000 -0.0000
vn -0.0000 -1.0000 -0.0000
vn -0.0000 0.2639 0.9646
vn -0.0000 0.2588 0.9659
vn -0.0000 0.5088 0.8609
vn -0.0000 0.5000 0.8660
vn -0.0000 0.7172 0.6969
vn -0.0000 0.7071 0.7071
vn -0.0000 0.8747 0.4847
vn -0.0000 0.8660 0.5000
vn -0.0000 0.9708 0.2398
vn -0.0000 0.9659 0.2588
vt 0.625000 0.750000
vt 0.875000 0.750000
vt 0.875000 0.500000
vt 0.625000 0.500000
vt 0.375000 0.500000
vt 0.125000 0.500000
vt 0.416667 0.500000
vt 0.470587 0.500000
vt 0.520833 0.500000
vt 0.563981 0.500000
vt 0.597089 0.500000
vt 0.617901 0.500000
vt 0.375000 0.250000
vt 0.416667 0.250000
vt 0.375000 0.750000
vt 0.625000 1.000000
vt 0.375000 1.000000
vt 0.625000 0.000000
vt 0.375000 0.000000
vt 0.614352 0.500000
vt 0.583133 0.500000
vt 0.625000 0.250000
vt 0.520833 0.250000
vt 0.470587 0.250000
vt 0.617901 0.250000
vt 0.597089 0.250000
vt 0.563981 0.250000
s 1
f 6/1/1 2/2/1 11/2/1 12/1/1
f 4/3/2 8/4/2 21/4/3 13/3/4
f 7/5/5 3/6/5 9/6/5 10/5/5
f 8/4/6 7/5/6 10/5/6 20/7/6 22/8/6 23/9/6 24/10/6 25/11/6 26/12/6 21/4/6
f 9/13/7 14/14/8 20/7/9 10/5/7
f 5/15/10 12/1/10 11/16/10 1/17/10
f 5/15/11 6/1/11 12/1/11
f 2/18/12 1/19/12 11/18/12
f 1/17/7 2/2/7 6/1/7 5/15/7
f 3/6/13 7/5/13 8/4/13 4/3/13
f 13/3/4 21/4/3 26/20/14 15/3/15
f 15/3/15 26/20/14 25/21/16 16/3/17
f 16/3/17 25/21/16 24/4/18 17/3/19
f 17/22/19 24/4/18 23/9/20 18/23/21
f 18/23/21 23/9/20 22/8/22 19/24/23
f 19/24/23 22/8/22 20/7/9 14/14/8
f 3/13/12 4/22/12 13/22/12 15/25/12 16/26/12 17/27/12 18/23/12 19/24/12 14/14/12 9/13/12
