# Blender 4.5.5 LTS
# www.blender.org
o V_ground_left2_LIGHT
v -5.500000 4.914815 0.047048
v -5.500000 4.914815 1.247048
v -5.500000 5.414815 0.047048
v -5.500000 5.414815 1.247048
v -5.000000 4.914815 0.047048
v -5.300000 4.914815 1.247048
v -5.000000 5.414815 0.047048
v -5.300000 5.414815 1.247048
v -5.500000 -5.414814 -1.247048
v -5.500000 -5.414814 -0.047048
v -5.500000 -4.914814 -1.247048
v -5.500000 -4.914814 -0.047048
v -5.000000 -5.414814 -1.247048
v -5.300000 -5.414814 -0.047048
v -5.000000 -4.914814 -1.247048
v -5.300000 -4.914814 -0.047048
v 5.500000 -4.914814 -1.247048
v 5.500000 -4.914814 -0.047047
v 5.500000 -5.414814 -1.247048
v 5.500000 -5.414814 -0.047047
v 5.000000 -4.914814 -1.247048
v 5.299999 -4.914814 -0.047047
v 5.000000 -5.414814 -1.247048
v 5.300000 -5.414814 -0.047047
v 5.500000 5.414815 0.047048
v 5.500000 5.414815 1.247048
v 5.500000 4.914815 0.047048
v 5.500000 4.914815 1.247048
v 5.000000 5.414815 0.047048
v 5.299999 5.414815 1.247048
v 5.000000 4.914815 0.047048
v 5.300000 4.914815 1.247048
vn -1.0000 -0.0000 -0.0000
vn -0.0000 1.0000 -0.0000
vn 0.9701 -0.0000 0.2425
vn -0.0000 -1.0000 -0.0000
vn -0.0000 -0.0000 -1.0000
vn -0.0000 -0.0000 1.0000
vn 1.0000 -0.0000 -0.0000
vn -0.9701 -0.0000 0.2425
vt 0.625000 0.000000
vt 0.375000 0.250000
vt 0.375000 0.000000
vt 0.625000 0.500000
vt 0.375000 0.500000
vt 0.375000 0.750000
vt 0.625000 0.750000
vt 0.375000 1.000000
vt 0.125000 0.750000
vt 0.125000 0.500000
vt 0.875000 0.500000
vt 0.875000 0.750000
vt 0.625000 0.250000
vt 0.625000 1.000000
s 0
f 2/1/1 3/2/1 1/3/1
f 3/2/2 8/4/2 7/5/2
f 8/4/3 5/6/3 7/5/3
f 6/7/4 1/8/4 5/6/4
f 7/5/5 1/9/5 3/10/5
f 4/11/6 6/7/6 8/4/6
f 10/1/1 11/2/1 9/3/1
f 11/2/2 16/4/2 15/5/2
f 16/4/3 13/6/3 15/5/3
f 14/7/4 9/8/4 13/6/4
f 15/5/5 9/9/5 11/10/5
f 12/11/6 14/7/6 16/4/6
f 18/1/7 19/2/7 17/3/7
f 19/2/4 24/4/4 23/5/4
f 23/5/8 22/7/8 21/6/8
f 22/7/2 17/8/2 21/6/2
f 23/5/5 17/9/5 19/10/5
f 24/4/6 18/12/6 22/7/6
f 26/1/7 27/2/7 25/3/7
f 27/2/4 32/4/4 31/5/4
f 31/5/8 30/7/8 29/6/8
f 30/7/2 25/8/2 29/6/2
f 31/5/5 25/9/5 27/10/5
f 32/4/6 26/12/6 30/7/6
f 2/1/1 4/13/1 3/2/1
f 3/2/2 4/13/2 8/4/2
f 8/4/3 6/7/3 5/6/3
f 6/7/4 2/14/4 1/8/4
f 7/5/5 5/6/5 1/9/5
f 4/11/6 2/12/6 6/7/6
f 10/1/1 12/13/1 11/2/1
f 11/2/2 12/13/2 16/4/2
f 16/4/3 14/7/3 13/6/3
f 14/7/4 10/14/4 9/8/4
f 15/5/5 13/6/5 9/9/5
f 12/11/6 10/12/6 14/7/6
f 18/1/7 20/13/7 19/2/7
f 19/2/4 20/13/4 24/4/4
f 23/5/8 24/4/8 22/7/8
f 22/7/2 18/14/2 17/8/2
f 23/5/5 21/6/5 17/9/5
f 24/4/6 20/11/6 18/12/6
f 26/1/7 28/13/7 27/2/7
f 27/2/4 28/13/4 32/4/4
f 31/5/8 32/4/8 30/7/8
f 30/7/2 26/14/2 25/8/2
f 31/5/5 29/6/5 25/9/5
f 32/4/6 28/11/6 26/12/6
