# Blender 4.5.5 LTS
# www.blender.org
o V_ground_light_left3_part_001
v 5.500001 24.579628 1.294095
v 5.500001 24.579628 2.494095
v 5.500001 24.079628 1.294095
v 5.500001 24.079628 2.494095
v 5.000001 24.579628 1.294095
v 5.300001 24.579628 2.494095
v 5.000001 24.079628 1.294095
v 5.300001 24.079628 2.494095
v 5.500001 23.329628 1.294095
v 5.000001 23.329628 1.294095
v 5.500000 25.329628 1.294095
v 5.000000 25.329628 1.294095
v 5.500001 23.829628 2.494095
v 5.500001 23.329628 1.994095
v 5.500001 23.700218 2.477058
v 5.500001 23.579628 2.427108
v 5.500001 23.476074 2.347649
v 5.500001 23.396616 2.244095
v 5.500001 23.346664 2.123505
v 5.175001 23.329628 1.994095
v 5.300001 23.829628 2.494095
v 5.207354 23.346664 2.123505
v 5.237501 23.396616 2.244095
v 5.263390 23.476074 2.347649
v 5.283254 23.579628 2.427108
v 5.295742 23.700218 2.477058
v 5.500000 25.329628 1.994095
v 5.500001 24.829628 2.494095
v 5.500000 25.312592 2.123505
v 5.500000 25.262640 2.244095
v 5.500000 25.183182 2.347649
v 5.500000 25.079628 2.427108
v 5.500001 24.959038 2.477058
v 5.300001 24.829628 2.494095
v 5.175000 25.329628 1.994095
v 5.295741 24.959038 2.477058
v 5.283254 25.079628 2.427108
v 5.263389 25.183182 2.347649
v 5.237500 25.262640 2.244095
v 5.207353 25.312592 2.123505
vn -0.9701 -0.0000 0.2425
vn -0.0000 -0.0000 1.0000
vn -0.0000 -0.0661 0.9978
vn -0.0000 -0.0654 0.9979
vn -0.0000 -1.0000 -0.0000
vn -0.0000 -0.9979 0.0654
vn -0.0000 -0.9985 0.0552
vn 1.0000 -0.0000 -0.0000
vn -0.0000 -0.0000 -1.0000
vn -0.0000 0.0654 0.9979
vn -0.0000 0.0661 0.9978
vn -0.0000 1.0000 -0.0000
vn -0.0000 0.9985 0.0552
vn -0.0000 0.9979 0.0654
vn -0.0000 -0.2639 0.9646
vn -0.0000 -0.2588 0.9659
vn -0.0000 -0.5088 0.8609
vn -0.0000 -0.5000 0.8660
vn -0.0000 -0.7172 0.6969
vn -0.0000 -0.7071 0.7071
vn -0.0000 -0.8747 0.4847
vn -0.0000 -0.8660 0.5000
vn -0.0000 -0.9708 0.2398
vn -0.0000 -0.9659 0.2588
vn -0.0000 0.2588 0.9659
vn -0.0000 0.2639 0.9646
vn -0.0000 0.5000 0.8660
vn -0.0000 0.5088 0.8609
vn -0.0000 0.7071 0.7071
vn -0.0000 0.7172 0.6969
vn -0.0000 0.8660 0.5000
vn -0.0000 0.8747 0.4847
vn -0.0000 0.9659 0.2588
vn -0.0000 0.9708 0.2399
vt 0.625000 0.500000
vt 0.375000 0.500000
vt 0.520833 0.500000
vt 0.547794 0.500000
vt 0.572917 0.500000
vt 0.594490 0.500000
vt 0.611044 0.500000
vt 0.621451 0.500000
vt 0.375000 0.750000
vt 0.625000 0.750000
vt 0.621451 0.750000
vt 0.611044 0.750000
vt 0.594490 0.750000
vt 0.572917 0.750000
vt 0.547794 0.750000
vt 0.520833 0.750000
vt 0.875000 0.500000
vt 0.375000 0.250000
vt 0.520833 0.250000
vt 0.625000 0.000000
vt 0.375000 0.000000
vt 0.520833 0.000000
vt 0.547794 0.000000
vt 0.572917 0.000000
vt 0.594490 0.000000
vt 0.611044 0.000000
vt 0.621451 0.000000
vt 0.125000 0.500000
vt 0.875000 0.750000
vt 0.520833 1.000000
vt 0.375000 1.000000
vt 0.125000 0.750000
vt 0.619676 0.500000
vt 0.604066 0.500000
vt 0.625000 0.250000
vt 0.572917 0.250000
vt 0.547794 0.250000
vt 0.619676 0.750000
vt 0.604066 0.750000
vt 0.625000 1.000000
vt 0.572917 1.000000
vt 0.547794 1.000000
vt 0.621451 0.250000
vt 0.611044 0.250000
vt 0.594490 0.250000
s 1
f 8/1/1 7/2/1 10/2/1 20/3/1 22/4/1 23/5/1 24/6/1 25/7/1 26/8/1 21/1/1
f 5/9/1 6/10/1 34/10/1 36/11/1 37/12/1 38/13/1 39/14/1 40/15/1 35/16/1 12/9/1
f 4/17/2 8/1/2 21/1/3 13/17/4
f 9/18/5 14/19/6 20/3/7 10/2/5
f 2/20/8 1/21/8 11/21/8 27/22/8 29/23/8 30/24/8 31/25/8 32/26/8 33/27/8 28/20/8
f 7/2/9 3/28/9 9/28/9 10/2/9
f 6/10/2 2/29/2 28/29/10 34/10/11
f 12/9/12 35/16/13 27/30/14 11/31/12
f 1/32/9 5/9/9 12/9/9 11/32/9
f 1/32/5 2/29/5 6/10/5 5/9/5
f 3/28/12 7/2/12 8/1/12 4/17/12
f 13/17/4 21/1/3 26/33/15 15/17/16
f 15/17/16 26/33/15 25/34/17 16/17/18
f 16/17/18 25/34/17 24/1/19 17/17/20
f 17/35/20 24/1/19 23/5/21 18/36/22
f 18/36/22 23/5/21 22/4/23 19/37/24
f 19/37/24 22/4/23 20/3/7 14/19/6
f 34/10/11 28/29/10 33/29/25 36/38/26
f 36/38/26 33/29/25 32/29/27 37/39/28
f 37/39/28 32/29/27 31/29/29 38/10/30
f 38/10/30 31/40/29 30/41/31 39/14/32
f 39/14/32 30/41/31 29/42/33 40/15/34
f 40/15/34 29/42/33 27/30/14 35/16/13
f 3/18/8 4/35/8 13/35/8 15/43/8 16/44/8 17/45/8 18/36/8 19/37/8 14/19/8 9/18/8
