# Blender 4.5.5 LTS
# www.blender.org
o V_lantern_2BODY
v -20.191233 30.354866 11.098873
v -19.866934 30.480951 10.821394
v -19.686960 30.550924 9.975384
v -19.866934 30.480951 9.574415
v -20.191233 30.354866 9.296936
v -20.257267 29.926037 11.098873
v -19.985924 29.708229 10.821394
v -19.835340 29.587355 10.420425
v -19.835340 29.587355 9.975384
v -19.985924 29.708229 9.574415
v -20.257267 29.926037 9.296936
v -20.661661 29.768810 11.098873
v -20.714619 29.424915 10.821394
v -20.744007 29.234070 10.420425
v -20.744007 29.234070 9.975384
v -20.714619 29.424915 9.574415
v -20.661661 29.768810 9.296936
v -21.000021 30.040413 11.098873
v -21.324320 29.914328 10.821394
v -21.504293 29.844355 10.420425
v -21.504293 29.844355 9.975384
v -21.324320 29.914328 9.574415
v -21.000021 30.040413 9.296936
v -20.595627 30.197639 9.197905
v -20.595627 30.197639 11.197905
v -20.933987 30.469242 11.098873
v -21.205330 30.687050 10.821394
v -21.355913 30.807926 10.420425
v -21.355913 30.807926 9.975384
v -21.205330 30.687050 9.574415
v -20.933987 30.469242 9.296936
v -20.529593 30.626469 11.098873
v -20.476635 30.970364 10.821394
v -20.447247 31.161209 10.420425
v -20.447247 31.161209 9.975384
v -20.476635 30.970364 9.574415
v -20.529593 30.626469 9.296936
v -19.686960 30.550924 10.420425
v -20.215219 30.345539 8.980560
v -20.215219 30.345539 9.296936
v -20.193674 30.268484 8.980560
v -20.193674 30.268484 9.296936
v -20.187578 30.188705 8.980560
v -20.187578 30.188705 9.296936
v -20.197161 30.109272 8.980560
v -20.197161 30.109272 9.296936
v -20.222057 30.033232 8.980560
v -20.222057 30.033232 9.296936
v -20.261309 29.963511 8.980560
v -20.261309 29.963511 9.296936
v -20.313410 29.902788 8.980560
v -20.313410 29.902788 9.296936
v -20.376354 29.853395 8.980560
v -20.376354 29.853395 9.296936
v -20.447727 29.817232 8.980560
v -20.447727 29.817232 9.296936
v -20.524782 29.795687 8.980560
v -20.524782 29.795687 9.296936
v -20.604561 29.789591 8.980560
v -20.604561 29.789591 9.296936
v -20.683994 29.799173 8.980560
v -20.683994 29.799173 9.296936
v -20.760035 29.824070 8.980560
v -20.760035 29.824070 9.296936
v -20.829756 29.863321 8.980560
v -20.829756 29.863321 9.296936
v -20.890478 29.915422 8.980560
v -20.890478 29.915422 9.296936
v -20.939871 29.978367 8.980560
v -20.939871 29.978367 9.296936
v -20.976034 30.049740 8.980560
v -20.976034 30.049740 9.296936
v -20.997580 30.126795 8.980560
v -20.997580 30.126795 9.296936
v -21.003675 30.206573 8.980560
v -21.003675 30.206573 9.296936
v -20.994093 30.286007 8.980560
v -20.994093 30.286007 9.296936
v -20.969196 30.362047 8.980560
v -20.969196 30.362047 9.296936
v -20.929945 30.431768 8.980560
v -20.929945 30.431768 9.296936
v -20.877844 30.492491 8.980560
v -20.877844 30.492491 9.296936
v -20.814899 30.541883 8.980560
v -20.814899 30.541883 9.296936
v -20.743526 30.578047 8.980560
v -20.743526 30.578047 9.296936
v -20.666471 30.599592 8.980560
v -20.666471 30.599592 9.296936
v -20.586693 30.605688 8.980560
v -20.586693 30.605688 9.296936
v -20.507259 30.596106 8.980560
v -20.507259 30.596106 9.296936
v -20.431219 30.571209 8.980560
v -20.431219 30.571209 9.296936
v -20.361498 30.531958 8.980560
v -20.361498 30.531958 9.296936
v -20.300776 30.479856 8.980560
v -20.300776 30.479856 9.296936
v -20.251383 30.416912 8.980560
v -20.251383 30.416912 9.296936
vn 0.2519 -0.0388 -0.9670
vn 0.9122 -0.1405 -0.3849
vn 0.9122 -0.1405 0.3849
vn 0.2519 -0.0388 0.9670
vn 0.6695 -0.1031 -0.7356
vn 0.9884 -0.1522 -0.0000
vn 0.6695 -0.1031 0.7356
vn 0.0923 -0.2375 -0.9670
vn 0.3345 -0.8602 -0.3849
vn 0.3344 -0.8602 0.3849
vn 0.0924 -0.2375 0.9670
vn 0.2455 -0.6314 -0.7356
vn 0.3624 -0.9320 -0.0000
vn 0.2455 -0.6314 0.7356
vn -0.1595 -0.1987 -0.9670
vn -0.5777 -0.7198 -0.3849
vn -0.5777 -0.7198 0.3849
vn -0.1595 -0.1987 0.9670
vn -0.4240 -0.5283 -0.7356
vn -0.6260 -0.7798 -0.0000
vn -0.4240 -0.5283 0.7356
vn -0.9122 0.1405 0.3849
vn -0.2519 0.0388 0.9670
vn -0.6695 0.1031 -0.7356
vn -0.9884 0.1522 -0.0000
vn -0.6695 0.1031 0.7356
vn -0.2519 0.0388 -0.9670
vn -0.9122 0.1405 -0.3849
vn -0.2455 0.6314 -0.7356
vn -0.3624 0.9320 -0.0000
vn -0.2455 0.6314 0.7356
vn -0.0923 0.2375 -0.9670
vn -0.3344 0.8602 -0.3849
vn -0.3344 0.8602 0.3849
vn -0.0924 0.2375 0.9670
vn 0.4240 0.5283 -0.7356
vn 0.6260 0.7798 -0.0000
vn 0.4240 0.5283 0.7356
vn 0.1595 0.1987 -0.9670
vn 0.5777 0.7198 -0.3849
vn 0.5777 0.7198 0.3849
vn 0.1595 0.1987 0.9670
vn 0.9631 0.2693 -0.0000
vn 0.9971 0.0762 -0.0000
vn 0.9928 -0.1198 -0.0000
vn 0.9504 -0.3111 -0.0000
vn 0.8714 -0.4906 -0.0000
vn 0.7589 -0.6512 -0.0000
vn 0.6173 -0.7867 -0.0000
vn 0.4520 -0.8920 -0.0000
vn 0.2693 -0.9631 -0.0000
vn 0.0762 -0.9971 -0.0000
vn -0.1198 -0.9928 -0.0000
vn -0.3112 -0.9504 -0.0000
vn -0.4906 -0.8714 -0.0000
vn -0.6512 -0.7589 -0.0000
vn -0.7867 -0.6173 -0.0000
vn -0.8920 -0.4520 -0.0000
vn -0.9631 -0.2693 -0.0000
vn -0.9971 -0.0762 -0.0000
vn -0.9928 0.1198 -0.0000
vn -0.9504 0.3112 -0.0000
vn -0.8714 0.4906 -0.0000
vn -0.7589 0.6512 -0.0000
vn -0.6173 0.7867 -0.0000
vn -0.4520 0.8920 -0.0000
vn -0.2693 0.9631 -0.0000
vn -0.0762 0.9971 -0.0000
vn 0.1198 0.9928 -0.0000
vn 0.3112 0.9504 -0.0000
vn 0.4906 0.8714 -0.0000
vn 0.6512 0.7589 -0.0000
vn 0.7867 0.6173 -0.0000
vn 0.8920 0.4520 -0.0000
vt 0.253469 0.000058
vt 0.360164 0.133561
vt 0.146774 0.133561
vt 0.445727 0.274293
vt 0.493210 0.423550
vt 0.013727 0.423550
vt 0.061211 0.274293
vt 0.493210 0.576449
vt 0.445727 0.725707
vt 0.061211 0.725707
vt 0.013727 0.576450
vt 0.360164 0.866439
vt 0.253469 0.999942
vt 0.146774 0.866439
vt 0.360164 0.133561
vt 0.146774 0.133561
vt 0.445727 0.274293
vt 0.493210 0.423550
vt 0.061211 0.274293
vt 0.493210 0.576449
vt 0.445727 0.725707
vt 0.061211 0.725707
vt 0.013727 0.576450
vt 0.360164 0.866439
vt 0.146774 0.866439
vt 0.360164 0.133561
vt 0.146774 0.133561
vt 0.445727 0.274293
vt 0.493210 0.423550
vt 0.493210 0.576450
vt 0.445727 0.725707
vt 0.061211 0.725707
vt 0.360164 0.866439
vt 0.146774 0.866439
vt 0.445727 0.725707
vt 0.061211 0.725707
vt 0.146774 0.866439
vt 0.360164 0.133561
vt 0.146774 0.133561
vt 0.360164 0.133561
vt 0.445727 0.274293
vt 0.061211 0.274293
vt 0.493210 0.423551
vt 0.013727 0.423551
vt 0.061211 0.274293
vt 0.146774 0.133561
vt 0.493210 0.576449
vt 0.013727 0.576449
vt 0.013728 0.423550
vt 0.360164 0.866439
vt 0.146774 0.866439
vt 0.061211 0.725707
vt 0.622055 0.000099
vt 0.869140 0.000099
vt 0.869140 0.062587
vt 0.622055 0.062587
vt 0.869140 0.125075
vt 0.622055 0.125075
vt 0.869140 0.187562
vt 0.622055 0.187562
vt 0.869140 0.250050
vt 0.622055 0.250050
vt 0.869140 0.312537
vt 0.622055 0.312537
vt 0.869140 0.375025
vt 0.622055 0.375025
vt 0.869141 0.437512
vt 0.622055 0.437512
vt 0.869141 0.500000
vt 0.622055 0.500000
vt 0.869141 0.562488
vt 0.622055 0.562488
vt 0.869141 0.624975
vt 0.622055 0.624975
vt 0.869141 0.687463
vt 0.622055 0.687463
vt 0.869141 0.749950
vt 0.622055 0.749950
vt 0.869141 0.812438
vt 0.622055 0.812438
vt 0.869141 0.874925
vt 0.622055 0.874925
vt 0.869141 0.937413
vt 0.622055 0.937413
vt 0.869141 0.999901
vt 0.622055 0.999901
vt 0.869141 0.999901
vt 0.622055 0.999901
vt 0.622055 0.937413
vt 0.869141 0.937413
vt 0.622055 0.874925
vt 0.869141 0.874925
vt 0.622055 0.812438
vt 0.869141 0.812438
vt 0.622055 0.749950
vt 0.869141 0.749950
vt 0.869141 0.687463
vt 0.622055 0.624975
vt 0.622055 0.562488
vt 0.622055 0.500000
vt 0.869141 0.500000
vt 0.622055 0.437512
vt 0.622055 0.375025
vt 0.869141 0.375025
vt 0.622055 0.312537
vt 0.869141 0.312537
vt 0.622055 0.250050
vt 0.869140 0.250050
vt 0.622055 0.187562
vt 0.869140 0.187562
vt 0.622055 0.125075
vt 0.869140 0.125075
vt 0.622055 0.062587
vt 0.869140 0.062587
vt 0.622055 0.000099
vt 0.869140 0.000099
s 0
f 24/1/1 5/2/1 11/3/1
f 4/4/2 3/5/2 9/6/2 10/7/2
f 38/8/3 2/9/3 7/10/3 8/11/3
f 1/12/4 25/13/4 6/14/4
f 5/2/5 4/4/5 10/7/5 11/3/5
f 3/5/6 38/8/6 8/11/6 9/6/6
f 2/9/7 1/12/7 6/14/7 7/10/7
f 24/1/8 11/15/8 17/16/8
f 10/17/9 9/18/9 15/6/9 16/19/9
f 8/20/10 7/21/10 13/22/10 14/23/10
f 6/24/11 25/13/11 12/25/11
f 11/15/12 10/17/12 16/19/12 17/16/12
f 9/18/13 8/20/13 14/23/13 15/6/13
f 7/21/14 6/24/14 12/25/14 13/22/14
f 24/1/15 17/26/15 23/27/15
f 16/28/16 15/29/16 21/6/16 22/19/16
f 14/30/17 13/31/17 19/32/17 20/23/17
f 12/33/18 25/13/18 18/34/18
f 17/26/19 16/28/19 22/19/19 23/27/19
f 15/29/20 14/30/20 20/23/20 21/6/20
f 13/31/21 12/33/21 18/34/21 19/32/21
f 20/30/22 19/35/22 27/36/22 28/23/22
f 18/33/23 25/13/23 26/37/23
f 23/38/24 22/28/24 30/19/24 31/39/24
f 21/29/25 20/30/25 28/23/25 29/6/25
f 19/35/26 18/33/26 26/37/26 27/36/26
f 24/1/27 23/38/27 31/39/27
f 22/28/28 21/29/28 29/6/28 30/19/28
f 31/40/29 30/41/29 36/42/29 37/27/29
f 29/43/30 28/30/30 34/23/30 35/44/30
f 27/31/31 26/33/31 32/34/31 33/32/31
f 24/1/32 31/40/32 37/27/32
f 30/41/33 29/43/33 35/44/33 36/42/33
f 28/30/34 27/31/34 33/32/34 34/23/34
f 26/33/35 25/13/35 32/34/35
f 37/26/36 36/17/36 4/45/36 5/46/36
f 35/29/37 34/47/37 38/48/37 3/49/37
f 33/21/38 32/50/38 1/51/38 2/52/38
f 24/1/39 37/26/39 5/46/39
f 36/17/40 35/29/40 3/49/40 4/45/40
f 34/47/41 33/21/41 2/52/41 38/48/41
f 32/50/42 25/13/42 1/51/42
f 39/53/43 40/54/43 42/55/43 41/56/43
f 41/56/44 42/55/44 44/57/44 43/58/44
f 43/58/45 44/57/45 46/59/45 45/60/45
f 45/60/46 46/59/46 48/61/46 47/62/46
f 47/62/47 48/61/47 50/63/47 49/64/47
f 49/64/48 50/63/48 52/65/48 51/66/48
f 51/66/49 52/65/49 54/67/49 53/68/49
f 53/68/50 54/67/50 56/69/50 55/70/50
f 55/70/51 56/69/51 58/71/51 57/72/51
f 57/72/52 58/71/52 60/73/52 59/74/52
f 59/74/53 60/73/53 62/75/53 61/76/53
f 61/76/54 62/75/54 64/77/54 63/78/54
f 63/78/55 64/77/55 66/79/55 65/80/55
f 65/80/56 66/79/56 68/81/56 67/82/56
f 67/82/57 68/81/57 70/83/57 69/84/57
f 69/84/58 70/83/58 72/85/58 71/86/58
f 71/87/59 72/88/59 74/89/59 73/90/59
f 73/90/60 74/89/60 76/91/60 75/92/60
f 75/92/61 76/91/61 78/93/61 77/94/61
f 77/94/62 78/93/62 80/95/62 79/96/62
f 79/96/63 80/95/63 82/76/63 81/97/63
f 81/97/64 82/76/64 84/98/64 83/73/64
f 83/73/65 84/98/65 86/99/65 85/71/65
f 85/71/66 86/99/66 88/100/66 87/101/66
f 87/101/67 88/100/67 90/102/67 89/67/67
f 89/67/68 90/102/68 92/103/68 91/104/68
f 91/104/69 92/103/69 94/105/69 93/106/69
f 93/106/70 94/105/70 96/107/70 95/108/70
f 95/108/71 96/107/71 98/109/71 97/110/71
f 97/110/72 98/109/72 100/111/72 99/112/72
f 99/112/73 100/111/73 102/113/73 101/114/73
f 101/114/74 102/113/74 40/115/74 39/116/74
