# Blender 4.5.5 LTS
# www.blender.org
o V_left_stair1_010
v -2.000000 0.099999 0.075000
v 2.000000 0.099999 0.075000
v -2.000000 -0.100001 0.075000
v 2.000000 -0.100001 0.075000
v 2.000000 0.099999 -0.075000
v -2.000000 0.099999 -0.075000
v 2.000000 -0.100001 -0.075000
v -2.000000 -0.100001 -0.075000
vn -0.0000 -0.0000 1.0000
vn -0.0000 -0.0000 -1.0000
vn -0.0000 1.0000 -0.0000
vn -1.0000 -0.0000 -0.0000
vn 1.0000 -0.0000 -0.0000
vn -0.0000 -1.0000 -0.0000
vt 0.000000 1.000000
vt 1.000000 1.000000
s 0
f 1/1/1 3/1/1 4/2/1 2/2/1
f 6/1/2 5/2/2 7/2/2 8/1/2
f 1/1/3 2/2/3 5/2/3 6/1/3
f 3/1/4 1/1/4 6/1/4 8/1/4
f 2/2/5 4/2/5 7/2/5 5/2/5
f 4/2/6 3/1/6 8/1/6 7/2/6
