# Blender 4.5.5 LTS
# www.blender.org
o V_LOGOX4_BK
v -0.000000 2.500000 0.000000
v 0.300000 2.500000 1.200000
v 0.400000 2.500000 0.000000
v 0.400000 2.500000 1.200000
v 0.000000 -2.500000 0.000000
v 0.300000 -2.500000 1.200000
v 0.400000 -2.500000 0.000000
v 0.400000 -2.500000 1.200000
v -9.999999 -2.500002 0.000000
v -10.299999 -2.500002 1.200000
v -10.399999 -2.500002 0.000000
v -10.399999 -2.500002 1.200000
v -10.000001 2.499998 0.000000
v -10.300001 2.499998 1.200000
v -10.400002 2.499998 0.000000
v -10.400002 2.499998 1.200000
v -10.000001 2.499998 0.000000
v -10.300000 2.189415 1.159111
v -10.400001 2.499998 0.000000
v -10.400000 2.189415 1.159111
v -10.000001 7.329627 1.294095
v -10.300001 7.019044 2.453206
v -10.400002 7.329627 1.294095
v -10.400002 7.019044 2.453206
v -0.000001 7.329629 1.294095
v 0.299999 7.019046 2.453206
v 0.399999 7.329629 1.294095
v 0.399999 7.019046 2.453206
v -0.000000 2.500000 0.000000
v 0.300000 2.189417 1.159111
v 0.400000 2.500000 0.000000
v 0.400000 2.189417 1.159111
vn -0.0000 1.0000 -0.0000
vn 1.0000 -0.0000 -0.0000
vn -0.0000 -1.0000 -0.0000
vn -0.9701 -0.0000 0.2425
vn -0.0000 -0.0000 -1.0000
vn -0.0000 -0.0000 1.0000
vn -1.0000 -0.0000 -0.0000
vn 0.9701 -0.0000 0.2425
vn -0.0000 -0.9659 -0.2588
vn -0.0000 0.9659 0.2588
vn 0.9701 -0.0628 0.2343
vn -0.0000 0.2588 -0.9659
vn -0.0000 -0.2588 0.9659
vn -0.9701 -0.0628 0.2343
vt 0.818894 0.948366
vt 0.901147 0.941512
vt 0.901147 0.968929
vt 0.818894 0.941512
vt 0.476177 0.859259
vt 0.818895 0.859260
vt 0.393925 0.941512
vt 0.476177 0.948366
vt 0.393925 0.968929
vt 0.408141 0.024167
vt 0.228295 0.751152
vt 0.228295 0.024167
vt 0.818894 0.831842
vt 0.476177 0.941512
vt 0.104753 0.797627
vt 0.022501 0.804481
vt 0.022501 0.777064
vt 0.104753 0.804481
vt 0.447470 0.886733
vt 0.104753 0.886733
vt 0.529723 0.804481
vt 0.447471 0.797627
vt 0.529723 0.777064
vt 0.615230 0.751152
vt 0.435384 0.024168
vt 0.615230 0.024168
vt 0.447470 0.914151
vt 0.104753 0.914151
vt 0.447471 0.804481
vt 0.964755 0.559992
vt 0.957901 0.477741
vt 0.985318 0.477740
vt 0.875649 0.559992
vt 0.957901 0.902710
vt 0.875649 0.902710
vt 0.957901 0.984962
vt 0.964755 0.902710
vt 0.985318 0.984962
vt 0.641137 0.751152
vt 0.820983 0.024168
vt 0.820983 0.751152
vt 0.848231 0.559992
vt 0.957901 0.559992
vt 0.867458 0.449786
vt 0.874313 0.532038
vt 0.846895 0.532038
vt 0.874313 0.449786
vt 0.956565 0.107069
vt 0.956565 0.449786
vt 0.874313 0.024817
vt 0.867458 0.107069
vt 0.846895 0.024817
vt 0.021206 0.024167
vt 0.201052 0.751152
vt 0.021206 0.751152
vt 0.983982 0.449786
vt 0.874313 0.107069
vt 0.408141 0.751152
vt 0.476177 0.831842
vt 0.435384 0.751152
vt 0.641137 0.024168
vt 0.848231 0.902710
vt 0.201052 0.024167
vt 0.983982 0.107069
s 0
f 2/1/1 3/2/1 1/3/1
f 4/4/2 7/5/2 3/6/2
f 7/7/3 6/8/3 5/9/3
f 6/10/4 1/11/4 5/12/4
f 7/5/5 1/13/5 3/6/5
f 4/4/6 6/8/6 8/14/6
f 10/15/3 11/16/3 9/17/3
f 12/18/7 15/19/7 11/20/7
f 15/21/1 14/22/1 13/23/1
f 13/24/8 10/25/8 9/26/8
f 11/20/5 13/27/5 9/28/5
f 12/18/6 14/22/6 16/29/6
f 18/30/9 19/31/9 17/32/9
f 19/33/7 24/34/7 23/35/7
f 23/36/10 22/37/10 21/38/10
f 22/39/11 17/40/11 21/41/11
f 23/35/12 17/42/12 19/33/12
f 20/43/13 22/37/13 24/34/13
f 26/44/10 27/45/10 25/46/10
f 28/47/2 31/48/2 27/49/2
f 31/50/9 30/51/9 29/52/9
f 29/53/14 26/54/14 25/55/14
f 31/48/12 25/56/12 27/49/12
f 28/47/13 30/51/13 32/57/13
f 2/1/1 4/4/1 3/2/1
f 4/4/2 8/14/2 7/5/2
f 7/7/3 8/14/3 6/8/3
f 6/10/4 2/58/4 1/11/4
f 7/5/5 5/59/5 1/13/5
f 4/4/6 2/1/6 6/8/6
f 10/15/3 12/18/3 11/16/3
f 12/18/7 16/29/7 15/19/7
f 15/21/1 16/29/1 14/22/1
f 13/24/8 14/60/8 10/25/8
f 11/20/5 15/19/5 13/27/5
f 12/18/6 10/15/6 14/22/6
f 18/30/9 20/43/9 19/31/9
f 19/33/7 20/43/7 24/34/7
f 23/36/10 24/34/10 22/37/10
f 22/39/11 18/61/11 17/40/11
f 23/35/12 21/62/12 17/42/12
f 20/43/13 18/30/13 22/37/13
f 26/44/10 28/47/10 27/45/10
f 28/47/2 32/57/2 31/48/2
f 31/50/9 32/57/9 30/51/9
f 29/53/14 30/63/14 26/54/14
f 31/48/12 29/64/12 25/56/12
f 28/47/13 26/44/13 30/51/13
