# Blender 4.5.5 LTS
# www.blender.org
o V_S2_SLOP_BK
v -5.000000 -3.250000 0.000000
v 5.000000 -3.250000 0.000000
v -5.000000 3.250000 0.000000
v 5.000000 3.250000 0.000000
v -5.000000 0.294438 -1.000000
v -5.000000 1.445224 -0.773475
v -5.000000 0.676366 -0.969651
v -5.000000 1.097583 -0.886738
v -5.000000 -1.445224 -0.773475
v -5.000000 -0.294438 -1.000000
v -5.000000 -1.097583 -0.886738
v -5.000000 -0.676366 -0.969651
v 5.000000 -0.294438 -1.000000
v 5.000000 -1.445224 -0.773475
v 5.000000 -0.676366 -0.969651
v 5.000000 -1.097583 -0.886738
v 5.000000 1.445224 -0.773475
v 5.000000 0.294438 -1.000000
v 5.000000 1.097583 -0.886738
v 5.000000 0.676366 -0.969651
v -5.000000 -3.250000 -1.500000
v 5.000000 -3.250000 -1.500000
v 5.000000 3.250000 -1.500000
v -5.000000 3.250000 -1.500000
v 5.000000 -0.676366 -1.500000
v 5.000000 -0.294438 -1.500000
v -5.000000 -0.294438 -1.500000
v -5.000000 -0.676366 -1.500000
v 5.000000 -1.097583 -1.500000
v -5.000000 -1.097583 -1.500000
v 5.000000 -1.445224 -1.500000
v -5.000000 -1.445224 -1.500000
v 5.000000 1.097583 -1.500000
v 5.000000 1.445224 -1.500000
v -5.000000 1.445224 -1.500000
v -5.000000 1.097583 -1.500000
v 5.000000 0.676366 -1.500000
v -5.000000 0.676366 -1.500000
v 5.000000 0.294438 -1.500000
v -5.000000 0.294438 -1.500000
vn -0.5590 -0.4565 0.6922
vn 0.5590 -0.4565 0.6922
vn -0.5590 0.4565 0.6922
vn 0.5590 0.4565 0.6922
vn -0.7161 -0.0277 0.6974
vn -0.7174 -0.2454 0.6521
vn -0.7203 -0.0946 0.6872
vn -0.7209 -0.1746 0.6707
vn -0.7174 0.2454 0.6521
vn -0.7161 0.0277 0.6974
vn -0.7209 0.1746 0.6707
vn -0.7203 0.0946 0.6872
vn 0.7161 0.0277 0.6974
vn 0.7174 0.2454 0.6521
vn 0.7203 0.0946 0.6872
vn 0.7209 0.1746 0.6707
vn 0.7174 -0.2454 0.6521
vn 0.7161 -0.0277 0.6974
vn 0.7209 -0.1746 0.6707
vn 0.7203 -0.0946 0.6872
vn -0.7071 -0.7071 -0.0000
vn 0.7071 -0.7071 -0.0000
vn 0.7071 0.7071 -0.0000
vn -0.7071 0.7071 -0.0000
vn 1.0000 -0.0000 -0.0000
vn -1.0000 -0.0000 -0.0000
vt 0.485907 0.913565
vt 0.482339 0.086243
vt 0.516112 0.086435
vt 0.519680 0.913757
vt 0.302844 0.899061
vt 0.302844 0.101648
vt 0.414895 0.089347
vt 0.417757 0.911051
vt 0.463979 0.913905
vt 0.460548 0.086215
vt 0.439036 0.913061
vt 0.435858 0.087248
vt 0.584262 0.088949
vt 0.587123 0.910653
vt 0.566160 0.912752
vt 0.562982 0.086939
vt 0.541470 0.913785
vt 0.538039 0.086095
vt 0.699174 0.100939
vt 0.699174 0.898352
vt 0.470780 0.954618
vt 0.450958 0.958879
vt 0.654558 0.995855
vt 0.570938 0.962559
vt 0.183233 0.899061
vt 0.183233 0.101648
vt 0.567514 0.036241
vt 0.652702 0.001592
vt 0.818786 0.100939
vt 0.818786 0.898352
vt 0.531238 0.045382
vt 0.551061 0.041121
vt 0.431080 0.037441
vt 0.447293 0.042128
vt 0.517106 0.951856
vt 0.489202 0.952458
vt 0.466822 0.046178
vt 0.484912 0.048144
vt 0.554725 0.957872
vt 0.535196 0.953822
vt 0.434504 0.963759
vt 0.512816 0.047542
vt 0.349316 0.998408
vt 0.347460 0.004145
s 1
f 10/1/10 13/2/13 18/3/18 5/4/5
f 1/5/1 2/6/2 14/7/14 9/8/9
f 13/2/13 10/1/10 12/9/12 15/10/15
f 15/10/15 12/9/12 11/11/11 16/12/16
f 16/12/16 11/11/11 9/8/9 14/7/14
f 17/13/17 6/14/6 8/15/8 19/16/19
f 19/16/19 8/15/8 7/17/7 20/18/20
f 20/18/20 7/17/7 5/4/5 18/3/18
f 6/14/6 17/13/17 4/19/4 3/20/3
f 12/9/12 28/21/26 30/22/26 11/11/11
f 3/20/3 24/23/24 35/24/26 6/14/6
f 1/5/1 21/25/21 22/26/22 2/6/2
f 17/13/17 34/27/25 23/28/23 4/19/4
f 4/19/4 23/29/23 24/30/24 3/20/3
f 20/18/20 37/31/25 33/32/25 19/16/19
f 14/7/14 31/33/25 29/34/25 16/12/16
f 5/4/5 40/35/26 27/36/26 10/1/10
f 15/10/15 25/37/25 26/38/25 13/2/13
f 8/15/8 36/39/26 38/40/26 7/17/7
f 11/11/11 30/22/26 32/41/26 9/8/9
f 13/2/13 26/38/25 39/42/25 18/3/18
f 9/8/9 32/41/26 21/43/21 1/5/1
f 10/1/10 27/36/26 28/21/26 12/9/12
f 18/3/18 39/42/25 37/31/25 20/18/20
f 19/16/19 33/32/25 34/27/25 17/13/17
f 2/6/2 22/44/22 31/33/25 14/7/14
f 7/17/7 38/40/26 40/35/26 5/4/5
f 16/12/16 29/34/25 25/37/25 15/10/15
f 6/14/6 35/24/26 36/39/26 8/15/8
