# Blender 4.5.5 LTS
# www.blender.org
o V_Section_1_END.001
v -4.800000 0.800000 0.000000
v -4.800000 -0.800000 0.000000
v 4.800000 -0.800000 0.000000
v 4.800000 0.800000 0.000000
v -4.900000 0.900000 0.000000
v -4.900000 -0.900000 0.000000
v 4.900000 -0.900000 0.000000
v 4.900000 0.900000 0.000000
v -4.800000 0.800000 -1.000000
v -4.800000 -0.800000 -1.000000
v 4.800000 -0.800000 -1.000000
v 4.800000 0.800000 -1.000000
v -4.900000 0.900000 -1.000000
v -4.900000 -0.900000 -1.000000
v 4.900000 -0.900000 -1.000000
v 4.900000 0.900000 -1.000000
vn -0.0000 -0.0000 1.0000
vn -0.0000 -0.0000 -1.0000
vn -1.0000 -0.0000 -0.0000
vn -0.0000 -1.0000 -0.0000
vn 1.0000 -0.0000 -0.0000
vn -0.0000 1.0000 -0.0000
vt 0.020000 0.100000
vt 0.020000 0.900000
vt 0.010000 0.950000
vt 0.010000 0.050000
vt 0.980000 0.100000
vt 0.990000 0.050000
vt 0.980000 0.900000
vt 0.990000 0.950000
s 0
f 2/1/1 1/2/1 5/3/1 6/4/1
f 3/5/1 2/1/1 6/4/1 7/6/1
f 4/7/1 3/5/1 7/6/1 8/8/1
f 1/2/1 4/7/1 8/8/1 5/3/1
f 10/1/2 14/4/2 13/3/2 9/2/2
f 11/5/2 15/6/2 14/4/2 10/1/2
f 12/7/2 16/8/2 15/6/2 11/5/2
f 9/2/2 13/3/2 16/8/2 12/7/2
f 6/4/3 5/3/3 13/3/3 14/4/3
f 7/6/4 6/4/4 14/4/4 15/6/4
f 8/8/5 7/6/5 15/6/5 16/8/5
f 5/3/6 8/8/6 16/8/6 13/3/6
f 1/2/5 2/1/5 10/1/5 9/2/5
f 2/1/6 3/5/6 11/5/6 10/1/6
f 3/5/3 4/7/3 12/7/3 11/5/3
f 4/7/4 1/2/4 9/2/4 12/7/4
