# Blender 4.5.5 LTS
# www.blender.org
o V_Section_2_END
v -5.000000 25.329628 1.294095
v 5.000000 25.329628 1.294095
v -5.000000 27.329628 1.294095
v 5.000000 27.329628 1.294095
v -5.000000 25.329628 0.294095
v 5.000000 25.329628 0.294095
v -5.000000 27.329628 0.294095
v 5.000000 27.329628 0.294095
v -5.000000 26.329628 1.294095
v 5.000000 26.329628 1.294095
v -5.000000 26.329628 0.294095
v 5.000000 26.329628 0.294095
v 0.000000 25.329628 1.294095
v 0.000000 27.329628 1.294095
v 0.000000 25.329628 0.294095
v 0.000000 27.329628 0.294095
v 0.000000 26.329628 0.294095
v 0.000000 26.329628 1.294095
vn -0.0000 -0.0000 1.0000
vn -0.0000 -0.0000 -1.0000
vn -1.0000 -0.0000 -0.0000
vn -0.0000 -1.0000 -0.0000
vn 1.0000 -0.0000 -0.0000
vn -0.0000 1.0000 -0.0000
vt 0.500000 0.500000
vt 1.000000 0.500000
vt 1.000000 1.000000
vt 0.500000 1.000000
vt 0.000000 0.500000
vt 0.000000 1.000000
vt 0.500000 0.000000
vt 0.000000 0.000000
vt 1.000000 0.000000
s 0
f 18/1/1 10/2/1 4/3/1 14/4/1
f 17/1/2 16/4/2 8/3/2 12/2/2
f 9/5/3 3/6/3 7/6/3 11/5/3
f 13/7/4 1/8/4 5/8/4 15/7/4
f 10/2/5 2/9/5 6/9/5 12/2/5
f 14/4/6 4/3/6 8/3/6 16/4/6
f 4/3/5 10/2/5 12/2/5 8/3/5
f 1/8/3 9/5/3 11/5/3 5/8/3
f 15/7/2 17/1/2 12/2/2 6/9/2
f 13/7/1 2/9/1 10/2/1 18/1/1
f 1/8/1 13/7/1 18/1/1 9/5/1
f 5/8/2 11/5/2 17/1/2 15/7/2
f 3/6/6 14/4/6 16/4/6 7/6/6
f 2/9/4 13/7/4 15/7/4 6/9/4
f 11/5/2 7/6/2 16/4/2 17/1/2
f 9/5/1 18/1/1 14/4/1 3/6/1
