# Blender 4.5.5 LTS
# www.blender.org
o V_Section_1_SLOP
v -5.000000 -2.414814 -0.647048
v 5.000000 -2.414814 -0.647048
v -5.000000 2.414814 0.647048
v 5.000000 2.414814 0.647048
v -5.000000 2.414814 -1.647048
v -5.000000 -2.414814 -1.647048
v 5.000000 -2.414814 -1.647048
v 5.000000 2.414814 -1.647048
vn -0.0000 -0.2588 0.9659
vn -0.0000 -0.0000 -1.0000
vn -0.0000 1.0000 -0.0000
vn -0.0000 -1.0000 -0.0000
vn 1.0000 -0.0000 -0.0000
vn -1.0000 -0.0000 -0.0000
vt 0.999929 0.500000
vt 0.000071 0.500000
vt 0.000071 0.000071
vt 0.999929 0.000071
s 0
f 1/1/1 2/2/1 4/3/1 3/4/1
f 6/1/2 5/4/2 8/3/2 7/2/2
f 4/3/3 8/3/3 5/4/3 3/4/3
f 1/1/4 6/1/4 7/2/4 2/2/4
f 2/2/5 7/2/5 8/3/5 4/3/5
f 3/4/6 5/4/6 6/1/6 1/1/6
