# Blender 4.5.5 LTS
# www.blender.org
o V_Section_2_step4B
v -5.000000 14.329629 2.794095
v -1.000000 14.329629 2.794095
v -5.000000 14.129629 2.644095
v -5.000000 13.929629 2.494095
v -5.000000 13.729629 2.344095
v -5.000000 13.529629 2.194095
v -5.000000 13.329629 2.044095
v -5.000000 13.129629 1.894095
v -5.000000 12.929629 1.744095
v -5.000000 12.729629 1.594095
v -5.000000 12.529629 1.444095
v -1.000000 12.529629 1.444095
v -1.000000 12.729629 1.594095
v -1.000000 12.929629 1.744095
v -1.000000 13.129629 1.894095
v -1.000000 13.329629 2.044095
v -1.000000 13.529629 2.194095
v -1.000000 13.729629 2.344095
v -1.000000 13.929629 2.494095
v -1.000000 14.129629 2.644095
v -5.000000 14.129629 2.794095
v -1.000000 14.129629 2.794095
v -5.000000 13.929629 2.644095
v -5.000000 13.729629 2.494095
v -5.000000 13.529629 2.344095
v -5.000000 13.329629 2.194095
v -5.000000 13.129629 2.044095
v -5.000000 12.929629 1.894095
v -5.000000 12.729629 1.744095
v -5.000000 12.529629 1.594095
v -5.000000 12.329629 1.444095
v -1.000000 12.329629 1.444095
v -1.000000 12.529629 1.594095
v -1.000000 12.729629 1.744095
v -1.000000 12.929629 1.894095
v -1.000000 13.129629 2.044095
v -1.000000 13.329629 2.194095
v -1.000000 13.529629 2.344095
v -1.000000 13.729629 2.494095
v -1.000000 13.929629 2.644095
v -1.000000 14.329629 2.644095
v -5.000000 14.329629 2.644095
v -1.000000 12.529629 1.294095
v -5.000000 12.529629 1.294095
v -1.000000 12.729629 1.444095
v -5.000000 12.729629 1.444095
v -1.000000 12.929629 1.594095
v -5.000000 12.929629 1.594095
v -1.000000 13.129629 1.744095
v -5.000000 13.129629 1.744095
v -1.000000 13.329629 1.894095
v -5.000000 13.329629 1.894095
v -1.000000 13.529629 2.044095
v -5.000000 13.529629 2.044095
v -1.000000 13.729629 2.194095
v -5.000000 13.729629 2.194095
v -1.000000 13.929629 2.344095
v -5.000000 13.929629 2.344095
v -1.000000 14.129629 2.494095
v -5.000000 14.129629 2.494095
v -1.000000 14.129629 2.644095
v -5.000000 14.129629 2.644095
v -1.000000 12.329629 1.294095
v -5.000000 12.329629 1.294095
v -1.000000 12.529629 1.444095
v -5.000000 12.529629 1.444095
v -1.000000 12.729629 1.594095
v -5.000000 12.729629 1.594095
v -1.000000 12.929629 1.744095
v -5.000000 12.929629 1.744095
v -1.000000 13.129629 1.894095
v -5.000000 13.129629 1.894095
v -1.000000 13.329629 2.044095
v -5.000000 13.329629 2.044095
v -1.000000 13.529629 2.194095
v -5.000000 13.529629 2.194095
v -1.000000 13.729629 2.344095
v -5.000000 13.729629 2.344095
v -1.000000 13.929629 2.494095
v -5.000000 13.929629 2.494095
v -1.000000 14.329629 2.294095
v 5.000000 14.329629 2.294095
v -1.000000 14.129629 2.194095
v -1.000000 13.929629 2.094095
v -1.000000 13.729629 1.994095
v -1.000000 13.529629 1.894095
v -1.000000 13.329629 1.794095
v -1.000000 13.129629 1.694095
v -1.000000 12.929629 1.594095
v -1.000000 12.729629 1.494095
v -1.000000 12.529629 1.394095
v 5.000000 12.529629 1.394095
v 5.000000 12.729629 1.494095
v 5.000000 12.929629 1.594095
v 5.000000 13.129629 1.694095
v 5.000000 13.329629 1.794095
v 5.000000 13.529629 1.894095
v 5.000000 13.729629 1.994095
v 5.000000 13.929629 2.094095
v 5.000000 14.129629 2.194095
v -1.000000 14.129629 2.294095
v 5.000000 14.129629 2.294095
v -1.000000 13.929629 2.194095
v -1.000000 13.729629 2.094095
v -1.000000 13.529629 1.994095
v -1.000000 13.329629 1.894095
v -1.000000 13.129629 1.794095
v -1.000000 12.929629 1.694095
v -1.000000 12.729629 1.594095
v -1.000000 12.529629 1.494095
v -1.000000 12.329629 1.394095
v 5.000000 12.329629 1.394095
v 5.000000 12.529629 1.494095
v 5.000000 12.729629 1.594095
v 5.000000 12.929629 1.694095
v 5.000000 13.129629 1.794095
v 5.000000 13.329629 1.894095
v 5.000000 13.529629 1.994095
v 5.000000 13.729629 2.094095
v 5.000000 13.929629 2.194095
v 5.000000 14.329629 2.144095
v -1.000000 14.329629 2.144095
v 5.000000 12.529629 1.244095
v -1.000000 12.529629 1.244095
v 5.000000 12.729629 1.344095
v -1.000000 12.729629 1.344095
v 5.000000 12.929629 1.444095
v -1.000000 12.929629 1.444095
v 5.000000 13.129629 1.544095
v -1.000000 13.129629 1.544095
v 5.000000 13.329629 1.644095
v -1.000000 13.329629 1.644095
v 5.000000 13.529629 1.744095
v -1.000000 13.529629 1.744095
v 5.000000 13.729629 1.844095
v -1.000000 13.729629 1.844095
v 5.000000 13.929629 1.944095
v -1.000000 13.929629 1.944095
v 5.000000 14.129629 2.044095
v -1.000000 14.129629 2.044095
v 5.000000 14.129629 2.144095
v -1.000000 14.129629 2.144095
v 5.000000 12.329629 1.244095
v -1.000000 12.329629 1.244095
v 5.000000 12.529629 1.344095
v -1.000000 12.529629 1.344095
v 5.000000 12.729629 1.444095
v -1.000000 12.729629 1.444095
v 5.000000 12.929629 1.544095
v -1.000000 12.929629 1.544095
v 5.000000 13.129629 1.644095
v -1.000000 13.129629 1.644095
v 5.000000 13.329629 1.744095
v -1.000000 13.329629 1.744095
v 5.000000 13.529629 1.844095
v -1.000000 13.529629 1.844095
v 5.000000 13.729629 1.944095
v -1.000000 13.729629 1.944095
v 5.000000 13.929629 2.044095
v -1.000000 13.929629 2.044095
v -0.999999 21.329628 2.794095
v -5.000000 21.329628 2.794095
v -0.999999 21.529629 2.644095
v -1.000000 21.729630 2.494095
v -1.000000 21.929628 2.344095
v -1.000000 22.129627 2.194095
v -1.000000 22.329628 2.044095
v -1.000000 22.529629 1.894095
v -1.000000 22.729630 1.744095
v -1.000000 22.929628 1.594095
v -1.000000 23.129627 1.444095
v -5.000000 23.129627 1.444095
v -5.000000 22.929626 1.594095
v -5.000000 22.729628 1.744095
v -5.000000 22.529629 1.894095
v -5.000000 22.329628 2.044095
v -5.000000 22.129627 2.194095
v -5.000000 21.929626 2.344095
v -5.000000 21.729628 2.494095
v -5.000000 21.529629 2.644095
v -0.999999 21.529629 2.794095
v -5.000000 21.529629 2.794095
v -1.000000 21.729630 2.644095
v -1.000000 21.929628 2.494095
v -1.000000 22.129627 2.344095
v -1.000000 22.329628 2.194095
v -1.000000 22.529629 2.044095
v -1.000000 22.729630 1.894095
v -1.000000 22.929628 1.744095
v -1.000000 23.129627 1.594095
v -1.000000 23.329628 1.444095
v -5.000000 23.329628 1.444095
v -5.000000 23.129627 1.594095
v -5.000000 22.929626 1.744095
v -5.000000 22.729628 1.894095
v -5.000000 22.529629 2.044095
v -5.000000 22.329628 2.194095
v -5.000000 22.129627 2.344095
v -5.000000 21.929626 2.494095
v -5.000000 21.729628 2.644095
v -5.000000 21.329628 2.644095
v -0.999999 21.329628 2.644095
v -5.000000 23.129627 1.294095
v -1.000000 23.129627 1.294095
v -5.000000 22.929626 1.444095
v -1.000000 22.929628 1.444095
v -5.000000 22.729628 1.594095
v -1.000000 22.729630 1.594095
v -5.000000 22.529629 1.744095
v -1.000000 22.529629 1.744095
v -5.000000 22.329628 1.894095
v -1.000000 22.329628 1.894095
v -5.000000 22.129627 2.044095
v -1.000000 22.129627 2.044095
v -5.000000 21.929626 2.194095
v -1.000000 21.929628 2.194095
v -5.000000 21.729628 2.344095
v -1.000000 21.729630 2.344095
v -5.000000 21.529629 2.494095
v -0.999999 21.529629 2.494095
v -5.000000 21.529629 2.644095
v -0.999999 21.529629 2.644095
v -5.000000 23.329628 1.294095
v -1.000000 23.329628 1.294095
v -5.000000 23.129627 1.444095
v -1.000000 23.129627 1.444095
v -5.000000 22.929626 1.594095
v -1.000000 22.929628 1.594095
v -5.000000 22.729628 1.744095
v -1.000000 22.729630 1.744095
v -5.000000 22.529629 1.894095
v -1.000000 22.529629 1.894095
v -5.000000 22.329628 2.044095
v -1.000000 22.329628 2.044095
v -5.000000 22.129627 2.194095
v -1.000000 22.129627 2.194095
v -5.000000 21.929626 2.344095
v -1.000000 21.929628 2.344095
v -5.000000 21.729628 2.494095
v -1.000000 21.729630 2.494095
v 5.000000 21.329628 2.294095
v -0.999999 21.329628 2.294095
v 5.000000 21.529629 2.194095
v 5.000000 21.729630 2.094095
v 5.000000 21.929630 1.994095
v 5.000000 22.129629 1.894095
v 5.000000 22.329628 1.794095
v 5.000000 22.529629 1.694095
v 5.000000 22.729630 1.594095
v 5.000000 22.929630 1.494095
v 5.000000 23.129629 1.394095
v -1.000000 23.129627 1.394095
v -1.000000 22.929626 1.494095
v -1.000000 22.729626 1.594095
v -1.000000 22.529627 1.694095
v -1.000000 22.329628 1.794095
v -1.000000 22.129627 1.894095
v -0.999999 21.929626 1.994095
v -0.999999 21.729626 2.094095
v -0.999999 21.529627 2.194095
v 5.000000 21.529629 2.294095
v -0.999999 21.529627 2.294095
v 5.000000 21.729630 2.194095
v 5.000000 21.929630 2.094095
v 5.000000 22.129629 1.994095
v 5.000000 22.329628 1.894095
v 5.000000 22.529629 1.794095
v 5.000000 22.729630 1.694095
v 5.000000 22.929630 1.594095
v 5.000000 23.129629 1.494095
v 5.000000 23.329628 1.394095
v -1.000000 23.329628 1.394095
v -1.000000 23.129627 1.494095
v -1.000000 22.929626 1.594095
v -1.000000 22.729626 1.694095
v -1.000000 22.529627 1.794095
v -1.000000 22.329628 1.894095
v -1.000000 22.129627 1.994095
v -0.999999 21.929626 2.094095
v -0.999999 21.729626 2.194095
v -0.999999 21.329628 2.144095
v 5.000000 21.329628 2.144095
v -1.000000 23.129627 1.244095
v 5.000000 23.129629 1.244095
v -1.000000 22.929626 1.344095
v 5.000000 22.929630 1.344095
v -1.000000 22.729626 1.444095
v 5.000000 22.729630 1.444095
v -1.000000 22.529627 1.544095
v 5.000000 22.529629 1.544095
v -1.000000 22.329628 1.644095
v 5.000000 22.329628 1.644095
v -1.000000 22.129627 1.744095
v 5.000000 22.129629 1.744095
v -0.999999 21.929626 1.844095
v 5.000000 21.929630 1.844095
v -0.999999 21.729626 1.944095
v 5.000000 21.729630 1.944095
v -0.999999 21.529627 2.044095
v 5.000000 21.529629 2.044095
v -0.999999 21.529627 2.144095
v 5.000000 21.529629 2.144095
v -1.000000 23.329628 1.244095
v 5.000000 23.329628 1.244095
v -1.000000 23.129627 1.344095
v 5.000000 23.129629 1.344095
v -1.000000 22.929626 1.444095
v 5.000000 22.929630 1.444095
v -1.000000 22.729626 1.544095
v 5.000000 22.729630 1.544095
v -1.000000 22.529627 1.644095
v 5.000000 22.529629 1.644095
v -1.000000 22.329628 1.744095
v 5.000000 22.329628 1.744095
v -1.000000 22.129627 1.844095
v 5.000000 22.129629 1.844095
v -0.999999 21.929626 1.944095
v 5.000000 21.929630 1.944095
v -0.999999 21.729626 2.044095
v 5.000000 21.729630 2.044095
vn -0.0000 -0.0000 -1.0000
vn -1.0000 -0.0000 -0.0000
vn -0.0000 -1.0000 -0.0000
vn 1.0000 -0.0000 -0.0000
vn -0.0000 1.0000 -0.0000
vt 1.000000 0.100000
vt 0.000000 0.100000
vt 1.000000 0.800000
vt 0.000000 0.800000
vt 1.000000 0.500000
vt 0.000000 0.500000
vt 1.000000 0.200000
vt 0.000000 0.200000
vt 0.000000 0.900000
vt 1.000000 0.900000
vt 0.000000 1.000000
vt 1.000000 1.000000
vt 1.000000 0.600000
vt 0.000000 0.600000
vt 1.000000 0.300000
vt 0.000000 0.300000
vt 1.000000 0.700000
vt 0.000000 0.700000
vt 1.000000 0.400000
vt 0.000000 0.400000
s 0
f 43/1/1 63/1/1 64/2/1 44/2/1
f 57/3/1 77/3/1 78/4/1 58/4/1
f 51/5/1 71/5/1 72/6/1 52/6/1
f 45/7/1 65/7/1 66/8/1 46/8/1
f 60/9/1 59/10/1 79/10/1 80/9/1
f 42/11/1 41/12/1 61/12/1 62/11/1
f 53/13/1 73/13/1 74/14/1 54/14/1
f 47/15/1 67/15/1 68/16/1 48/16/1
f 55/17/1 75/17/1 76/18/1 56/18/1
f 49/19/1 69/19/1 70/20/1 50/20/1
f 7/6/2 52/6/2 72/6/2 27/6/2
f 30/8/3 66/8/3 65/7/3 33/7/3
f 8/20/2 50/20/2 70/20/2 28/20/2
f 33/7/4 65/7/4 45/7/4 13/7/4
f 29/16/3 68/16/3 67/15/3 34/15/3
f 1/11/5 2/12/5 41/12/5 42/11/5
f 10/8/2 46/8/2 66/8/2 30/8/2
f 28/20/3 70/20/3 69/19/3 35/19/3
f 12/1/5 43/1/5 44/2/5 11/2/5
f 23/9/2 3/9/2 60/9/2 80/9/2
f 27/6/3 72/6/3 71/5/3 36/5/3
f 13/7/5 45/7/5 46/8/5 10/8/5
f 20/10/4 40/10/4 79/10/4 59/10/4
f 26/14/3 74/14/3 73/13/3 37/13/3
f 14/15/5 47/15/5 48/16/5 9/16/5
f 21/11/2 1/11/2 42/11/2 62/11/2
f 25/18/3 76/18/3 75/17/3 38/17/3
f 15/19/5 49/19/5 50/20/5 8/20/5
f 2/12/4 22/12/4 61/12/4 41/12/4
f 24/4/3 78/4/3 77/3/3 39/3/3
f 16/5/5 51/5/5 52/6/5 7/6/5
f 37/13/4 73/13/4 53/13/4 17/13/4
f 40/10/3 23/9/3 80/9/3 79/10/3
f 17/13/5 53/13/5 54/14/5 6/14/5
f 6/14/2 54/14/2 74/14/2 26/14/2
f 32/1/4 63/1/4 43/1/4 12/1/4
f 18/17/5 55/17/5 56/18/5 5/18/5
f 34/15/4 67/15/4 47/15/4 14/15/4
f 11/2/2 44/2/2 64/2/2 31/2/2
f 19/3/5 57/3/5 58/4/5 4/4/5
f 9/16/2 48/16/2 68/16/2 29/16/2
f 39/3/4 77/3/4 57/3/4 19/3/4
f 3/9/5 20/10/5 59/10/5 60/9/5
f 38/17/4 75/17/4 55/17/4 18/17/4
f 4/4/2 58/4/2 78/4/2 24/4/2
f 22/12/3 21/11/3 62/11/3 61/12/3
f 5/18/2 56/18/2 76/18/2 25/18/2
f 36/5/4 71/5/4 51/5/4 16/5/4
f 31/2/3 64/2/3 63/1/3 32/1/3
f 35/19/4 69/19/4 49/19/4 15/19/4
f 131/5/1 151/5/1 152/6/1 132/6/1
f 125/7/1 145/7/1 146/8/1 126/8/1
f 140/9/1 139/10/1 159/10/1 160/9/1
f 122/11/1 121/12/1 141/12/1 142/11/1
f 133/13/1 153/13/1 154/14/1 134/14/1
f 127/15/1 147/15/1 148/16/1 128/16/1
f 135/17/1 155/17/1 156/18/1 136/18/1
f 129/19/1 149/19/1 150/20/1 130/20/1
f 123/1/1 143/1/1 144/2/1 124/2/1
f 137/3/1 157/3/1 158/4/1 138/4/1
f 81/11/5 82/12/5 121/12/5 122/11/5
f 82/12/4 102/12/4 141/12/4 121/12/4
f 108/20/3 150/20/3 149/19/3 115/19/3
f 92/1/5 123/1/5 124/2/5 91/2/5
f 117/13/4 153/13/4 133/13/4 97/13/4
f 107/6/3 152/6/3 151/5/3 116/5/3
f 93/7/5 125/7/5 126/8/5 90/8/5
f 86/14/2 134/14/2 154/14/2 106/14/2
f 106/14/3 154/14/3 153/13/3 117/13/3
f 94/15/5 127/15/5 128/16/5 89/16/5
f 114/15/4 147/15/4 127/15/4 94/15/4
f 105/18/3 156/18/3 155/17/3 118/17/3
f 95/19/5 129/19/5 130/20/5 88/20/5
f 89/16/2 128/16/2 148/16/2 109/16/2
f 104/4/3 158/4/3 157/3/3 119/3/3
f 96/5/5 131/5/5 132/6/5 87/6/5
f 118/17/4 155/17/4 135/17/4 98/17/4
f 120/10/3 103/9/3 160/9/3 159/10/3
f 97/13/5 133/13/5 134/14/5 86/14/5
f 85/18/2 136/18/2 156/18/2 105/18/2
f 116/5/4 151/5/4 131/5/4 96/5/4
f 98/17/5 135/17/5 136/18/5 85/18/5
f 115/19/4 149/19/4 129/19/4 95/19/4
f 87/6/2 132/6/2 152/6/2 107/6/2
f 99/3/5 137/3/5 138/4/5 84/4/5
f 88/20/2 130/20/2 150/20/2 108/20/2
f 113/7/4 145/7/4 125/7/4 93/7/4
f 83/9/5 100/10/5 139/10/5 140/9/5
f 112/1/4 143/1/4 123/1/4 92/1/4
f 90/8/2 126/8/2 146/8/2 110/8/2
f 102/12/3 101/11/3 142/11/3 141/12/3
f 91/2/2 124/2/2 144/2/2 111/2/2
f 103/9/2 83/9/2 140/9/2 160/9/2
f 111/2/3 144/2/3 143/1/3 112/1/3
f 119/3/4 157/3/4 137/3/4 99/3/4
f 100/10/4 120/10/4 159/10/4 139/10/4
f 110/8/3 146/8/3 145/7/3 113/7/3
f 84/4/2 138/4/2 158/4/2 104/4/2
f 101/11/2 81/11/2 122/11/2 142/11/2
f 109/16/3 148/16/3 147/15/3 114/15/3
f 203/1/1 223/1/1 224/2/1 204/2/1
f 217/3/1 237/3/1 238/4/1 218/4/1
f 211/5/1 231/5/1 232/6/1 212/6/1
f 205/7/1 225/7/1 226/8/1 206/8/1
f 220/9/1 219/10/1 239/10/1 240/9/1
f 202/11/1 201/12/1 221/12/1 222/11/1
f 213/13/1 233/13/1 234/14/1 214/14/1
f 207/15/1 227/15/1 228/16/1 208/16/1
f 215/17/1 235/17/1 236/18/1 216/18/1
f 209/19/1 229/19/1 230/20/1 210/20/1
f 167/6/4 212/6/4 232/6/4 187/6/4
f 190/8/5 226/8/5 225/7/5 193/7/5
f 168/20/4 210/20/4 230/20/4 188/20/4
f 193/7/2 225/7/2 205/7/2 173/7/2
f 189/16/5 228/16/5 227/15/5 194/15/5
f 161/11/3 162/12/3 201/12/3 202/11/3
f 170/8/4 206/8/4 226/8/4 190/8/4
f 188/20/5 230/20/5 229/19/5 195/19/5
f 172/1/3 203/1/3 204/2/3 171/2/3
f 183/9/4 163/9/4 220/9/4 240/9/4
f 187/6/5 232/6/5 231/5/5 196/5/5
f 173/7/3 205/7/3 206/8/3 170/8/3
f 180/10/2 200/10/2 239/10/2 219/10/2
f 186/14/5 234/14/5 233/13/5 197/13/5
f 174/15/3 207/15/3 208/16/3 169/16/3
f 181/11/4 161/11/4 202/11/4 222/11/4
f 185/18/5 236/18/5 235/17/5 198/17/5
f 175/19/3 209/19/3 210/20/3 168/20/3
f 162/12/2 182/12/2 221/12/2 201/12/2
f 184/4/5 238/4/5 237/3/5 199/3/5
f 176/5/3 211/5/3 212/6/3 167/6/3
f 197/13/2 233/13/2 213/13/2 177/13/2
f 200/10/5 183/9/5 240/9/5 239/10/5
f 177/13/3 213/13/3 214/14/3 166/14/3
f 166/14/4 214/14/4 234/14/4 186/14/4
f 192/1/2 223/1/2 203/1/2 172/1/2
f 178/17/3 215/17/3 216/18/3 165/18/3
f 194/15/2 227/15/2 207/15/2 174/15/2
f 171/2/4 204/2/4 224/2/4 191/2/4
f 179/3/3 217/3/3 218/4/3 164/4/3
f 169/16/4 208/16/4 228/16/4 189/16/4
f 199/3/2 237/3/2 217/3/2 179/3/2
f 163/9/3 180/10/3 219/10/3 220/9/3
f 198/17/2 235/17/2 215/17/2 178/17/2
f 164/4/4 218/4/4 238/4/4 184/4/4
f 182/12/5 181/11/5 222/11/5 221/12/5
f 165/18/4 216/18/4 236/18/4 185/18/4
f 196/5/2 231/5/2 211/5/2 176/5/2
f 191/2/5 224/2/5 223/1/5 192/1/5
f 195/19/2 229/19/2 209/19/2 175/19/2
f 291/5/1 311/5/1 312/6/1 292/6/1
f 285/7/1 305/7/1 306/8/1 286/8/1
f 300/9/1 299/10/1 319/10/1 320/9/1
f 282/11/1 281/12/1 301/12/1 302/11/1
f 293/13/1 313/13/1 314/14/1 294/14/1
f 287/15/1 307/15/1 308/16/1 288/16/1
f 295/17/1 315/17/1 316/18/1 296/18/1
f 289/19/1 309/19/1 310/20/1 290/20/1
f 283/1/1 303/1/1 304/2/1 284/2/1
f 297/3/1 317/3/1 318/4/1 298/4/1
f 241/11/3 242/12/3 281/12/3 282/11/3
f 242/12/2 262/12/2 301/12/2 281/12/2
f 268/20/5 310/20/5 309/19/5 275/19/5
f 252/1/3 283/1/3 284/2/3 251/2/3
f 277/13/2 313/13/2 293/13/2 257/13/2
f 267/6/5 312/6/5 311/5/5 276/5/5
f 253/7/3 285/7/3 286/8/3 250/8/3
f 246/14/4 294/14/4 314/14/4 266/14/4
f 266/14/5 314/14/5 313/13/5 277/13/5
f 254/15/3 287/15/3 288/16/3 249/16/3
f 274/15/2 307/15/2 287/15/2 254/15/2
f 265/18/5 316/18/5 315/17/5 278/17/5
f 255/19/3 289/19/3 290/20/3 248/20/3
f 249/16/4 288/16/4 308/16/4 269/16/4
f 264/4/5 318/4/5 317/3/5 279/3/5
f 256/5/3 291/5/3 292/6/3 247/6/3
f 278/17/2 315/17/2 295/17/2 258/17/2
f 280/10/5 263/9/5 320/9/5 319/10/5
f 257/13/3 293/13/3 294/14/3 246/14/3
f 245/18/4 296/18/4 316/18/4 265/18/4
f 276/5/2 311/5/2 291/5/2 256/5/2
f 258/17/3 295/17/3 296/18/3 245/18/3
f 275/19/2 309/19/2 289/19/2 255/19/2
f 247/6/4 292/6/4 312/6/4 267/6/4
f 259/3/3 297/3/3 298/4/3 244/4/3
f 248/20/4 290/20/4 310/20/4 268/20/4
f 273/7/2 305/7/2 285/7/2 253/7/2
f 243/9/3 260/10/3 299/10/3 300/9/3
f 272/1/2 303/1/2 283/1/2 252/1/2
f 250/8/4 286/8/4 306/8/4 270/8/4
f 262/12/5 261/11/5 302/11/5 301/12/5
f 251/2/4 284/2/4 304/2/4 271/2/4
f 263/9/4 243/9/4 300/9/4 320/9/4
f 271/2/5 304/2/5 303/1/5 272/1/5
f 279/3/2 317/3/2 297/3/2 259/3/2
f 260/10/2 280/10/2 319/10/2 299/10/2
f 270/8/5 306/8/5 305/7/5 273/7/5
f 244/4/4 298/4/4 318/4/4 264/4/4
f 261/11/4 241/11/4 282/11/4 302/11/4
f 269/16/5 308/16/5 307/15/5 274/15/5
