# Blender 4.5.5 LTS
# www.blender.org
o V_Section_3_floor_001
v -4.449999 30.829628 1.494095
v -4.349999 30.829628 1.494095
v 4.350000 30.829628 1.494095
v 4.450000 30.829628 1.494095
v 4.450000 32.329628 1.494095
v 4.350000 32.329628 1.494095
v -4.349999 32.329628 1.494095
v -4.449999 32.329628 1.494095
v -4.449999 33.551540 1.494095
v -4.449999 33.651539 1.494095
v -4.349999 33.551540 1.494095
v -4.349999 33.651539 1.494095
v 4.350000 33.551540 1.494095
v 4.350000 33.651539 1.494095
v 4.450000 33.551540 1.494095
v 4.450000 33.651539 1.494095
vn -0.0000 -0.0000 1.0000
vt 0.200000 0.000000
vt 0.400000 0.000000
vt 0.400000 0.500000
vt 0.200000 0.500000
vt 0.600000 0.000000
vt 0.800000 0.000000
vt 0.800000 0.500000
vt 0.600000 0.500000
vt 0.800000 0.666667
vt 0.600000 0.666667
vt 0.800000 0.833333
vt 0.600000 0.833333
vt 0.400000 0.666667
vt 0.400000 0.833333
vt 0.200000 0.666667
vt 0.200000 0.833333
s 0
f 1/1/1 2/2/1 7/3/1 8/4/1
f 3/5/1 4/6/1 5/7/1 6/8/1
f 6/8/1 5/7/1 15/9/1 13/10/1
f 13/10/1 15/9/1 16/11/1 14/12/1
f 11/13/1 13/10/1 14/12/1 12/14/1
f 8/4/1 7/3/1 11/13/1 9/15/1
f 9/15/1 11/13/1 12/14/1 10/16/1
