# Blender 4.5.5 LTS
# www.blender.org
o V_Section_1_END_BK
v -5.000000 -1.000000 0.000000
v 5.000000 -1.000000 0.000000
v -5.000000 1.000000 0.000000
v 5.000000 1.000000 0.000000
v -4.900000 -0.900000 0.000000
v 4.900000 -0.900000 0.000000
v 4.900000 0.900000 0.000000
v -5.000000 -1.000000 -1.000000
v 5.000000 -1.000000 -1.000000
v -5.000000 1.000000 -1.000000
v 5.000000 1.000000 -1.000000
v 5.000000 -5.829629 -1.294095
v -5.000000 -1.000000 0.000000
v 5.000000 -1.000000 0.000000
v -5.000000 -1.000000 -2.294095
v 5.000000 -5.829629 -2.294095
v 5.000000 -1.000000 -2.294095
v -5.000000 -6.329629 -1.294095
v 5.000000 -6.329629 -1.294095
v -5.000000 -5.829629 -1.294095
v -5.000000 -6.329629 -2.294095
v 5.000000 -6.329629 -2.294095
v -5.000000 -5.829629 -2.294095
v -5.500000 -1.000000 -0.000000
v -5.500000 -1.000000 1.200000
v -5.500000 -0.500000 -0.000000
v -5.500000 -0.500000 1.200000
v -5.000000 -1.000000 -0.000000
v -5.300000 -1.000000 1.200000
v -5.000000 -0.500000 -0.000000
v -5.300000 -0.500000 1.200000
v -5.500000 0.607686 -0.000000
v -5.000000 0.607686 -0.000000
v -5.500000 -1.310583 1.159111
v -5.300000 -1.310583 1.159111
v -5.500000 -0.392314 1.200000
v -5.500000 0.607686 0.200000
v -5.500000 -0.133495 1.165926
v -5.500000 0.107686 1.066025
v -5.500000 0.314793 0.907107
v -5.500000 0.473711 0.700000
v -5.500000 0.573612 0.458819
v -5.050000 0.607686 0.200000
v -5.300000 -0.392314 1.200000
v -5.114705 0.573612 0.458819
v -5.175000 0.473711 0.700000
v -5.226777 0.314793 0.907107
v -5.266506 0.107686 1.066025
v -5.291481 -0.133495 1.165926
v 5.500000 -1.000000 0.000000
v 5.500000 -1.000000 1.200000
v 5.500000 -0.500000 0.000000
v 5.500000 -0.500000 1.200000
v 5.000000 -1.000000 0.000000
v 5.300000 -1.000000 1.200000
v 5.000000 -0.500000 0.000000
v 5.300000 -0.500000 1.200000
v 5.500000 0.607686 0.000000
v 5.000000 0.607686 0.000000
v 5.500000 -1.310583 1.159111
v 5.300000 -1.310583 1.159111
v 5.500000 -0.392314 1.200000
v 5.500000 0.607686 0.200000
v 5.500000 -0.133495 1.165926
v 5.500000 0.107686 1.066025
v 5.500000 0.314793 0.907107
v 5.500000 0.473711 0.700000
v 5.500000 0.573612 0.458819
v 5.050000 0.607686 0.200000
v 5.300000 -0.392314 1.200000
v 5.114705 0.573612 0.458819
v 5.175000 0.473711 0.700000
v 5.226777 0.314793 0.907107
v 5.266506 0.107686 1.066025
v 5.291481 -0.133495 1.165926
v -4.800000 0.800000 0.000000
v -4.800000 -0.800000 0.000000
v 4.800000 -0.800000 0.000000
v 4.800000 0.800000 0.000000
v -4.900000 0.900000 0.000000
vn -0.0000 -0.0000 1.0000
vn -1.0000 -0.0000 -0.0000
vn 1.0000 -0.0000 -0.0000
vn -0.0000 1.0000 -0.0000
vn -0.0000 -0.2588 0.9659
vn -0.0000 -1.0000 -0.0000
vn -0.0000 -0.1305 0.9914
vn -0.0000 0.0654 0.9979
vn 0.9701 -0.0000 0.2425
vn -0.0000 0.9985 0.0552
vn -0.0000 -0.9659 -0.2588
vn 0.9696 -0.0319 0.2424
vn -0.0000 0.0661 0.9978
vn -0.0000 0.2588 0.9659
vn -0.0000 0.2639 0.9646
vn -0.0000 0.5000 0.8660
vn -0.0000 0.5088 0.8609
vn -0.0000 0.7071 0.7071
vn -0.0000 0.7172 0.6969
vn -0.0000 0.8660 0.5000
vn -0.0000 0.8747 0.4847
vn -0.0000 0.9659 0.2588
vn -0.0000 0.9708 0.2398
vn -0.0000 0.9979 0.0654
vn -0.9701 -0.0000 0.2425
vn -0.9696 -0.0319 0.2424
vt 0.698413 0.896166
vt 0.566881 0.106967
vt 0.698414 0.106967
vt 0.558660 0.098746
vt 0.714856 0.090525
vt 0.706635 0.098746
vt 0.714855 0.912608
vt 0.706634 0.904387
vt 0.550438 0.912608
vt 0.558659 0.904387
vt 0.550439 0.090525
vt 0.714856 0.008317
vt 0.550438 0.994816
vt 0.468231 0.090525
vt 0.110612 0.159436
vt 0.451596 0.841405
vt 0.110612 0.841405
vt 0.411104 0.008317
vt 0.451596 0.159436
vt 0.411104 0.992524
vt 0.076514 0.159436
vt 0.076514 0.841405
vt 0.076514 0.909601
vt 0.008317 0.159436
vt 0.110612 0.091239
vt 0.771588 0.479663
vt 0.763800 0.455362
vt 0.782286 0.465275
vt 0.816766 0.119521
vt 0.829910 0.110373
vt 0.830775 0.117916
vt 0.812848 0.095190
vt 0.816226 0.112116
vt 0.731489 0.119521
vt 0.752326 0.008317
vt 0.749404 0.043980
vt 0.735011 0.041663
vt 0.740540 0.383036
vt 0.782286 0.380144
vt 0.731489 0.462658
vt 0.752405 0.462287
vt 0.826864 0.091762
vt 0.820847 0.073189
vt 0.805818 0.079741
vt 0.811261 0.055568
vt 0.795315 0.066458
vt 0.798328 0.039828
vt 0.781988 0.055979
vt 0.782827 0.026525
vt 0.766568 0.048517
vt 0.765737 0.015575
vt 0.733813 0.527587
vt 0.731489 0.509936
vt 0.807030 0.496297
vt 0.749976 0.339210
vt 0.742187 0.363511
vt 0.731489 0.349123
vt 0.732353 0.238211
vt 0.745498 0.247359
vt 0.731489 0.245754
vt 0.812860 0.171818
vt 0.827253 0.169501
vt 0.830775 0.247359
vt 0.809938 0.136155
vt 0.796527 0.143413
vt 0.773235 0.266884
vt 0.731489 0.263992
vt 0.782286 0.346506
vt 0.761370 0.346135
vt 0.735400 0.219600
vt 0.746038 0.239953
vt 0.741416 0.201026
vt 0.749416 0.223028
vt 0.751003 0.183406
vt 0.756446 0.207579
vt 0.763936 0.167666
vt 0.766949 0.194296
vt 0.779436 0.154363
vt 0.780276 0.183817
vt 0.795696 0.176355
vt 0.756484 0.674279
vt 0.738833 0.676603
vt 0.731489 0.594766
vt 0.566880 0.896166
vt 0.550439 0.008317
vt 0.714855 0.994816
vt 0.468230 0.912608
vt 0.092962 0.093563
vt 0.092962 0.907278
vt 0.110612 0.909601
vt 0.008317 0.841405
vt 0.076514 0.091239
vt 0.731489 0.496296
vt 0.807030 0.578133
vt 0.799686 0.578133
vt 0.782035 0.575809
vt 0.765588 0.568996
vt 0.751463 0.558158
vt 0.740626 0.544034
vt 0.731489 0.676603
vt 0.807030 0.594766
vt 0.807030 0.608406
vt 0.804706 0.626056
vt 0.797893 0.642504
vt 0.787055 0.656628
vt 0.772931 0.667466
s 0
f 78/1/1 76/2/1 77/3/1
f 80/4/1 1/5/1 5/6/1
f 5/6/1 2/7/1 6/8/1
f 6/8/1 4/9/1 7/10/1
f 7/10/1 3/11/1 80/4/1
f 3/11/2 8/12/2 1/5/2
f 2/7/3 11/13/3 4/9/3
f 4/9/4 10/14/4 3/11/4
f 12/15/5 13/16/5 20/17/5
f 12/15/3 17/18/3 14/19/3
f 15/20/2 20/17/2 13/16/2
f 19/21/1 20/17/1 18/22/1
f 20/17/2 21/23/2 18/22/2
f 18/22/6 22/24/6 19/21/6
f 19/21/3 16/25/3 12/15/3
s 1
f 25/26/7 35/27/7 29/28/7
f 31/29/1 36/30/8 27/31/1
f 49/32/9 44/33/9 30/34/9
f 32/35/4 43/36/10 33/37/4
f 35/27/11 24/38/11 28/39/11
f 28/39/12 29/28/12 35/27/12
f 25/40/2 24/38/2 34/41/2
f 44/33/13 38/42/14 36/30/8
f 49/32/15 39/43/16 38/42/14
f 48/44/17 40/45/18 39/43/16
f 47/46/19 41/47/20 40/45/18
f 46/48/21 42/49/22 41/47/20
f 45/50/23 37/51/24 42/49/22
f 42/52/2 37/53/2 26/54/2
f 61/55/7 51/56/7 55/57/7
f 62/58/8 57/59/1 53/60/1
f 69/61/25 59/62/25 56/63/25
f 58/64/4 69/61/10 63/65/24
f 50/66/11 61/55/11 54/67/11
f 54/67/26 61/55/26 55/57/26
f 51/68/3 60/69/3 50/66/3
f 64/70/14 70/71/13 62/58/8
f 65/72/16 75/73/15 64/70/14
f 66/74/18 74/75/17 65/72/16
f 67/76/20 73/77/19 66/74/18
f 68/78/22 72/79/21 67/76/20
f 63/65/24 71/80/23 68/78/22
f 64/81/3 62/82/3 52/83/3
s 0
f 76/2/1 5/6/1 77/3/1
f 77/3/1 6/8/1 78/1/1
f 78/1/1 7/10/1 79/84/1
f 79/84/1 80/4/1 76/2/1
f 78/1/1 79/84/1 76/2/1
f 80/4/1 3/11/1 1/5/1
f 5/6/1 1/5/1 2/7/1
f 6/8/1 2/7/1 4/9/1
f 7/10/1 4/9/1 3/11/1
f 3/11/2 10/85/2 8/12/2
f 2/7/3 9/86/3 11/13/3
f 4/9/4 11/87/4 10/14/4
f 12/15/5 14/19/5 13/16/5
f 12/15/3 16/88/3 17/18/3
f 15/20/2 23/89/2 20/17/2
f 19/21/1 12/15/1 20/17/1
f 20/17/2 23/90/2 21/23/2
f 18/22/6 21/91/6 22/24/6
f 19/21/3 22/92/3 16/25/3
s 1
f 25/26/7 34/41/7 35/27/7
f 31/29/1 44/33/13 36/30/8
f 44/33/9 31/29/9 30/34/9
f 30/34/9 33/37/9 43/36/9
f 43/36/9 45/50/9 30/34/9
f 45/50/9 46/48/9 30/34/9
f 46/48/9 47/46/9 30/34/9
f 47/46/9 48/44/9 30/34/9
f 48/44/9 49/32/9 30/34/9
f 32/35/4 37/51/24 43/36/10
f 35/27/11 34/41/11 24/38/11
f 44/33/13 49/32/15 38/42/14
f 49/32/15 48/44/17 39/43/16
f 48/44/17 47/46/19 40/45/18
f 47/46/19 46/48/21 41/47/20
f 46/48/21 45/50/23 42/49/22
f 45/50/23 43/36/10 37/51/24
f 32/93/2 26/54/2 37/53/2
f 26/54/2 27/94/2 36/95/2
f 38/96/2 26/54/2 36/95/2
f 38/96/2 39/97/2 26/54/2
f 39/97/2 40/98/2 26/54/2
f 40/98/2 41/99/2 26/54/2
f 41/99/2 42/52/2 26/54/2
f 61/55/7 60/69/7 51/56/7
f 62/58/8 70/71/13 57/59/1
f 56/63/25 57/59/25 70/71/25
f 70/71/25 75/73/25 56/63/25
f 75/73/25 74/75/25 56/63/25
f 74/75/25 73/77/25 56/63/25
f 73/77/25 72/79/25 56/63/25
f 72/79/25 71/80/25 56/63/25
f 71/80/25 69/61/25 56/63/25
f 58/64/4 59/62/4 69/61/10
f 50/66/11 60/69/11 61/55/11
f 64/70/14 75/73/15 70/71/13
f 65/72/16 74/75/17 75/73/15
f 66/74/18 73/77/19 74/75/17
f 67/76/20 72/79/21 73/77/19
f 68/78/22 71/80/23 72/79/21
f 63/65/24 69/61/10 71/80/23
f 53/100/3 52/83/3 62/82/3
f 52/83/3 58/101/3 63/102/3
f 68/103/3 52/83/3 63/102/3
f 68/103/3 67/104/3 52/83/3
f 67/104/3 66/105/3 52/83/3
f 66/105/3 65/106/3 52/83/3
f 65/106/3 64/81/3 52/83/3
s 0
f 76/2/1 80/4/1 5/6/1
f 77/3/1 5/6/1 6/8/1
f 78/1/1 6/8/1 7/10/1
f 79/84/1 7/10/1 80/4/1
