# Blender 4.5.5 LTS
# www.blender.org
o V_Section_1_SLOP_005
v -5.000000 21.079628 2.294095
v 5.000000 21.079628 2.294095
v -5.000000 21.329628 2.294095
v 5.000000 21.329628 2.294095
v 5.000000 21.079628 0.294096
v -5.000000 21.079628 0.294096
v -5.000000 21.329628 0.294096
v 5.000000 21.329628 0.294096
vn -0.0000 -0.0000 1.0000
vn -0.0000 -0.0000 -1.0000
vn -1.0000 -0.0000 -0.0000
vn -0.0000 1.0000 -0.0000
vn -0.0000 -1.0000 -0.0000
vn 1.0000 -0.0000 -0.0000
vt 0.000000 0.964286
vt 1.000000 0.964286
vt 1.000000 1.000000
vt 0.000000 1.000000
s 0
f 1/1/1 2/2/1 4/3/1 3/4/1
f 6/1/2 7/4/2 8/3/2 5/2/2
f 3/4/3 7/4/3 6/1/3 1/1/3
f 4/3/4 8/3/4 7/4/4 3/4/4
f 1/1/5 6/1/5 5/2/5 2/2/5
f 2/2/6 5/2/6 8/3/6 4/3/6
