# Blender 4.5.5 LTS
# www.blender.org
o V_stepblock_outline
v -0.510960 3.991917 0.952076
v -4.530960 3.991916 0.952076
v -4.530960 5.991916 -0.547924
v -0.510960 5.991917 -0.547924
v -4.530960 -3.008082 0.952076
v -0.510960 -3.008082 0.952076
v -0.510960 -5.008082 -0.547924
v -4.530960 -5.008082 -0.547924
v 5.489040 -3.008081 0.452076
v 5.489040 -5.008082 -0.597924
v 5.489040 3.991918 0.452076
v 5.489040 5.991919 -0.597924
v 5.489040 5.991919 -1.547924
v 5.489040 3.991918 -1.547924
v 5.489040 -5.008082 -1.547924
v 5.489040 -3.008081 -1.547924
v -4.530960 -5.008082 -1.547924
v -0.510960 -5.008082 -1.547924
v -4.530960 -3.008082 -1.547924
v -0.510960 -3.008082 -1.547924
v -0.510960 5.991917 -1.547924
v -4.530960 5.991916 -1.547924
v -0.510960 3.991917 -1.547924
v -4.530960 3.991916 -1.547924
v -4.530960 3.991917 0.952076
v -0.510960 3.991917 0.952076
v -4.530960 3.991917 -1.547924
v -0.510960 3.991917 -1.547924
v -4.530960 -3.008082 0.952076
v -0.510960 -3.008082 0.952076
v -4.530960 -3.008082 -1.547924
v -0.510960 -3.008082 -1.547924
v -4.530939 3.391263 0.952076
v -4.121614 2.981938 0.952076
v -4.516990 3.285801 0.952076
v -4.476030 3.186917 0.952076
v -4.410874 3.102003 0.952076
v -4.325960 3.036846 0.952076
v -4.227076 2.995887 0.952076
v -0.920306 2.981938 0.952076
v -0.510981 3.391263 0.952076
v -0.814844 2.995887 0.952076
v -0.715960 3.036846 0.952076
v -0.631046 3.102003 0.952076
v -0.565890 3.186916 0.952076
v -0.524930 3.285801 0.952076
v -4.121614 2.981938 -1.547924
v -4.530939 3.391263 -1.547924
v -4.227076 2.995887 -1.547924
v -4.325960 3.036846 -1.547924
v -4.410874 3.102003 -1.547924
v -4.476030 3.186917 -1.547924
v -4.516990 3.285801 -1.547924
v -0.510981 3.391263 -1.547924
v -0.920306 2.981938 -1.547924
v -0.524930 3.285801 -1.547924
v -0.565890 3.186916 -1.547924
v -0.631046 3.102003 -1.547924
v -0.715960 3.036846 -1.547924
v -0.814844 2.995887 -1.547924
v -4.121614 -1.998104 0.952076
v -4.530939 -2.407429 0.952076
v -4.227076 -2.012052 0.952076
v -4.325960 -2.053011 0.952076
v -4.410874 -2.118168 0.952076
v -4.476030 -2.203082 0.952076
v -4.516990 -2.301966 0.952076
v -0.510982 -2.407429 0.952076
v -0.920306 -1.998104 0.952076
v -0.524931 -2.301966 0.952076
v -0.565890 -2.203082 0.952076
v -0.631046 -2.118168 0.952076
v -0.715960 -2.053011 0.952076
v -0.814844 -2.012052 0.952076
v -4.530939 -2.407429 -1.547924
v -4.121614 -1.998104 -1.547924
v -4.516990 -2.301966 -1.547924
v -4.476030 -2.203082 -1.547924
v -4.410874 -2.118168 -1.547924
v -4.325960 -2.053011 -1.547924
v -4.227076 -2.012052 -1.547924
v -0.920306 -1.998104 -1.547924
v -0.510982 -2.407429 -1.547924
v -0.814844 -2.012052 -1.547924
v -0.715960 -2.053011 -1.547924
v -0.631046 -2.118168 -1.547924
v -0.565890 -2.203082 -1.547924
v -0.524931 -2.301966 -1.547924
v -0.520960 3.991917 0.952076
v -4.520960 3.991916 0.952076
v -4.520960 5.991916 -0.547924
v -0.520960 5.991917 -0.547924
v -4.520960 -3.008082 0.952076
v -0.520960 -3.008082 0.952076
v -0.520960 -5.008082 -0.547924
v -4.520960 -5.008082 -0.547924
v 5.479040 -3.008081 0.452076
v 5.479040 -5.008082 -0.597924
v 5.479040 3.991918 0.452076
v 5.479040 5.991919 -0.597924
v 5.479040 5.991919 -1.547924
v 5.479040 3.991918 -1.547924
v 5.479040 -5.008082 -1.547924
v 5.479040 -3.008081 -1.547924
v -4.520960 -5.008082 -1.547924
v -0.520960 -5.008082 -1.547924
v -4.520960 -3.008082 -1.547924
v -0.520960 -3.008082 -1.547924
v -0.520960 5.991917 -1.547924
v -4.520960 5.991916 -1.547924
v -0.520960 3.991917 -1.547924
v -4.520960 3.991916 -1.547924
v -4.520960 3.991917 0.952076
v -0.520960 3.991917 0.952076
v -4.520960 3.991917 -1.547924
v -0.520960 3.991917 -1.547924
v -4.520960 -3.008082 0.952076
v -0.520960 -3.008082 0.952076
v -4.520960 -3.008082 -1.547924
v -0.520960 -3.008082 -1.547924
v -4.520960 3.391917 0.952076
v -4.120960 2.991917 0.952076
v -4.507330 3.288389 0.952076
v -4.467370 3.191917 0.952076
v -4.403803 3.109074 0.952076
v -4.320960 3.045506 0.952076
v -4.224487 3.005546 0.952076
v -0.920960 2.991917 0.952076
v -0.520960 3.391917 0.952076
v -0.817432 3.005546 0.952076
v -0.720960 3.045506 0.952076
v -0.638117 3.109074 0.952076
v -0.574550 3.191916 0.952076
v -0.534590 3.288389 0.952076
v -4.120960 2.991917 -1.547924
v -4.520960 3.391917 -1.547924
v -4.224487 3.005546 -1.547924
v -4.320960 3.045506 -1.547924
v -4.403803 3.109074 -1.547924
v -4.467370 3.191917 -1.547924
v -4.507330 3.288389 -1.547924
v -0.520960 3.391917 -1.547924
v -0.920960 2.991917 -1.547924
v -0.534590 3.288389 -1.547924
v -0.574550 3.191916 -1.547924
v -0.638117 3.109074 -1.547924
v -0.720960 3.045506 -1.547924
v -0.817432 3.005546 -1.547924
v -4.120960 -2.008082 0.952076
v -4.520960 -2.408082 0.952076
v -4.224487 -2.021711 0.952076
v -4.320960 -2.061672 0.952076
v -4.403803 -2.125239 0.952076
v -4.467370 -2.208082 0.952076
v -4.507330 -2.304554 0.952076
v -0.520960 -2.408082 0.952076
v -0.920960 -2.008082 0.952076
v -0.534590 -2.304554 0.952076
v -0.574550 -2.208082 0.952076
v -0.638117 -2.125239 0.952076
v -0.720960 -2.061672 0.952076
v -0.817432 -2.021711 0.952076
v -4.520960 -2.408082 -1.547924
v -4.120960 -2.008082 -1.547924
v -4.507330 -2.304554 -1.547924
v -4.467370 -2.208082 -1.547924
v -4.403803 -2.125239 -1.547924
v -4.320960 -2.061672 -1.547924
v -4.224487 -2.021711 -1.547924
v -0.920960 -2.008082 -1.547924
v -0.520960 -2.408082 -1.547924
v -0.817432 -2.021711 -1.547924
v -0.720960 -2.061672 -1.547924
v -0.638117 -2.125239 -1.547924
v -0.574550 -2.208082 -1.547924
v -0.534590 -2.304554 -1.547924
vn -1.0000 -0.0000 -0.0000
vn 1.0000 -0.0000 -0.0000
vn -0.0000 -1.0000 -0.0000
vn -0.0000 1.0000 -0.0000
vn -0.9914 -0.1311 -0.0000
vn -0.9239 -0.3827 -0.0000
vn -0.7934 -0.6088 -0.0000
vn -0.6088 -0.7934 -0.0000
vn -0.3827 -0.9239 -0.0000
vn -0.1311 -0.9914 -0.0000
vn 0.1311 -0.9914 -0.0000
vn 0.3827 -0.9239 -0.0000
vn 0.6088 -0.7934 -0.0000
vn 0.7934 -0.6088 -0.0000
vn 0.9239 -0.3827 -0.0000
vn 0.9914 -0.1311 -0.0000
vn -0.1311 0.9914 -0.0000
vn -0.3827 0.9239 -0.0000
vn -0.6088 0.7934 -0.0000
vn -0.7934 0.6088 -0.0000
vn -0.9239 0.3827 -0.0000
vn -0.9914 0.1311 -0.0000
vn 0.9914 0.1311 -0.0000
vn 0.9239 0.3827 -0.0000
vn 0.7934 0.6088 -0.0000
vn 0.6088 0.7934 -0.0000
vn 0.3827 0.9239 -0.0000
vn 0.1311 0.9914 -0.0000
vn 0.9914 0.1305 -0.0000
vn 0.1305 0.9914 -0.0000
vn -0.1305 0.9914 -0.0000
vn -0.9914 0.1305 -0.0000
vn 0.1305 -0.9914 -0.0000
vn 0.9914 -0.1305 -0.0000
vn -0.9914 -0.1305 -0.0000
vn -0.1305 -0.9914 -0.0000
vn -0.0000 -0.0000 -1.0000
vn -0.0000 -0.4648 0.8854
vn -0.0000 -0.6000 0.8000
vn -0.0000 0.6000 0.8000
vn -0.0000 0.4648 0.8854
vn -0.0000 -0.0000 1.0000
vt 0.229713 0.102041
vt 0.365767 -0.000000
vt 0.365767 0.170068
vt 0.229713 0.170068
vt 0.365764 0.411564
vt 0.365764 0.476190
vt 0.229713 0.476190
vt 0.229713 0.340136
vt 0.000000 0.416537
vt 0.136051 0.345108
vt 0.136051 0.481163
vt 0.000000 0.481163
vt 0.136054 0.277081
vt 0.136054 0.345108
vt 0.000000 0.345108
vt 0.000000 0.175041
vt 0.501815 0.170068
vt 0.501815 0.340136
vt 0.365764 0.340136
vt 0.365764 0.272108
vt 0.229713 0.170068
vt 0.161686 0.644908
vt 0.161686 0.427244
vt 0.229713 0.427244
vt 0.229713 0.644908
vt 0.289824 0.609999
vt 0.330640 0.609999
vt 0.330640 0.678026
vt 0.289824 0.678026
vt 0.229713 0.609999
vt 0.270529 0.609999
vt 0.270529 0.678026
vt 0.229713 0.678026
vt 0.569842 0.407001
vt 0.569842 0.189315
vt 0.637869 0.189315
vt 0.637869 0.407001
vt 0.454124 0.612244
vt 0.494939 0.612244
vt 0.494939 0.680271
vt 0.454124 0.680271
vt 0.521051 0.611110
vt 0.521051 0.679137
vt 0.514009 0.679137
vt 0.514009 0.611110
vt 0.507448 0.679137
vt 0.507448 0.611110
vt 0.501815 0.679137
vt 0.501815 0.611110
vt 0.161686 0.408120
vt 0.229713 0.408120
vt 0.229713 0.413692
vt 0.161686 0.413692
vt 0.229713 0.420215
vt 0.161686 0.420215
vt 0.229713 0.651963
vt 0.161686 0.651963
vt 0.229713 0.658565
vt 0.161686 0.658565
vt 0.229713 0.664262
vt 0.161686 0.664262
vt 0.289824 0.609999
vt 0.289824 0.678026
vt 0.284159 0.678026
vt 0.284159 0.609999
vt 0.277577 0.678026
vt 0.277577 0.609999
vt 0.637869 0.414043
vt 0.569842 0.414043
vt 0.637869 0.420604
vt 0.569842 0.420604
vt 0.637869 0.426236
vt 0.569842 0.426236
vt 0.349886 0.609999
vt 0.349886 0.678026
vt 0.344248 0.678026
vt 0.344248 0.609999
vt 0.337684 0.678026
vt 0.337684 0.609999
vt 0.447088 0.680271
vt 0.447088 0.612244
vt 0.440544 0.680271
vt 0.440544 0.612244
vt 0.434939 0.680271
vt 0.434939 0.612244
vt 0.569842 0.170068
vt 0.637869 0.170068
vt 0.637869 0.175706
vt 0.569842 0.175706
vt 0.637869 0.182271
vt 0.569842 0.182271
vt 0.561867 0.611110
vt 0.561867 0.679137
s 0
f 8/1/1 5/2/1 19/3/1 17/4/1
f 10/5/2 15/6/2 16/7/2 9/8/2
f 12/9/2 11/10/2 14/11/2 13/12/2
f 3/13/1 22/14/1 24/15/1 2/16/1
f 1/17/2 23/18/2 21/19/2 4/20/2
f 6/21/2 7/20/2 18/19/2 20/8/2
f 40/22/3 34/23/3 47/24/3 55/25/3
f 29/26/1 62/27/1 75/28/1 31/29/1
f 26/30/2 41/31/2 54/32/2 28/33/2
f 61/34/4 69/35/4 82/36/4 76/37/4
f 68/38/2 30/39/2 32/40/2 83/41/2
f 33/42/5 48/43/5 53/44/5 35/45/5
f 35/45/6 53/44/6 52/46/6 36/47/6
f 36/47/7 52/46/7 51/48/7 37/49/7
f 37/50/8 51/51/8 50/52/8 38/53/8
f 38/53/9 50/52/9 49/54/9 39/55/9
f 39/55/10 49/54/10 47/24/10 34/23/10
f 40/22/11 55/25/11 60/56/11 42/57/11
f 42/57/12 60/56/12 59/58/12 43/59/12
f 43/59/13 59/58/13 58/60/13 44/61/13
f 44/62/14 58/63/14 57/64/14 45/65/14
f 45/65/15 57/64/15 56/66/15 46/67/15
f 46/67/16 56/66/16 54/32/16 41/31/16
f 61/34/17 76/37/17 81/68/17 63/69/17
f 63/69/18 81/68/18 80/70/18 64/71/18
f 64/71/19 80/70/19 79/72/19 65/73/19
f 65/74/20 79/75/20 78/76/20 66/77/20
f 66/77/21 78/76/21 77/78/21 67/79/21
f 67/79/22 77/78/22 75/28/22 62/27/22
f 68/38/23 83/41/23 88/80/23 70/81/23
f 70/81/24 88/80/24 87/82/24 71/83/24
f 71/83/25 87/82/25 86/84/25 72/85/25
f 72/86/26 86/87/26 85/88/26 73/89/26
f 73/89/27 85/88/27 84/90/27 74/91/27
f 74/91/28 84/90/28 82/36/28 69/35/28
f 33/42/1 25/92/1 27/93/1 48/43/1
f 96/1/2 105/4/2 107/3/2 93/2/2
f 98/5/1 97/8/1 104/7/1 103/6/1
f 100/9/1 101/12/1 102/11/1 99/10/1
f 91/13/2 90/16/2 112/15/2 110/14/2
f 89/17/1 92/20/1 109/19/1 111/18/1
f 94/21/1 108/8/1 106/19/1 95/20/1
f 128/22/4 143/25/4 135/24/4 122/23/4
f 117/26/2 119/29/2 163/28/2 150/27/2
f 114/30/1 116/33/1 142/32/1 129/31/1
f 149/34/3 164/37/3 170/36/3 157/35/3
f 156/38/1 171/41/1 120/40/1 118/39/1
f 121/42/29 123/45/29 141/44/29 136/43/29
f 123/45/24 124/47/24 140/46/24 141/44/24
f 124/47/25 125/49/25 139/48/25 140/46/25
f 125/50/26 126/53/26 138/52/26 139/51/26
f 126/53/27 127/55/27 137/54/27 138/52/27
f 127/55/30 122/23/30 135/24/30 137/54/30
f 128/22/31 130/57/31 148/56/31 143/25/31
f 130/57/18 131/59/18 147/58/18 148/56/18
f 131/59/19 132/61/19 146/60/19 147/58/19
f 132/62/20 133/65/20 145/64/20 146/63/20
f 133/65/21 134/67/21 144/66/21 145/64/21
f 134/67/32 129/31/32 142/32/32 144/66/32
f 149/34/33 151/69/33 169/68/33 164/37/33
f 151/69/12 152/71/12 168/70/12 169/68/12
f 152/71/13 153/73/13 167/72/13 168/70/13
f 153/74/14 154/77/14 166/76/14 167/75/14
f 154/77/15 155/79/15 165/78/15 166/76/15
f 155/79/34 150/27/34 163/28/34 165/78/34
f 156/38/35 158/81/35 176/80/35 171/41/35
f 158/81/6 159/83/6 175/82/6 176/80/6
f 159/83/7 160/85/7 174/84/7 175/82/7
f 160/86/8 161/89/8 173/88/8 174/87/8
f 161/89/9 162/91/9 172/90/9 173/88/9
f 162/91/36 157/35/36 170/36/36 172/90/36
f 121/42/2 136/43/2 115/93/2 113/92/2
f 14/11/3 11/10/3 99/10/3 102/11/3
f 12/9/4 13/12/4 101/12/4 100/9/4
f 22/14/4 3/13/4 91/13/4 110/14/4
f 9/8/4 16/7/4 104/7/4 97/8/4
f 4/20/4 21/19/4 109/19/4 92/20/4
f 15/6/3 10/5/3 98/5/3 103/6/3
f 6/21/4 20/8/4 108/8/4 94/21/4
f 18/19/3 7/20/3 95/20/3 106/19/3
f 8/1/3 17/4/3 105/4/3 96/1/3
f 19/3/4 5/2/4 93/2/4 107/3/4
f 2/16/3 24/15/3 112/15/3 90/16/3
f 23/18/3 1/17/3 89/17/3 111/18/3
f 13/12/37 14/11/37 102/11/37 101/12/37
f 24/15/37 22/14/37 110/14/37 112/15/37
f 21/19/37 23/18/37 111/18/37 109/19/37
f 20/8/37 18/19/37 106/19/37 108/8/37
f 17/4/37 19/3/37 107/3/37 105/4/37
f 16/7/37 15/6/37 103/6/37 104/7/37
f 10/5/38 9/8/38 97/8/38 98/5/38
f 5/2/39 8/1/39 96/1/39 93/2/39
f 7/20/39 6/21/39 94/21/39 95/20/39
f 1/17/40 4/20/40 92/20/40 89/17/40
f 3/13/40 2/16/40 90/16/40 91/13/40
f 11/10/41 12/9/41 100/9/41 99/10/41
f 27/93/4 25/92/4 113/92/4 115/93/4
f 26/30/4 28/33/4 116/33/4 114/30/4
f 29/26/3 31/29/3 119/29/3 117/26/3
f 32/40/3 30/39/3 118/39/3 120/40/3
f 33/42/42 35/45/42 123/45/42 121/42/42
f 53/44/37 48/43/37 136/43/37 141/44/37
f 35/45/42 36/47/42 124/47/42 123/45/42
f 52/46/37 53/44/37 141/44/37 140/46/37
f 36/47/42 37/49/42 125/49/42 124/47/42
f 51/48/37 52/46/37 140/46/37 139/48/37
f 37/50/42 38/53/42 126/53/42 125/50/42
f 50/52/37 51/51/37 139/51/37 138/52/37
f 38/53/42 39/55/42 127/55/42 126/53/42
f 49/54/37 50/52/37 138/52/37 137/54/37
f 39/55/42 34/23/42 122/23/42 127/55/42
f 47/24/37 49/54/37 137/54/37 135/24/37
f 40/22/42 42/57/42 130/57/42 128/22/42
f 60/56/37 55/25/37 143/25/37 148/56/37
f 42/57/42 43/59/42 131/59/42 130/57/42
f 59/58/37 60/56/37 148/56/37 147/58/37
f 43/59/42 44/61/42 132/61/42 131/59/42
f 58/60/37 59/58/37 147/58/37 146/60/37
f 44/62/42 45/65/42 133/65/42 132/62/42
f 57/64/37 58/63/37 146/63/37 145/64/37
f 45/65/42 46/67/42 134/67/42 133/65/42
f 56/66/37 57/64/37 145/64/37 144/66/37
f 46/67/42 41/31/42 129/31/42 134/67/42
f 54/32/37 56/66/37 144/66/37 142/32/37
f 61/34/42 63/69/42 151/69/42 149/34/42
f 81/68/37 76/37/37 164/37/37 169/68/37
f 63/69/42 64/71/42 152/71/42 151/69/42
f 80/70/37 81/68/37 169/68/37 168/70/37
f 64/71/42 65/73/42 153/73/42 152/71/42
f 79/72/37 80/70/37 168/70/37 167/72/37
f 65/74/42 66/77/42 154/77/42 153/74/42
f 78/76/37 79/75/37 167/75/37 166/76/37
f 66/77/42 67/79/42 155/79/42 154/77/42
f 77/78/37 78/76/37 166/76/37 165/78/37
f 67/79/42 62/27/42 150/27/42 155/79/42
f 75/28/37 77/78/37 165/78/37 163/28/37
f 68/38/42 70/81/42 158/81/42 156/38/42
f 88/80/37 83/41/37 171/41/37 176/80/37
f 70/81/42 71/83/42 159/83/42 158/81/42
f 87/82/37 88/80/37 176/80/37 175/82/37
f 71/83/42 72/85/42 160/85/42 159/83/42
f 86/84/37 87/82/37 175/82/37 174/84/37
f 72/86/42 73/89/42 161/89/42 160/86/42
f 85/88/37 86/87/37 174/87/37 173/88/37
f 73/89/42 74/91/42 162/91/42 161/89/42
f 84/90/37 85/88/37 173/88/37 172/90/37
f 74/91/42 69/35/42 157/35/42 162/91/42
f 82/36/37 84/90/37 172/90/37 170/36/37
f 25/92/42 33/42/42 121/42/42 113/92/42
f 48/43/37 27/93/37 115/93/37 136/43/37
f 34/23/42 40/22/42 128/22/42 122/23/42
f 41/31/42 26/30/42 114/30/42 129/31/42
f 55/25/37 47/24/37 135/24/37 143/25/37
f 28/33/37 54/32/37 142/32/37 116/33/37
f 62/27/42 29/26/42 117/26/42 150/27/42
f 31/29/37 75/28/37 163/28/37 119/29/37
f 30/39/42 68/38/42 156/38/42 118/39/42
f 69/35/42 61/34/42 149/34/42 157/35/42
f 76/37/37 82/36/37 170/36/37 164/37/37
f 83/41/37 32/40/37 120/40/37 171/41/37
