# Blender 4.5.5 LTS
# www.blender.org
o V_start-point_003
v -0.188833 0.468950 0.000000
v -0.280576 0.419912 0.000000
v -0.357106 0.357106 0.000000
v -0.419912 0.280576 0.000000
v -0.466581 0.193264 0.000000
v -0.496779 0.093717 0.000000
v -0.496779 -0.093717 0.000000
v -0.466581 -0.193264 0.000000
v -0.419912 -0.280576 0.000000
v -0.357106 -0.357106 0.000000
v -0.280576 -0.419912 0.000000
v -0.188833 -0.468950 0.000000
v 0.188833 -0.468950 0.000000
v 0.280576 -0.419912 0.000000
v 0.357106 -0.357106 0.000000
v 0.419912 -0.280576 0.000000
v 0.466581 -0.193264 0.000000
v 0.496779 -0.093717 0.000000
v 0.496779 0.093717 0.000000
v 0.466581 0.193264 0.000000
v 0.419912 0.280576 0.000000
v 0.357106 0.357106 0.000000
v 0.280576 0.419912 0.000000
v 0.188833 0.468950 0.000000
v -0.052142 0.262134 0.000000
v 0.000000 0.267270 0.000000
v -0.102280 0.246925 0.000000
v -0.148487 0.222227 0.000000
v -0.188988 0.188988 0.000000
v -0.222227 0.148487 0.000000
v -0.246925 0.102280 0.000000
v -0.262134 0.052142 0.000000
v -0.267270 0.000000 0.000000
v -0.262134 -0.052142 0.000000
v -0.246925 -0.102280 0.000000
v -0.222227 -0.148487 0.000000
v -0.188988 -0.188988 0.000000
v -0.148487 -0.222227 0.000000
v -0.102280 -0.246925 0.000000
v -0.052142 -0.262134 0.000000
v 0.000000 -0.267270 0.000000
v 0.052142 -0.262134 0.000000
v 0.102280 -0.246925 0.000000
v 0.148487 -0.222227 0.000000
v 0.188988 -0.188988 0.000000
v 0.222227 -0.148487 0.000000
v 0.246925 -0.102280 0.000000
v 0.262134 -0.052142 0.000000
v 0.267270 0.000000 0.000000
v 0.262134 0.052142 0.000000
v 0.246925 0.102280 0.000000
v 0.222227 0.148487 0.000000
v 0.188988 0.188988 0.000000
v 0.148487 0.222227 0.000000
v 0.102280 0.246925 0.000000
v 0.052142 0.262134 0.000000
v -0.137619 0.345308 0.000000
v -0.206225 0.308637 0.000000
v -0.262474 0.262474 0.000000
v -0.308637 0.206225 0.000000
v -0.342939 0.142050 0.000000
v -0.365521 0.067609 0.000000
v -0.365521 -0.067609 0.000000
v -0.342939 -0.142050 0.000000
v -0.308637 -0.206225 0.000000
v -0.262474 -0.262474 0.000000
v -0.206225 -0.308637 0.000000
v -0.137619 -0.345308 0.000000
v 0.137619 -0.345308 0.000000
v 0.206225 -0.308637 0.000000
v 0.262474 -0.262474 0.000000
v 0.308637 -0.206225 0.000000
v 0.342939 -0.142050 0.000000
v 0.365521 -0.067609 0.000000
v 0.365521 0.067609 0.000000
v 0.342939 0.142050 0.000000
v 0.308637 0.206225 0.000000
v 0.262474 0.262474 0.000000
v 0.206225 0.308637 0.000000
v 0.137619 0.345308 0.000000
v -0.188833 0.468950 -0.100000
v -0.280576 0.419912 -0.100000
v -0.357106 0.357106 -0.100000
v -0.419912 0.280576 -0.100000
v -0.466581 0.193264 -0.100000
v -0.496779 0.093717 -0.100000
v -0.496779 -0.093717 -0.100000
v -0.466581 -0.193264 -0.100000
v -0.419912 -0.280576 -0.100000
v -0.357106 -0.357106 -0.100000
v -0.280576 -0.419912 -0.100000
v -0.188833 -0.468950 -0.100000
v 0.188833 -0.468950 -0.100000
v 0.280576 -0.419912 -0.100000
v 0.357106 -0.357106 -0.100000
v 0.419912 -0.280576 -0.100000
v 0.466581 -0.193264 -0.100000
v 0.496779 -0.093717 -0.100000
v 0.496779 0.093717 -0.100000
v 0.466581 0.193264 -0.100000
v 0.419912 0.280576 -0.100000
v 0.357106 0.357106 -0.100000
v 0.280576 0.419912 -0.100000
v 0.188833 0.468950 -0.100000
v -0.052142 0.262134 -0.100000
v 0.000000 0.267270 -0.100000
v -0.102280 0.246925 -0.100000
v -0.148487 0.222227 -0.100000
v -0.188988 0.188988 -0.100000
v -0.222227 0.148487 -0.100000
v -0.246925 0.102280 -0.100000
v -0.262134 0.052142 -0.100000
v -0.267270 0.000000 -0.100000
v -0.262134 -0.052142 -0.100000
v -0.246925 -0.102280 -0.100000
v -0.222227 -0.148487 -0.100000
v -0.188988 -0.188988 -0.100000
v -0.148487 -0.222227 -0.100000
v -0.102280 -0.246925 -0.100000
v -0.052142 -0.262134 -0.100000
v 0.000000 -0.267270 -0.100000
v 0.052142 -0.262134 -0.100000
v 0.102280 -0.246925 -0.100000
v 0.148487 -0.222227 -0.100000
v 0.188988 -0.188988 -0.100000
v 0.222227 -0.148487 -0.100000
v 0.246925 -0.102280 -0.100000
v 0.262134 -0.052142 -0.100000
v 0.267270 0.000000 -0.100000
v 0.262134 0.052142 -0.100000
v 0.246925 0.102280 -0.100000
v 0.222227 0.148487 -0.100000
v 0.188988 0.188988 -0.100000
v 0.148487 0.222227 -0.100000
v 0.102280 0.246925 -0.100000
v 0.052142 0.262134 -0.100000
v -0.137619 0.345308 -0.100000
v -0.206225 0.308637 -0.100000
v -0.262474 0.262474 -0.100000
v -0.308637 0.206225 -0.100000
v -0.342939 0.142050 -0.100000
v -0.365521 0.067609 -0.100000
v -0.365521 -0.067609 -0.100000
v -0.342939 -0.142050 -0.100000
v -0.308637 -0.206225 -0.100000
v -0.262474 -0.262474 -0.100000
v -0.206225 -0.308637 -0.100000
v -0.137619 -0.345308 -0.100000
v 0.137619 -0.345308 -0.100000
v 0.206225 -0.308637 -0.100000
v 0.262474 -0.262474 -0.100000
v 0.308637 -0.206225 -0.100000
v 0.342939 -0.142050 -0.100000
v 0.365521 -0.067609 -0.100000
v 0.365521 0.067609 -0.100000
v 0.342939 0.142050 -0.100000
v 0.308637 0.206225 -0.100000
v 0.262474 0.262474 -0.100000
v 0.206225 0.308637 -0.100000
v 0.137619 0.345308 -0.100000
v -0.191342 0.461940 0.000000
v -0.277785 0.415735 0.000000
v -0.353553 0.353553 0.000000
v -0.415735 0.277785 0.000000
v -0.461940 0.191342 0.000000
v -0.490393 0.097545 0.000000
v -0.490393 -0.097545 0.000000
v -0.461940 -0.191342 0.000000
v -0.415735 -0.277785 0.000000
v -0.353553 -0.353553 0.000000
v -0.277785 -0.415735 0.000000
v -0.191342 -0.461940 0.000000
v 0.191342 -0.461940 0.000000
v 0.277785 -0.415735 0.000000
v 0.353553 -0.353553 0.000000
v 0.415735 -0.277785 0.000000
v 0.461940 -0.191342 0.000000
v 0.490393 -0.097545 0.000000
v 0.490393 0.097545 0.000000
v 0.461940 0.191342 0.000000
v 0.415735 0.277785 0.000000
v 0.353553 0.353553 0.000000
v 0.277785 0.415735 0.000000
v 0.191342 0.461940 0.000000
v -0.051162 0.257207 0.000000
v 0.000000 0.262246 0.000000
v -0.100357 0.242283 0.000000
v -0.145696 0.218049 0.000000
v -0.185436 0.185436 0.000000
v -0.218049 0.145696 0.000000
v -0.242283 0.100357 0.000000
v -0.257207 0.051162 0.000000
v -0.262246 0.000000 0.000000
v -0.257207 -0.051162 0.000000
v -0.242283 -0.100357 0.000000
v -0.218049 -0.145696 0.000000
v -0.185436 -0.185436 0.000000
v -0.145696 -0.218049 0.000000
v -0.100357 -0.242283 0.000000
v -0.051162 -0.257207 0.000000
v 0.000000 -0.262246 0.000000
v 0.051162 -0.257207 0.000000
v 0.100357 -0.242283 0.000000
v 0.145696 -0.218049 0.000000
v 0.185436 -0.185436 0.000000
v 0.218049 -0.145696 0.000000
v 0.242283 -0.100357 0.000000
v 0.257207 -0.051162 0.000000
v 0.262246 0.000000 0.000000
v 0.257207 0.051162 0.000000
v 0.242283 0.100357 0.000000
v 0.218049 0.145696 0.000000
v 0.185436 0.185436 0.000000
v 0.145696 0.218049 0.000000
v 0.100357 0.242283 0.000000
v 0.051162 0.257207 0.000000
v -0.143973 0.347581 0.000000
v -0.209016 0.312815 0.000000
v -0.266027 0.266027 0.000000
v -0.312815 0.209016 0.000000
v -0.347581 0.143973 0.000000
v -0.368990 0.073397 0.000000
v -0.368990 -0.073397 0.000000
v -0.347581 -0.143973 0.000000
v -0.312815 -0.209016 0.000000
v -0.266027 -0.266027 0.000000
v -0.209016 -0.312815 0.000000
v -0.143973 -0.347581 0.000000
v 0.143973 -0.347581 0.000000
v 0.209016 -0.312815 0.000000
v 0.266027 -0.266027 0.000000
v 0.312815 -0.209016 0.000000
v 0.347581 -0.143973 0.000000
v 0.368990 -0.073397 0.000000
v 0.368990 0.073397 0.000000
v 0.347581 0.143973 0.000000
v 0.312815 0.209016 0.000000
v 0.266027 0.266027 0.000000
v 0.209016 0.312815 0.000000
v 0.143973 0.347581 0.000000
v -0.191342 0.461940 -0.100000
v -0.277785 0.415735 -0.100000
v -0.353553 0.353553 -0.100000
v -0.415735 0.277785 -0.100000
v -0.461940 0.191342 -0.100000
v -0.490393 0.097545 -0.100000
v -0.490393 -0.097545 -0.100000
v -0.461940 -0.191342 -0.100000
v -0.415735 -0.277785 -0.100000
v -0.353553 -0.353553 -0.100000
v -0.277785 -0.415735 -0.100000
v -0.191342 -0.461940 -0.100000
v 0.191342 -0.461940 -0.100000
v 0.277785 -0.415735 -0.100000
v 0.353553 -0.353553 -0.100000
v 0.415735 -0.277785 -0.100000
v 0.461940 -0.191342 -0.100000
v 0.490393 -0.097545 -0.100000
v 0.490393 0.097545 -0.100000
v 0.461940 0.191342 -0.100000
v 0.415735 0.277785 -0.100000
v 0.353553 0.353553 -0.100000
v 0.277785 0.415735 -0.100000
v 0.191342 0.461940 -0.100000
v -0.051162 0.257207 -0.100000
v 0.000000 0.262246 -0.100000
v -0.100357 0.242283 -0.100000
v -0.145696 0.218049 -0.100000
v -0.185436 0.185436 -0.100000
v -0.218049 0.145696 -0.100000
v -0.242283 0.100357 -0.100000
v -0.257207 0.051162 -0.100000
v -0.262246 0.000000 -0.100000
v -0.257207 -0.051162 -0.100000
v -0.242283 -0.100357 -0.100000
v -0.218049 -0.145696 -0.100000
v -0.185436 -0.185436 -0.100000
v -0.145696 -0.218049 -0.100000
v -0.100357 -0.242283 -0.100000
v -0.051162 -0.257207 -0.100000
v 0.000000 -0.262246 -0.100000
v 0.051162 -0.257207 -0.100000
v 0.100357 -0.242283 -0.100000
v 0.145696 -0.218049 -0.100000
v 0.185436 -0.185436 -0.100000
v 0.218049 -0.145696 -0.100000
v 0.242283 -0.100357 -0.100000
v 0.257207 -0.051162 -0.100000
v 0.262246 0.000000 -0.100000
v 0.257207 0.051162 -0.100000
v 0.242283 0.100357 -0.100000
v 0.218049 0.145696 -0.100000
v 0.185436 0.185436 -0.100000
v 0.145696 0.218049 -0.100000
v 0.100357 0.242283 -0.100000
v 0.051162 0.257207 -0.100000
v -0.143973 0.347581 -0.100000
v -0.209016 0.312815 -0.100000
v -0.266027 0.266027 -0.100000
v -0.312815 0.209016 -0.100000
v -0.347581 0.143973 -0.100000
v -0.368990 0.073397 -0.100000
v -0.368990 -0.073397 -0.100000
v -0.347581 -0.143973 -0.100000
v -0.312815 -0.209016 -0.100000
v -0.266027 -0.266027 -0.100000
v -0.209016 -0.312815 -0.100000
v -0.143973 -0.347581 -0.100000
v 0.143973 -0.347581 -0.100000
v 0.209016 -0.312815 -0.100000
v 0.266027 -0.266027 -0.100000
v 0.312815 -0.209016 -0.100000
v 0.347581 -0.143973 -0.100000
v 0.368990 -0.073397 -0.100000
v 0.368990 0.073397 -0.100000
v 0.347581 0.143973 -0.100000
v 0.312815 0.209016 -0.100000
v 0.266027 0.266027 -0.100000
v 0.209016 0.312815 -0.100000
v 0.143973 0.347581 -0.100000
vn 0.4714 -0.8819 -0.0000
vn 0.6344 -0.7730 -0.0000
vn 0.7730 -0.6344 -0.0000
vn 0.8819 -0.4714 -0.0000
vn 0.9569 -0.2903 -0.0000
vn 0.9569 0.2903 -0.0000
vn 0.8819 0.4714 -0.0000
vn 0.7730 0.6344 -0.0000
vn 0.6344 0.7730 -0.0000
vn 0.4714 0.8819 -0.0000
vn -0.4714 0.8819 -0.0000
vn -0.6344 0.7730 -0.0000
vn -0.7730 0.6344 -0.0000
vn -0.8819 0.4714 -0.0000
vn -0.9569 0.2903 -0.0000
vn -0.9569 -0.2903 -0.0000
vn -0.8819 -0.4714 -0.0000
vn -0.7730 -0.6344 -0.0000
vn -0.6344 -0.7730 -0.0000
vn -0.4714 -0.8819 -0.0000
vn 0.9239 0.3827 -0.0000
vn -0.1951 -0.9808 -0.0000
vn -0.1951 0.9808 -0.0000
vn 0.9239 -0.3827 -0.0000
vn -0.9239 -0.3827 -0.0000
vn 0.1951 0.9808 -0.0000
vn 0.1951 -0.9808 -0.0000
vn -0.9239 0.3827 -0.0000
vn -0.0980 0.9952 -0.0000
vn -0.2903 0.9569 -0.0000
vn -0.9952 0.0980 -0.0000
vn -0.9952 -0.0980 -0.0000
vn -0.2903 -0.9569 -0.0000
vn -0.0980 -0.9952 -0.0000
vn 0.0980 -0.9952 -0.0000
vn 0.2903 -0.9569 -0.0000
vn 0.9952 -0.0980 -0.0000
vn 0.9952 0.0980 -0.0000
vn 0.2903 0.9569 -0.0000
vn 0.0980 0.9952 -0.0000
vn -0.0000 -0.0000 1.0000
vn -0.0000 -0.0000 -1.0000
vt 0.000000 0.000000
s 0
f 57/1/1 58/1/1 138/1/1 137/1/1
f 58/1/2 59/1/2 139/1/2 138/1/2
f 59/1/3 60/1/3 140/1/3 139/1/3
f 60/1/4 61/1/4 141/1/4 140/1/4
f 61/1/5 62/1/5 142/1/5 141/1/5
f 63/1/6 64/1/6 144/1/6 143/1/6
f 64/1/7 65/1/7 145/1/7 144/1/7
f 65/1/8 66/1/8 146/1/8 145/1/8
f 66/1/9 67/1/9 147/1/9 146/1/9
f 67/1/10 68/1/10 148/1/10 147/1/10
f 69/1/11 70/1/11 150/1/11 149/1/11
f 70/1/12 71/1/12 151/1/12 150/1/12
f 71/1/13 72/1/13 152/1/13 151/1/13
f 72/1/14 73/1/14 153/1/14 152/1/14
f 73/1/15 74/1/15 154/1/15 153/1/15
f 75/1/16 76/1/16 156/1/16 155/1/16
f 76/1/17 77/1/17 157/1/17 156/1/17
f 77/1/18 78/1/18 158/1/18 157/1/18
f 78/1/19 79/1/19 159/1/19 158/1/19
f 79/1/20 80/1/20 160/1/20 159/1/20
f 2/1/11 1/1/11 81/1/11 82/1/11
f 3/1/12 2/1/12 82/1/12 83/1/12
f 4/1/13 3/1/13 83/1/13 84/1/13
f 5/1/14 4/1/14 84/1/14 85/1/14
f 6/1/15 5/1/15 85/1/15 86/1/15
f 8/1/16 7/1/16 87/1/16 88/1/16
f 9/1/17 8/1/17 88/1/17 89/1/17
f 10/1/18 9/1/18 89/1/18 90/1/18
f 11/1/19 10/1/19 90/1/19 91/1/19
f 12/1/20 11/1/20 91/1/20 92/1/20
f 14/1/1 13/1/1 93/1/1 94/1/1
f 15/1/2 14/1/2 94/1/2 95/1/2
f 16/1/3 15/1/3 95/1/3 96/1/3
f 17/1/4 16/1/4 96/1/4 97/1/4
f 18/1/5 17/1/5 97/1/5 98/1/5
f 20/1/6 19/1/6 99/1/6 100/1/6
f 21/1/7 20/1/7 100/1/7 101/1/7
f 22/1/8 21/1/8 101/1/8 102/1/8
f 23/1/9 22/1/9 102/1/9 103/1/9
f 24/1/10 23/1/10 103/1/10 104/1/10
f 1/1/21 57/1/21 137/1/21 81/1/21
f 62/1/22 6/1/22 86/1/22 142/1/22
f 7/1/23 63/1/23 143/1/23 87/1/23
f 68/1/24 12/1/24 92/1/24 148/1/24
f 13/1/25 69/1/25 149/1/25 93/1/25
f 74/1/26 18/1/26 98/1/26 154/1/26
f 19/1/27 75/1/27 155/1/27 99/1/27
f 80/1/28 24/1/28 104/1/28 160/1/28
f 25/1/29 26/1/29 106/1/29 105/1/29
f 27/1/30 25/1/30 105/1/30 107/1/30
f 28/1/11 27/1/11 107/1/11 108/1/11
f 29/1/12 28/1/12 108/1/12 109/1/12
f 30/1/13 29/1/13 109/1/13 110/1/13
f 31/1/14 30/1/14 110/1/14 111/1/14
f 32/1/15 31/1/15 111/1/15 112/1/15
f 33/1/31 32/1/31 112/1/31 113/1/31
f 34/1/32 33/1/32 113/1/32 114/1/32
f 35/1/16 34/1/16 114/1/16 115/1/16
f 36/1/17 35/1/17 115/1/17 116/1/17
f 37/1/18 36/1/18 116/1/18 117/1/18
f 38/1/19 37/1/19 117/1/19 118/1/19
f 39/1/20 38/1/20 118/1/20 119/1/20
f 40/1/33 39/1/33 119/1/33 120/1/33
f 41/1/34 40/1/34 120/1/34 121/1/34
f 42/1/35 41/1/35 121/1/35 122/1/35
f 43/1/36 42/1/36 122/1/36 123/1/36
f 44/1/1 43/1/1 123/1/1 124/1/1
f 45/1/2 44/1/2 124/1/2 125/1/2
f 46/1/3 45/1/3 125/1/3 126/1/3
f 47/1/4 46/1/4 126/1/4 127/1/4
f 48/1/5 47/1/5 127/1/5 128/1/5
f 49/1/37 48/1/37 128/1/37 129/1/37
f 50/1/38 49/1/38 129/1/38 130/1/38
f 51/1/6 50/1/6 130/1/6 131/1/6
f 52/1/7 51/1/7 131/1/7 132/1/7
f 53/1/8 52/1/8 132/1/8 133/1/8
f 54/1/9 53/1/9 133/1/9 134/1/9
f 55/1/10 54/1/10 134/1/10 135/1/10
f 56/1/39 55/1/39 135/1/39 136/1/39
f 26/1/40 56/1/40 136/1/40 106/1/40
f 217/1/11 297/1/11 298/1/11 218/1/11
f 218/1/12 298/1/12 299/1/12 219/1/12
f 219/1/13 299/1/13 300/1/13 220/1/13
f 220/1/14 300/1/14 301/1/14 221/1/14
f 221/1/15 301/1/15 302/1/15 222/1/15
f 223/1/16 303/1/16 304/1/16 224/1/16
f 224/1/17 304/1/17 305/1/17 225/1/17
f 225/1/18 305/1/18 306/1/18 226/1/18
f 226/1/19 306/1/19 307/1/19 227/1/19
f 227/1/20 307/1/20 308/1/20 228/1/20
f 229/1/1 309/1/1 310/1/1 230/1/1
f 230/1/2 310/1/2 311/1/2 231/1/2
f 231/1/3 311/1/3 312/1/3 232/1/3
f 232/1/4 312/1/4 313/1/4 233/1/4
f 233/1/5 313/1/5 314/1/5 234/1/5
f 235/1/6 315/1/6 316/1/6 236/1/6
f 236/1/7 316/1/7 317/1/7 237/1/7
f 237/1/8 317/1/8 318/1/8 238/1/8
f 238/1/9 318/1/9 319/1/9 239/1/9
f 239/1/10 319/1/10 320/1/10 240/1/10
f 162/1/1 242/1/1 241/1/1 161/1/1
f 163/1/2 243/1/2 242/1/2 162/1/2
f 164/1/3 244/1/3 243/1/3 163/1/3
f 165/1/4 245/1/4 244/1/4 164/1/4
f 166/1/5 246/1/5 245/1/5 165/1/5
f 168/1/6 248/1/6 247/1/6 167/1/6
f 169/1/7 249/1/7 248/1/7 168/1/7
f 170/1/8 250/1/8 249/1/8 169/1/8
f 171/1/9 251/1/9 250/1/9 170/1/9
f 172/1/10 252/1/10 251/1/10 171/1/10
f 174/1/11 254/1/11 253/1/11 173/1/11
f 175/1/12 255/1/12 254/1/12 174/1/12
f 176/1/13 256/1/13 255/1/13 175/1/13
f 177/1/14 257/1/14 256/1/14 176/1/14
f 178/1/15 258/1/15 257/1/15 177/1/15
f 180/1/16 260/1/16 259/1/16 179/1/16
f 181/1/17 261/1/17 260/1/17 180/1/17
f 182/1/18 262/1/18 261/1/18 181/1/18
f 183/1/19 263/1/19 262/1/19 182/1/19
f 184/1/20 264/1/20 263/1/20 183/1/20
f 161/1/25 241/1/25 297/1/25 217/1/25
f 222/1/26 302/1/26 246/1/26 166/1/26
f 167/1/27 247/1/27 303/1/27 223/1/27
f 228/1/28 308/1/28 252/1/28 172/1/28
f 173/1/21 253/1/21 309/1/21 229/1/21
f 234/1/22 314/1/22 258/1/22 178/1/22
f 179/1/23 259/1/23 315/1/23 235/1/23
f 240/1/24 320/1/24 264/1/24 184/1/24
f 185/1/35 265/1/35 266/1/35 186/1/35
f 187/1/36 267/1/36 265/1/36 185/1/36
f 188/1/1 268/1/1 267/1/1 187/1/1
f 189/1/2 269/1/2 268/1/2 188/1/2
f 190/1/3 270/1/3 269/1/3 189/1/3
f 191/1/4 271/1/4 270/1/4 190/1/4
f 192/1/5 272/1/5 271/1/5 191/1/5
f 193/1/37 273/1/37 272/1/37 192/1/37
f 194/1/38 274/1/38 273/1/38 193/1/38
f 195/1/6 275/1/6 274/1/6 194/1/6
f 196/1/7 276/1/7 275/1/7 195/1/7
f 197/1/8 277/1/8 276/1/8 196/1/8
f 198/1/9 278/1/9 277/1/9 197/1/9
f 199/1/10 279/1/10 278/1/10 198/1/10
f 200/1/39 280/1/39 279/1/39 199/1/39
f 201/1/40 281/1/40 280/1/40 200/1/40
f 202/1/29 282/1/29 281/1/29 201/1/29
f 203/1/30 283/1/30 282/1/30 202/1/30
f 204/1/11 284/1/11 283/1/11 203/1/11
f 205/1/12 285/1/12 284/1/12 204/1/12
f 206/1/13 286/1/13 285/1/13 205/1/13
f 207/1/14 287/1/14 286/1/14 206/1/14
f 208/1/15 288/1/15 287/1/15 207/1/15
f 209/1/31 289/1/31 288/1/31 208/1/31
f 210/1/32 290/1/32 289/1/32 209/1/32
f 211/1/16 291/1/16 290/1/16 210/1/16
f 212/1/17 292/1/17 291/1/17 211/1/17
f 213/1/18 293/1/18 292/1/18 212/1/18
f 214/1/19 294/1/19 293/1/19 213/1/19
f 215/1/20 295/1/20 294/1/20 214/1/20
f 216/1/33 296/1/33 295/1/33 215/1/33
f 186/1/34 266/1/34 296/1/34 216/1/34
f 58/1/41 57/1/41 217/1/41 218/1/41
f 59/1/41 58/1/41 218/1/41 219/1/41
f 60/1/41 59/1/41 219/1/41 220/1/41
f 61/1/41 60/1/41 220/1/41 221/1/41
f 62/1/41 61/1/41 221/1/41 222/1/41
f 64/1/41 63/1/41 223/1/41 224/1/41
f 65/1/41 64/1/41 224/1/41 225/1/41
f 66/1/41 65/1/41 225/1/41 226/1/41
f 67/1/41 66/1/41 226/1/41 227/1/41
f 68/1/41 67/1/41 227/1/41 228/1/41
f 70/1/41 69/1/41 229/1/41 230/1/41
f 71/1/41 70/1/41 230/1/41 231/1/41
f 72/1/41 71/1/41 231/1/41 232/1/41
f 73/1/41 72/1/41 232/1/41 233/1/41
f 74/1/41 73/1/41 233/1/41 234/1/41
f 76/1/41 75/1/41 235/1/41 236/1/41
f 77/1/41 76/1/41 236/1/41 237/1/41
f 78/1/41 77/1/41 237/1/41 238/1/41
f 79/1/41 78/1/41 238/1/41 239/1/41
f 80/1/41 79/1/41 239/1/41 240/1/41
f 1/1/41 2/1/41 162/1/41 161/1/41
f 2/1/41 3/1/41 163/1/41 162/1/41
f 3/1/41 4/1/41 164/1/41 163/1/41
f 4/1/41 5/1/41 165/1/41 164/1/41
f 5/1/41 6/1/41 166/1/41 165/1/41
f 7/1/41 8/1/41 168/1/41 167/1/41
f 8/1/41 9/1/41 169/1/41 168/1/41
f 9/1/41 10/1/41 170/1/41 169/1/41
f 10/1/41 11/1/41 171/1/41 170/1/41
f 11/1/41 12/1/41 172/1/41 171/1/41
f 13/1/41 14/1/41 174/1/41 173/1/41
f 14/1/41 15/1/41 175/1/41 174/1/41
f 15/1/41 16/1/41 176/1/41 175/1/41
f 16/1/41 17/1/41 177/1/41 176/1/41
f 17/1/41 18/1/41 178/1/41 177/1/41
f 19/1/41 20/1/41 180/1/41 179/1/41
f 20/1/41 21/1/41 181/1/41 180/1/41
f 21/1/41 22/1/41 182/1/41 181/1/41
f 22/1/41 23/1/41 183/1/41 182/1/41
f 23/1/41 24/1/41 184/1/41 183/1/41
f 57/1/41 1/1/41 161/1/41 217/1/41
f 6/1/41 62/1/41 222/1/41 166/1/41
f 63/1/41 7/1/41 167/1/41 223/1/41
f 12/1/41 68/1/41 228/1/41 172/1/41
f 69/1/41 13/1/41 173/1/41 229/1/41
f 18/1/41 74/1/41 234/1/41 178/1/41
f 75/1/41 19/1/41 179/1/41 235/1/41
f 24/1/41 80/1/41 240/1/41 184/1/41
f 26/1/41 25/1/41 185/1/41 186/1/41
f 25/1/41 27/1/41 187/1/41 185/1/41
f 27/1/41 28/1/41 188/1/41 187/1/41
f 28/1/41 29/1/41 189/1/41 188/1/41
f 29/1/41 30/1/41 190/1/41 189/1/41
f 30/1/41 31/1/41 191/1/41 190/1/41
f 31/1/41 32/1/41 192/1/41 191/1/41
f 32/1/41 33/1/41 193/1/41 192/1/41
f 33/1/41 34/1/41 194/1/41 193/1/41
f 34/1/41 35/1/41 195/1/41 194/1/41
f 35/1/41 36/1/41 196/1/41 195/1/41
f 36/1/41 37/1/41 197/1/41 196/1/41
f 37/1/41 38/1/41 198/1/41 197/1/41
f 38/1/41 39/1/41 199/1/41 198/1/41
f 39/1/41 40/1/41 200/1/41 199/1/41
f 40/1/41 41/1/41 201/1/41 200/1/41
f 41/1/41 42/1/41 202/1/41 201/1/41
f 42/1/41 43/1/41 203/1/41 202/1/41
f 43/1/41 44/1/41 204/1/41 203/1/41
f 44/1/41 45/1/41 205/1/41 204/1/41
f 45/1/41 46/1/41 206/1/41 205/1/41
f 46/1/41 47/1/41 207/1/41 206/1/41
f 47/1/41 48/1/41 208/1/41 207/1/41
f 48/1/41 49/1/41 209/1/41 208/1/41
f 49/1/41 50/1/41 210/1/41 209/1/41
f 50/1/41 51/1/41 211/1/41 210/1/41
f 51/1/41 52/1/41 212/1/41 211/1/41
f 52/1/41 53/1/41 213/1/41 212/1/41
f 53/1/41 54/1/41 214/1/41 213/1/41
f 54/1/41 55/1/41 215/1/41 214/1/41
f 55/1/41 56/1/41 216/1/41 215/1/41
f 56/1/41 26/1/41 186/1/41 216/1/41
f 137/1/42 138/1/42 298/1/42 297/1/42
f 138/1/42 139/1/42 299/1/42 298/1/42
f 139/1/42 140/1/42 300/1/42 299/1/42
f 140/1/42 141/1/42 301/1/42 300/1/42
f 141/1/42 142/1/42 302/1/42 301/1/42
f 143/1/42 144/1/42 304/1/42 303/1/42
f 144/1/42 145/1/42 305/1/42 304/1/42
f 145/1/42 146/1/42 306/1/42 305/1/42
f 146/1/42 147/1/42 307/1/42 306/1/42
f 147/1/42 148/1/42 308/1/42 307/1/42
f 149/1/42 150/1/42 310/1/42 309/1/42
f 150/1/42 151/1/42 311/1/42 310/1/42
f 151/1/42 152/1/42 312/1/42 311/1/42
f 152/1/42 153/1/42 313/1/42 312/1/42
f 153/1/42 154/1/42 314/1/42 313/1/42
f 155/1/42 156/1/42 316/1/42 315/1/42
f 156/1/42 157/1/42 317/1/42 316/1/42
f 157/1/42 158/1/42 318/1/42 317/1/42
f 158/1/42 159/1/42 319/1/42 318/1/42
f 159/1/42 160/1/42 320/1/42 319/1/42
f 82/1/42 81/1/42 241/1/42 242/1/42
f 83/1/42 82/1/42 242/1/42 243/1/42
f 84/1/42 83/1/42 243/1/42 244/1/42
f 85/1/42 84/1/42 244/1/42 245/1/42
f 86/1/42 85/1/42 245/1/42 246/1/42
f 88/1/42 87/1/42 247/1/42 248/1/42
f 89/1/42 88/1/42 248/1/42 249/1/42
f 90/1/42 89/1/42 249/1/42 250/1/42
f 91/1/42 90/1/42 250/1/42 251/1/42
f 92/1/42 91/1/42 251/1/42 252/1/42
f 94/1/42 93/1/42 253/1/42 254/1/42
f 95/1/42 94/1/42 254/1/42 255/1/42
f 96/1/42 95/1/42 255/1/42 256/1/42
f 97/1/42 96/1/42 256/1/42 257/1/42
f 98/1/42 97/1/42 257/1/42 258/1/42
f 100/1/42 99/1/42 259/1/42 260/1/42
f 101/1/42 100/1/42 260/1/42 261/1/42
f 102/1/42 101/1/42 261/1/42 262/1/42
f 103/1/42 102/1/42 262/1/42 263/1/42
f 104/1/42 103/1/42 263/1/42 264/1/42
f 81/1/42 137/1/42 297/1/42 241/1/42
f 142/1/42 86/1/42 246/1/42 302/1/42
f 87/1/42 143/1/42 303/1/42 247/1/42
f 148/1/42 92/1/42 252/1/42 308/1/42
f 93/1/42 149/1/42 309/1/42 253/1/42
f 154/1/42 98/1/42 258/1/42 314/1/42
f 99/1/42 155/1/42 315/1/42 259/1/42
f 160/1/42 104/1/42 264/1/42 320/1/42
f 105/1/42 106/1/42 266/1/42 265/1/42
f 107/1/42 105/1/42 265/1/42 267/1/42
f 108/1/42 107/1/42 267/1/42 268/1/42
f 109/1/42 108/1/42 268/1/42 269/1/42
f 110/1/42 109/1/42 269/1/42 270/1/42
f 111/1/42 110/1/42 270/1/42 271/1/42
f 112/1/42 111/1/42 271/1/42 272/1/42
f 113/1/42 112/1/42 272/1/42 273/1/42
f 114/1/42 113/1/42 273/1/42 274/1/42
f 115/1/42 114/1/42 274/1/42 275/1/42
f 116/1/42 115/1/42 275/1/42 276/1/42
f 117/1/42 116/1/42 276/1/42 277/1/42
f 118/1/42 117/1/42 277/1/42 278/1/42
f 119/1/42 118/1/42 278/1/42 279/1/42
f 120/1/42 119/1/42 279/1/42 280/1/42
f 121/1/42 120/1/42 280/1/42 281/1/42
f 122/1/42 121/1/42 281/1/42 282/1/42
f 123/1/42 122/1/42 282/1/42 283/1/42
f 124/1/42 123/1/42 283/1/42 284/1/42
f 125/1/42 124/1/42 284/1/42 285/1/42
f 126/1/42 125/1/42 285/1/42 286/1/42
f 127/1/42 126/1/42 286/1/42 287/1/42
f 128/1/42 127/1/42 287/1/42 288/1/42
f 129/1/42 128/1/42 288/1/42 289/1/42
f 130/1/42 129/1/42 289/1/42 290/1/42
f 131/1/42 130/1/42 290/1/42 291/1/42
f 132/1/42 131/1/42 291/1/42 292/1/42
f 133/1/42 132/1/42 292/1/42 293/1/42
f 134/1/42 133/1/42 293/1/42 294/1/42
f 135/1/42 134/1/42 294/1/42 295/1/42
f 136/1/42 135/1/42 295/1/42 296/1/42
f 106/1/42 136/1/42 296/1/42 266/1/42
