# Blender 4.5.5 LTS
# www.blender.org
o V_start-point_001
v 0.000000 0.500000 0.000000
v -0.097545 0.490393 0.000000
v -0.191342 0.461940 0.000000
v -0.490393 0.097545 0.000000
v -0.500000 0.000000 0.000000
v -0.490393 -0.097545 0.000000
v -0.191342 -0.461940 0.000000
v -0.097545 -0.490393 0.000000
v 0.000000 -0.500000 0.000000
v 0.097545 -0.490393 0.000000
v 0.191342 -0.461940 0.000000
v 0.490393 -0.097545 0.000000
v 0.500000 0.000000 0.000000
v 0.490393 0.097545 0.000000
v 0.191342 0.461940 0.000000
v 0.097545 0.490393 0.000000
v -0.051162 0.257207 0.000000
v 0.000000 0.262246 0.000000
v -0.100357 0.242283 0.000000
v -0.145696 0.218049 0.000000
v -0.185436 0.185436 0.000000
v -0.218049 0.145696 0.000000
v -0.242283 0.100357 0.000000
v -0.257207 0.051162 0.000000
v -0.262246 0.000000 0.000000
v -0.257207 -0.051162 0.000000
v -0.242283 -0.100357 0.000000
v -0.218049 -0.145696 0.000000
v -0.185436 -0.185436 0.000000
v -0.145696 -0.218049 0.000000
v -0.100357 -0.242283 0.000000
v -0.051162 -0.257207 0.000000
v 0.000000 -0.262246 0.000000
v 0.051162 -0.257207 0.000000
v 0.100357 -0.242283 0.000000
v 0.145696 -0.218049 0.000000
v 0.185436 -0.185436 0.000000
v 0.218049 -0.145696 0.000000
v 0.242283 -0.100357 0.000000
v 0.257207 -0.051162 0.000000
v 0.262246 0.000000 0.000000
v 0.257207 0.051162 0.000000
v 0.242283 0.100357 0.000000
v 0.218049 0.145696 0.000000
v 0.185436 0.185436 0.000000
v 0.145696 0.218049 0.000000
v 0.100357 0.242283 0.000000
v 0.051162 0.257207 0.000000
v -0.073397 0.368990 0.000000
v 0.000000 0.376219 0.000000
v -0.143973 0.347581 0.000000
v -0.209016 0.312815 0.000000
v -0.266027 0.266027 0.000000
v -0.312815 0.209016 0.000000
v -0.347581 0.143973 0.000000
v -0.368990 0.073397 0.000000
v -0.376219 0.000000 0.000000
v -0.368990 -0.073397 0.000000
v -0.347581 -0.143973 0.000000
v -0.312815 -0.209016 0.000000
v -0.266027 -0.266027 0.000000
v -0.209016 -0.312815 0.000000
v -0.143973 -0.347581 0.000000
v -0.073397 -0.368990 0.000000
v 0.000000 -0.376219 0.000000
v 0.073397 -0.368990 0.000000
v 0.143973 -0.347581 0.000000
v 0.209016 -0.312815 0.000000
v 0.266027 -0.266027 0.000000
v 0.312815 -0.209016 0.000000
v 0.347581 -0.143973 0.000000
v 0.368990 -0.073397 0.000000
v 0.376219 0.000000 0.000000
v 0.368990 0.073397 0.000000
v 0.347581 0.143973 0.000000
v 0.312815 0.209016 0.000000
v 0.266027 0.266027 0.000000
v 0.209016 0.312815 0.000000
v 0.143973 0.347581 0.000000
v 0.073397 0.368990 0.000000
v 0.000000 0.500000 -0.100000
v -0.097545 0.490393 -0.100000
v -0.191342 0.461940 -0.100000
v -0.490393 0.097545 -0.100000
v -0.500000 0.000000 -0.100000
v -0.490393 -0.097545 -0.100000
v -0.191342 -0.461940 -0.100000
v -0.097545 -0.490393 -0.100000
v 0.000000 -0.500000 -0.100000
v 0.097545 -0.490393 -0.100000
v 0.191342 -0.461940 -0.100000
v 0.490393 -0.097545 -0.100000
v 0.500000 0.000000 -0.100000
v 0.490393 0.097545 -0.100000
v 0.191342 0.461940 -0.100000
v 0.097545 0.490393 -0.100000
v -0.051162 0.257207 -0.100000
v 0.000000 0.262246 -0.100000
v -0.100357 0.242283 -0.100000
v -0.145696 0.218049 -0.100000
v -0.185436 0.185436 -0.100000
v -0.218049 0.145696 -0.100000
v -0.242283 0.100357 -0.100000
v -0.257207 0.051162 -0.100000
v -0.262246 0.000000 -0.100000
v -0.257207 -0.051162 -0.100000
v -0.242283 -0.100357 -0.100000
v -0.218049 -0.145696 -0.100000
v -0.185436 -0.185436 -0.100000
v -0.145696 -0.218049 -0.100000
v -0.100357 -0.242283 -0.100000
v -0.051162 -0.257207 -0.100000
v 0.000000 -0.262246 -0.100000
v 0.051162 -0.257207 -0.100000
v 0.100357 -0.242283 -0.100000
v 0.145696 -0.218049 -0.100000
v 0.185436 -0.185436 -0.100000
v 0.218049 -0.145696 -0.100000
v 0.242283 -0.100357 -0.100000
v 0.257207 -0.051162 -0.100000
v 0.262246 0.000000 -0.100000
v 0.257207 0.051162 -0.100000
v 0.242283 0.100357 -0.100000
v 0.218049 0.145696 -0.100000
v 0.185436 0.185436 -0.100000
v 0.145696 0.218049 -0.100000
v 0.100357 0.242283 -0.100000
v 0.051162 0.257207 -0.100000
v -0.073397 0.368990 -0.100000
v 0.000000 0.376219 -0.100000
v -0.143973 0.347581 -0.100000
v -0.209016 0.312815 -0.100000
v -0.266027 0.266027 -0.100000
v -0.312815 0.209016 -0.100000
v -0.347581 0.143973 -0.100000
v -0.368990 0.073397 -0.100000
v -0.376219 0.000000 -0.100000
v -0.368990 -0.073397 -0.100000
v -0.347581 -0.143973 -0.100000
v -0.312815 -0.209016 -0.100000
v -0.266027 -0.266027 -0.100000
v -0.209016 -0.312815 -0.100000
v -0.143973 -0.347581 -0.100000
v -0.073397 -0.368990 -0.100000
v 0.000000 -0.376219 -0.100000
v 0.073397 -0.368990 -0.100000
v 0.143973 -0.347581 -0.100000
v 0.209016 -0.312815 -0.100000
v 0.266027 -0.266027 -0.100000
v 0.312815 -0.209016 -0.100000
v 0.347581 -0.143973 -0.100000
v 0.368990 -0.073397 -0.100000
v 0.376219 0.000000 -0.100000
v 0.368990 0.073397 -0.100000
v 0.347581 0.143973 -0.100000
v 0.312815 0.209016 -0.100000
v 0.266027 0.266027 -0.100000
v 0.209016 0.312815 -0.100000
v 0.143973 0.347581 -0.100000
v 0.073397 0.368990 -0.100000
vn -0.0000 -0.0000 1.0000
vn -0.0000 -0.0000 -1.0000
vn -0.4714 0.8819 -0.0000
vn -0.6344 0.7730 -0.0000
vn -0.7730 0.6344 -0.0000
vn -0.8819 0.4714 -0.0000
vn -0.9569 0.2903 -0.0000
vn -0.9569 -0.2903 -0.0000
vn -0.8819 -0.4714 -0.0000
vn -0.7730 -0.6344 -0.0000
vn -0.6344 -0.7730 -0.0000
vn -0.4714 -0.8819 -0.0000
vn 0.4714 -0.8819 -0.0000
vn 0.6344 -0.7730 -0.0000
vn 0.7730 -0.6344 -0.0000
vn 0.8819 -0.4714 -0.0000
vn 0.9569 -0.2903 -0.0000
vn 0.9569 0.2903 -0.0000
vn 0.8819 0.4714 -0.0000
vn 0.7730 0.6344 -0.0000
vn 0.6344 0.7730 -0.0000
vn 0.4714 0.8819 -0.0000
vn -0.0980 0.9952 -0.0000
vn -0.2903 0.9569 -0.0000
vn -0.9952 0.0980 -0.0000
vn -0.9952 -0.0980 -0.0000
vn -0.2903 -0.9569 -0.0000
vn -0.0980 -0.9952 -0.0000
vn 0.0980 -0.9952 -0.0000
vn 0.2903 -0.9569 -0.0000
vn 0.9952 -0.0980 -0.0000
vn 0.9952 0.0980 -0.0000
vn 0.2903 0.9569 -0.0000
vn 0.0980 0.9952 -0.0000
vn -0.9239 -0.3827 -0.0000
vn 0.1951 0.9808 -0.0000
vn 0.1951 -0.9808 -0.0000
vn -0.9239 0.3827 -0.0000
vn 0.9239 0.3827 -0.0000
vn -0.1951 -0.9808 -0.0000
vn -0.1951 0.9808 -0.0000
vn 0.9239 -0.3827 -0.0000
vt 0.000000 0.000000
s 0
f 49/1/1 50/1/1 1/1/1 2/1/1
f 51/1/1 49/1/1 2/1/1 3/1/1
f 57/1/1 56/1/1 4/1/1 5/1/1
f 58/1/1 57/1/1 5/1/1 6/1/1
f 64/1/1 63/1/1 7/1/1 8/1/1
f 65/1/1 64/1/1 8/1/1 9/1/1
f 66/1/1 65/1/1 9/1/1 10/1/1
f 67/1/1 66/1/1 10/1/1 11/1/1
f 73/1/1 72/1/1 12/1/1 13/1/1
f 74/1/1 73/1/1 13/1/1 14/1/1
f 80/1/1 79/1/1 15/1/1 16/1/1
f 50/1/1 80/1/1 16/1/1 1/1/1
f 17/1/1 18/1/1 50/1/1 49/1/1
f 19/1/1 17/1/1 49/1/1 51/1/1
f 20/1/1 19/1/1 51/1/1 52/1/1
f 21/1/1 20/1/1 52/1/1 53/1/1
f 22/1/1 21/1/1 53/1/1 54/1/1
f 23/1/1 22/1/1 54/1/1 55/1/1
f 24/1/1 23/1/1 55/1/1 56/1/1
f 25/1/1 24/1/1 56/1/1 57/1/1
f 26/1/1 25/1/1 57/1/1 58/1/1
f 27/1/1 26/1/1 58/1/1 59/1/1
f 28/1/1 27/1/1 59/1/1 60/1/1
f 29/1/1 28/1/1 60/1/1 61/1/1
f 30/1/1 29/1/1 61/1/1 62/1/1
f 31/1/1 30/1/1 62/1/1 63/1/1
f 32/1/1 31/1/1 63/1/1 64/1/1
f 33/1/1 32/1/1 64/1/1 65/1/1
f 34/1/1 33/1/1 65/1/1 66/1/1
f 35/1/1 34/1/1 66/1/1 67/1/1
f 36/1/1 35/1/1 67/1/1 68/1/1
f 37/1/1 36/1/1 68/1/1 69/1/1
f 38/1/1 37/1/1 69/1/1 70/1/1
f 39/1/1 38/1/1 70/1/1 71/1/1
f 40/1/1 39/1/1 71/1/1 72/1/1
f 41/1/1 40/1/1 72/1/1 73/1/1
f 42/1/1 41/1/1 73/1/1 74/1/1
f 43/1/1 42/1/1 74/1/1 75/1/1
f 44/1/1 43/1/1 75/1/1 76/1/1
f 45/1/1 44/1/1 76/1/1 77/1/1
f 46/1/1 45/1/1 77/1/1 78/1/1
f 47/1/1 46/1/1 78/1/1 79/1/1
f 48/1/1 47/1/1 79/1/1 80/1/1
f 18/1/1 48/1/1 80/1/1 50/1/1
f 129/1/2 82/1/2 81/1/2 130/1/2
f 131/1/2 83/1/2 82/1/2 129/1/2
f 137/1/2 85/1/2 84/1/2 136/1/2
f 138/1/2 86/1/2 85/1/2 137/1/2
f 144/1/2 88/1/2 87/1/2 143/1/2
f 145/1/2 89/1/2 88/1/2 144/1/2
f 146/1/2 90/1/2 89/1/2 145/1/2
f 147/1/2 91/1/2 90/1/2 146/1/2
f 153/1/2 93/1/2 92/1/2 152/1/2
f 154/1/2 94/1/2 93/1/2 153/1/2
f 160/1/2 96/1/2 95/1/2 159/1/2
f 130/1/2 81/1/2 96/1/2 160/1/2
f 97/1/2 129/1/2 130/1/2 98/1/2
f 99/1/2 131/1/2 129/1/2 97/1/2
f 100/1/2 132/1/2 131/1/2 99/1/2
f 101/1/2 133/1/2 132/1/2 100/1/2
f 102/1/2 134/1/2 133/1/2 101/1/2
f 103/1/2 135/1/2 134/1/2 102/1/2
f 104/1/2 136/1/2 135/1/2 103/1/2
f 105/1/2 137/1/2 136/1/2 104/1/2
f 106/1/2 138/1/2 137/1/2 105/1/2
f 107/1/2 139/1/2 138/1/2 106/1/2
f 108/1/2 140/1/2 139/1/2 107/1/2
f 109/1/2 141/1/2 140/1/2 108/1/2
f 110/1/2 142/1/2 141/1/2 109/1/2
f 111/1/2 143/1/2 142/1/2 110/1/2
f 112/1/2 144/1/2 143/1/2 111/1/2
f 113/1/2 145/1/2 144/1/2 112/1/2
f 114/1/2 146/1/2 145/1/2 113/1/2
f 115/1/2 147/1/2 146/1/2 114/1/2
f 116/1/2 148/1/2 147/1/2 115/1/2
f 117/1/2 149/1/2 148/1/2 116/1/2
f 118/1/2 150/1/2 149/1/2 117/1/2
f 119/1/2 151/1/2 150/1/2 118/1/2
f 120/1/2 152/1/2 151/1/2 119/1/2
f 121/1/2 153/1/2 152/1/2 120/1/2
f 122/1/2 154/1/2 153/1/2 121/1/2
f 123/1/2 155/1/2 154/1/2 122/1/2
f 124/1/2 156/1/2 155/1/2 123/1/2
f 125/1/2 157/1/2 156/1/2 124/1/2
f 126/1/2 158/1/2 157/1/2 125/1/2
f 127/1/2 159/1/2 158/1/2 126/1/2
f 128/1/2 160/1/2 159/1/2 127/1/2
f 98/1/2 130/1/2 160/1/2 128/1/2
f 52/1/3 51/1/3 131/1/3 132/1/3
f 53/1/4 52/1/4 132/1/4 133/1/4
f 54/1/5 53/1/5 133/1/5 134/1/5
f 55/1/6 54/1/6 134/1/6 135/1/6
f 56/1/7 55/1/7 135/1/7 136/1/7
f 59/1/8 58/1/8 138/1/8 139/1/8
f 60/1/9 59/1/9 139/1/9 140/1/9
f 61/1/10 60/1/10 140/1/10 141/1/10
f 62/1/11 61/1/11 141/1/11 142/1/11
f 63/1/12 62/1/12 142/1/12 143/1/12
f 68/1/13 67/1/13 147/1/13 148/1/13
f 69/1/14 68/1/14 148/1/14 149/1/14
f 70/1/15 69/1/15 149/1/15 150/1/15
f 71/1/16 70/1/16 150/1/16 151/1/16
f 72/1/17 71/1/17 151/1/17 152/1/17
f 75/1/18 74/1/18 154/1/18 155/1/18
f 76/1/19 75/1/19 155/1/19 156/1/19
f 77/1/20 76/1/20 156/1/20 157/1/20
f 78/1/21 77/1/21 157/1/21 158/1/21
f 79/1/22 78/1/22 158/1/22 159/1/22
f 2/1/23 1/1/23 81/1/23 82/1/23
f 3/1/24 2/1/24 82/1/24 83/1/24
f 5/1/25 4/1/25 84/1/25 85/1/25
f 6/1/26 5/1/26 85/1/26 86/1/26
f 8/1/27 7/1/27 87/1/27 88/1/27
f 9/1/28 8/1/28 88/1/28 89/1/28
f 10/1/29 9/1/29 89/1/29 90/1/29
f 11/1/30 10/1/30 90/1/30 91/1/30
f 13/1/31 12/1/31 92/1/31 93/1/31
f 14/1/32 13/1/32 93/1/32 94/1/32
f 16/1/33 15/1/33 95/1/33 96/1/33
f 1/1/34 16/1/34 96/1/34 81/1/34
f 51/1/35 3/1/35 83/1/35 131/1/35
f 4/1/36 56/1/36 136/1/36 84/1/36
f 58/1/37 6/1/37 86/1/37 138/1/37
f 7/1/38 63/1/38 143/1/38 87/1/38
f 67/1/39 11/1/39 91/1/39 147/1/39
f 12/1/40 72/1/40 152/1/40 92/1/40
f 74/1/41 14/1/41 94/1/41 154/1/41
f 15/1/42 79/1/42 159/1/42 95/1/42
f 18/1/29 17/1/29 97/1/29 98/1/29
f 17/1/30 19/1/30 99/1/30 97/1/30
f 19/1/13 20/1/13 100/1/13 99/1/13
f 20/1/14 21/1/14 101/1/14 100/1/14
f 21/1/15 22/1/15 102/1/15 101/1/15
f 22/1/16 23/1/16 103/1/16 102/1/16
f 23/1/17 24/1/17 104/1/17 103/1/17
f 24/1/31 25/1/31 105/1/31 104/1/31
f 25/1/32 26/1/32 106/1/32 105/1/32
f 26/1/18 27/1/18 107/1/18 106/1/18
f 27/1/19 28/1/19 108/1/19 107/1/19
f 28/1/20 29/1/20 109/1/20 108/1/20
f 29/1/21 30/1/21 110/1/21 109/1/21
f 30/1/22 31/1/22 111/1/22 110/1/22
f 31/1/33 32/1/33 112/1/33 111/1/33
f 32/1/34 33/1/34 113/1/34 112/1/34
f 33/1/23 34/1/23 114/1/23 113/1/23
f 34/1/24 35/1/24 115/1/24 114/1/24
f 35/1/3 36/1/3 116/1/3 115/1/3
f 36/1/4 37/1/4 117/1/4 116/1/4
f 37/1/5 38/1/5 118/1/5 117/1/5
f 38/1/6 39/1/6 119/1/6 118/1/6
f 39/1/7 40/1/7 120/1/7 119/1/7
f 40/1/25 41/1/25 121/1/25 120/1/25
f 41/1/26 42/1/26 122/1/26 121/1/26
f 42/1/8 43/1/8 123/1/8 122/1/8
f 43/1/9 44/1/9 124/1/9 123/1/9
f 44/1/10 45/1/10 125/1/10 124/1/10
f 45/1/11 46/1/11 126/1/11 125/1/11
f 46/1/12 47/1/12 127/1/12 126/1/12
f 47/1/27 48/1/27 128/1/27 127/1/27
f 48/1/28 18/1/28 98/1/28 128/1/28
