# Blender 4.5.5 LTS
# www.blender.org
o V_lantern_4BODY
v 21.498526 6.906237 7.517094
v 21.552494 6.562500 7.239614
v 21.582443 6.371740 6.393604
v 21.552494 6.562500 5.992635
v 21.498526 6.906237 5.715156
v 21.093672 7.062274 7.517094
v 20.822969 6.843668 7.239614
v 20.672741 6.722352 6.838645
v 20.672741 6.722352 6.393604
v 20.822969 6.843668 5.992635
v 21.093672 7.062274 5.715156
v 21.026375 7.490907 7.517094
v 20.701708 7.616038 7.239614
v 20.521530 7.685482 6.838645
v 20.521530 7.685482 6.393604
v 20.701708 7.616038 5.992635
v 21.026375 7.490907 5.715156
v 21.363935 7.763503 7.517094
v 21.309969 8.107240 7.239614
v 21.280018 8.297999 6.838645
v 21.280018 8.297999 6.393604
v 21.309969 8.107240 5.992635
v 21.363935 7.763503 5.715156
v 21.431231 7.334870 5.616125
v 21.431231 7.334870 7.616125
v 21.768789 7.607466 7.517094
v 22.039492 7.826071 7.239614
v 22.189720 7.947388 6.838645
v 22.189720 7.947388 6.393604
v 22.039492 7.826071 5.992635
v 21.768789 7.607466 5.715156
v 21.836086 7.178833 7.517094
v 22.160753 7.053701 7.239614
v 22.340931 6.984258 6.838645
v 22.340931 6.984258 6.393604
v 22.160753 7.053701 5.992635
v 21.836086 7.178833 5.715156
v 21.582443 6.371740 6.838645
v 21.494535 6.931662 5.398781
v 21.494535 6.931662 5.715156
v 21.414656 6.927059 5.398781
v 21.414656 6.927059 5.715156
v 21.335415 6.938128 5.398781
v 21.335415 6.938128 5.715156
v 21.259855 6.964445 5.398781
v 21.259855 6.964445 5.715156
v 21.190882 7.004996 5.398781
v 21.190882 7.004996 5.715156
v 21.131145 7.058224 5.398781
v 21.131145 7.058224 5.715156
v 21.082941 7.122084 5.398781
v 21.082941 7.122084 5.715156
v 21.048120 7.194120 5.398781
v 21.048120 7.194120 5.715156
v 21.028023 7.271566 5.398781
v 21.028023 7.271566 5.715156
v 21.023420 7.351444 5.398781
v 21.023420 7.351444 5.715156
v 21.034489 7.430686 5.398781
v 21.034489 7.430686 5.715156
v 21.060806 7.506245 5.398781
v 21.060806 7.506245 5.715156
v 21.101357 7.575219 5.398781
v 21.101357 7.575219 5.715156
v 21.154585 7.634955 5.398781
v 21.154585 7.634955 5.715156
v 21.218445 7.683160 5.398781
v 21.218445 7.683160 5.715156
v 21.290482 7.717980 5.398781
v 21.290482 7.717980 5.715156
v 21.367926 7.738078 5.398781
v 21.367926 7.738078 5.715156
v 21.447805 7.742681 5.398781
v 21.447805 7.742681 5.715156
v 21.527046 7.731611 5.398781
v 21.527046 7.731611 5.715156
v 21.602606 7.705295 5.398781
v 21.602606 7.705295 5.715156
v 21.671579 7.664744 5.398781
v 21.671579 7.664744 5.715156
v 21.731316 7.611516 5.398781
v 21.731316 7.611516 5.715156
v 21.779520 7.547656 5.398781
v 21.779520 7.547656 5.715156
v 21.814341 7.475619 5.398781
v 21.814341 7.475619 5.715156
v 21.834438 7.398174 5.398781
v 21.834438 7.398174 5.715156
v 21.839041 7.318295 5.398781
v 21.839041 7.318295 5.715156
v 21.827972 7.239054 5.398781
v 21.827972 7.239054 5.715156
v 21.801655 7.163495 5.398781
v 21.801655 7.163495 5.715156
v 21.761105 7.094521 5.398781
v 21.761105 7.094521 5.715156
v 21.707876 7.034784 5.398781
v 21.707876 7.034784 5.715156
v 21.644016 6.986579 5.398781
v 21.644016 6.986579 5.715156
v 21.571980 6.951759 5.398781
v 21.571980 6.951759 5.715156
vn -0.0917 -0.2378 -0.9670
vn -0.3319 -0.8612 -0.3849
vn -0.3319 -0.8612 0.3849
vn -0.0917 -0.2378 0.9670
vn -0.2436 -0.6321 -0.7356
vn -0.3596 -0.9331 -0.0000
vn -0.2436 -0.6321 0.7356
vn -0.2518 -0.0395 -0.9670
vn -0.9118 -0.1431 -0.3849
vn -0.9118 -0.1431 0.3849
vn -0.2518 -0.0395 0.9670
vn -0.6692 -0.1051 -0.7356
vn -0.9879 -0.1551 -0.0000
vn -0.6692 -0.1051 0.7356
vn -0.1601 0.1983 -0.9670
vn -0.5799 0.7181 -0.3849
vn -0.5799 0.7181 0.3849
vn -0.1601 0.1983 0.9670
vn -0.4256 0.5270 -0.7356
vn -0.6283 0.7780 -0.0000
vn -0.4256 0.5270 0.7356
vn 0.3319 0.8612 0.3849
vn 0.0917 0.2378 0.9670
vn 0.2436 0.6321 -0.7356
vn 0.3596 0.9331 -0.0000
vn 0.2436 0.6321 0.7356
vn 0.0917 0.2378 -0.9670
vn 0.3319 0.8612 -0.3849
vn 0.6692 0.1051 -0.7356
vn 0.9879 0.1551 -0.0000
vn 0.6692 0.1051 0.7356
vn 0.2518 0.0395 -0.9670
vn 0.9118 0.1432 -0.3849
vn 0.9118 0.1432 0.3849
vn 0.2518 0.0395 0.9670
vn 0.4256 -0.5270 -0.7356
vn 0.6283 -0.7780 -0.0000
vn 0.4256 -0.5270 0.7356
vn 0.1601 -0.1983 -0.9670
vn 0.5799 -0.7180 -0.3849
vn 0.5799 -0.7181 0.3849
vn 0.1601 -0.1983 0.9670
vn 0.0575 -0.9983 -0.0000
vn -0.1383 -0.9904 -0.0000
vn -0.3289 -0.9444 -0.0000
vn -0.5068 -0.8621 -0.0000
vn -0.6653 -0.7466 -0.0000
vn -0.7981 -0.6025 -0.0000
vn -0.9003 -0.4352 -0.0000
vn -0.9679 -0.2512 -0.0000
vn -0.9983 -0.0575 -0.0000
vn -0.9904 0.1383 -0.0000
vn -0.9444 0.3289 -0.0000
vn -0.8621 0.5068 -0.0000
vn -0.7466 0.6653 -0.0000
vn -0.6025 0.7981 -0.0000
vn -0.4352 0.9003 -0.0000
vn -0.2512 0.9679 -0.0000
vn -0.0575 0.9983 -0.0000
vn 0.1383 0.9904 -0.0000
vn 0.3289 0.9444 -0.0000
vn 0.5068 0.8621 -0.0000
vn 0.6653 0.7466 -0.0000
vn 0.7981 0.6025 -0.0000
vn 0.9003 0.4352 -0.0000
vn 0.9679 0.2512 -0.0000
vn 0.9983 0.0575 -0.0000
vn 0.9904 -0.1383 -0.0000
vn 0.9444 -0.3289 -0.0000
vn 0.8621 -0.5068 -0.0000
vn 0.7466 -0.6653 -0.0000
vn 0.6025 -0.7981 -0.0000
vn 0.4352 -0.9003 -0.0000
vn 0.2512 -0.9679 -0.0000
vt 0.253469 0.000058
vt 0.360164 0.133561
vt 0.146774 0.133561
vt 0.445727 0.274293
vt 0.493210 0.423550
vt 0.013727 0.423550
vt 0.061211 0.274293
vt 0.493210 0.576449
vt 0.445727 0.725707
vt 0.061211 0.725707
vt 0.013727 0.576450
vt 0.360164 0.866439
vt 0.253469 0.999942
vt 0.146774 0.866439
vt 0.360164 0.133561
vt 0.146774 0.133561
vt 0.445727 0.274293
vt 0.493210 0.423550
vt 0.061211 0.274293
vt 0.493210 0.576449
vt 0.445727 0.725707
vt 0.061211 0.725707
vt 0.013727 0.576450
vt 0.360164 0.866439
vt 0.146774 0.866439
vt 0.360164 0.133561
vt 0.146774 0.133561
vt 0.445727 0.274293
vt 0.493210 0.423550
vt 0.493210 0.576450
vt 0.445727 0.725707
vt 0.061211 0.725707
vt 0.360164 0.866439
vt 0.146774 0.866439
vt 0.445727 0.725707
vt 0.061211 0.725707
vt 0.146774 0.866439
vt 0.360164 0.133561
vt 0.146774 0.133561
vt 0.360164 0.133561
vt 0.445727 0.274293
vt 0.061211 0.274293
vt 0.493210 0.423551
vt 0.013727 0.423551
vt 0.061211 0.274293
vt 0.146774 0.133561
vt 0.493210 0.576449
vt 0.013727 0.576449
vt 0.013728 0.423550
vt 0.360164 0.866439
vt 0.146774 0.866439
vt 0.061211 0.725707
vt 0.622055 0.000099
vt 0.869140 0.000099
vt 0.869140 0.062587
vt 0.622055 0.062587
vt 0.869140 0.125075
vt 0.622055 0.125075
vt 0.869140 0.187562
vt 0.622055 0.187562
vt 0.869140 0.250050
vt 0.622055 0.250050
vt 0.869140 0.312537
vt 0.622055 0.312537
vt 0.869140 0.375025
vt 0.622055 0.375025
vt 0.869141 0.437512
vt 0.622055 0.437512
vt 0.869141 0.500000
vt 0.622055 0.500000
vt 0.869141 0.562488
vt 0.622055 0.562488
vt 0.869141 0.624975
vt 0.622055 0.624975
vt 0.869141 0.687463
vt 0.622055 0.687463
vt 0.869141 0.749950
vt 0.622055 0.749950
vt 0.869141 0.812438
vt 0.622055 0.812438
vt 0.869141 0.874925
vt 0.622055 0.874925
vt 0.869141 0.937413
vt 0.622055 0.937413
vt 0.869141 0.999901
vt 0.622055 0.999901
vt 0.869141 0.999901
vt 0.622055 0.999901
vt 0.622055 0.937413
vt 0.869141 0.937413
vt 0.622055 0.874925
vt 0.869141 0.874925
vt 0.622055 0.812438
vt 0.869141 0.812438
vt 0.622055 0.749950
vt 0.869141 0.749950
vt 0.869141 0.687463
vt 0.622055 0.624975
vt 0.622055 0.562488
vt 0.622055 0.500000
vt 0.869141 0.500000
vt 0.622055 0.437512
vt 0.622055 0.375025
vt 0.869141 0.375025
vt 0.622055 0.312537
vt 0.869141 0.312537
vt 0.622055 0.250050
vt 0.869140 0.250050
vt 0.622055 0.187562
vt 0.869140 0.187562
vt 0.622055 0.125075
vt 0.869140 0.125075
vt 0.622055 0.062587
vt 0.869140 0.062587
vt 0.622055 0.000099
vt 0.869140 0.000099
s 0
f 24/1/1 5/2/1 11/3/1
f 4/4/2 3/5/2 9/6/2 10/7/2
f 38/8/3 2/9/3 7/10/3 8/11/3
f 1/12/4 25/13/4 6/14/4
f 5/2/5 4/4/5 10/7/5 11/3/5
f 3/5/6 38/8/6 8/11/6 9/6/6
f 2/9/7 1/12/7 6/14/7 7/10/7
f 24/1/8 11/15/8 17/16/8
f 10/17/9 9/18/9 15/6/9 16/19/9
f 8/20/10 7/21/10 13/22/10 14/23/10
f 6/24/11 25/13/11 12/25/11
f 11/15/12 10/17/12 16/19/12 17/16/12
f 9/18/13 8/20/13 14/23/13 15/6/13
f 7/21/14 6/24/14 12/25/14 13/22/14
f 24/1/15 17/26/15 23/27/15
f 16/28/16 15/29/16 21/6/16 22/19/16
f 14/30/17 13/31/17 19/32/17 20/23/17
f 12/33/18 25/13/18 18/34/18
f 17/26/19 16/28/19 22/19/19 23/27/19
f 15/29/20 14/30/20 20/23/20 21/6/20
f 13/31/21 12/33/21 18/34/21 19/32/21
f 20/30/22 19/35/22 27/36/22 28/23/22
f 18/33/23 25/13/23 26/37/23
f 23/38/24 22/28/24 30/19/24 31/39/24
f 21/29/25 20/30/25 28/23/25 29/6/25
f 19/35/26 18/33/26 26/37/26 27/36/26
f 24/1/27 23/38/27 31/39/27
f 22/28/28 21/29/28 29/6/28 30/19/28
f 31/40/29 30/41/29 36/42/29 37/27/29
f 29/43/30 28/30/30 34/23/30 35/44/30
f 27/31/31 26/33/31 32/34/31 33/32/31
f 24/1/32 31/40/32 37/27/32
f 30/41/33 29/43/33 35/44/33 36/42/33
f 28/30/34 27/31/34 33/32/34 34/23/34
f 26/33/35 25/13/35 32/34/35
f 37/26/36 36/17/36 4/45/36 5/46/36
f 35/29/37 34/47/37 38/48/37 3/49/37
f 33/21/38 32/50/38 1/51/38 2/52/38
f 24/1/39 37/26/39 5/46/39
f 36/17/40 35/29/40 3/49/40 4/45/40
f 34/47/41 33/21/41 2/52/41 38/48/41
f 32/50/42 25/13/42 1/51/42
f 39/53/43 40/54/43 42/55/43 41/56/43
f 41/56/44 42/55/44 44/57/44 43/58/44
f 43/58/45 44/57/45 46/59/45 45/60/45
f 45/60/46 46/59/46 48/61/46 47/62/46
f 47/62/47 48/61/47 50/63/47 49/64/47
f 49/64/48 50/63/48 52/65/48 51/66/48
f 51/66/49 52/65/49 54/67/49 53/68/49
f 53/68/50 54/67/50 56/69/50 55/70/50
f 55/70/51 56/69/51 58/71/51 57/72/51
f 57/72/52 58/71/52 60/73/52 59/74/52
f 59/74/53 60/73/53 62/75/53 61/76/53
f 61/76/54 62/75/54 64/77/54 63/78/54
f 63/78/55 64/77/55 66/79/55 65/80/55
f 65/80/56 66/79/56 68/81/56 67/82/56
f 67/82/57 68/81/57 70/83/57 69/84/57
f 69/84/58 70/83/58 72/85/58 71/86/58
f 71/87/59 72/88/59 74/89/59 73/90/59
f 73/90/60 74/89/60 76/91/60 75/92/60
f 75/92/61 76/91/61 78/93/61 77/94/61
f 77/94/62 78/93/62 80/95/62 79/96/62
f 79/96/63 80/95/63 82/76/63 81/97/63
f 81/97/64 82/76/64 84/98/64 83/73/64
f 83/73/65 84/98/65 86/99/65 85/71/65
f 85/71/66 86/99/66 88/100/66 87/101/66
f 87/101/67 88/100/67 90/102/67 89/67/67
f 89/67/68 90/102/68 92/103/68 91/104/68
f 91/104/69 92/103/69 94/105/69 93/106/69
f 93/106/70 94/105/70 96/107/70 95/108/70
f 95/108/71 96/107/71 98/109/71 97/110/71
f 97/110/72 98/109/72 100/111/72 99/112/72
f 99/112/73 100/111/73 102/113/73 101/114/73
f 101/114/74 102/113/74 40/115/74 39/116/74
