# Blender 4.5.5 LTS
# www.blender.org
o V_lantern_3BODY
v 7.676881 44.178692 12.144032
v 7.996099 44.040245 11.866552
v 8.173251 43.963413 11.020542
v 7.996099 44.040245 10.619574
v 7.676881 44.178692 10.342094
v 7.328341 43.920284 12.144032
v 7.368051 43.574612 11.866552
v 7.390089 43.382774 11.465584
v 7.390089 43.382774 11.020542
v 7.368051 43.574612 10.619574
v 7.328341 43.920284 10.342094
v 6.930283 44.092926 12.144032
v 6.650775 43.885696 11.866552
v 6.495660 43.770695 11.465584
v 6.495660 43.770695 11.020542
v 6.650775 43.885696 10.619574
v 6.930283 44.092926 10.342094
v 6.880764 44.523975 12.144032
v 6.561547 44.662422 11.866552
v 6.384394 44.739254 11.465584
v 6.384394 44.739254 11.020542
v 6.561547 44.662422 10.619574
v 6.880764 44.523975 10.342094
v 7.278823 44.351334 10.243063
v 7.278823 44.351334 12.243063
v 7.229305 44.782383 12.144032
v 7.189595 45.128056 11.866552
v 7.167557 45.319893 11.465584
v 7.167557 45.319893 11.020542
v 7.189595 45.128056 10.619574
v 7.229305 44.782383 10.342094
v 7.627363 44.609741 12.144032
v 7.906871 44.816971 11.866552
v 8.061986 44.931973 11.465584
v 8.061986 44.931973 11.020542
v 7.906871 44.816971 10.619574
v 7.627363 44.609741 10.342094
v 8.173251 43.963413 11.465584
v 7.653270 44.188934 10.025719
v 7.653270 44.188934 10.342094
v 7.614392 44.119003 10.025719
v 7.614392 44.119003 10.342094
v 7.562619 44.058002 10.025719
v 7.562619 44.058002 10.342094
v 7.499939 44.008270 10.025719
v 7.499939 44.008270 10.342094
v 7.428762 43.971725 10.025719
v 7.428762 43.971725 10.342094
v 7.351824 43.949768 10.025719
v 7.351824 43.949768 10.342094
v 7.272079 43.943241 10.025719
v 7.272079 43.943241 10.342094
v 7.192594 43.952400 10.025719
v 7.192594 43.952400 10.342094
v 7.116423 43.976887 10.025719
v 7.116423 43.976887 10.342094
v 7.046492 44.015766 10.025719
v 7.046492 44.015766 10.342094
v 6.985490 44.067539 10.025719
v 6.985490 44.067539 10.342094
v 6.935760 44.130219 10.025719
v 6.935760 44.130219 10.342094
v 6.899215 44.201393 10.025719
v 6.899215 44.201393 10.342094
v 6.877257 44.278332 10.025719
v 6.877257 44.278332 10.342094
v 6.870731 44.358078 10.025719
v 6.870731 44.358078 10.342094
v 6.879889 44.437561 10.025719
v 6.879889 44.437561 10.342094
v 6.904376 44.513733 10.025719
v 6.904376 44.513733 10.342094
v 6.943254 44.583664 10.025719
v 6.943254 44.583664 10.342094
v 6.995027 44.644665 10.025719
v 6.995027 44.644665 10.342094
v 7.057706 44.694397 10.025719
v 7.057706 44.694397 10.342094
v 7.128883 44.730942 10.025719
v 7.128883 44.730942 10.342094
v 7.205822 44.752899 10.025719
v 7.205822 44.752899 10.342094
v 7.285566 44.759426 10.025719
v 7.285566 44.759426 10.342094
v 7.365052 44.750267 10.025719
v 7.365052 44.750267 10.342094
v 7.441223 44.725780 10.025719
v 7.441223 44.725780 10.342094
v 7.511154 44.686901 10.025719
v 7.511154 44.686901 10.342094
v 7.572156 44.635128 10.025719
v 7.572156 44.635128 10.342094
v 7.621885 44.572449 10.025719
v 7.621885 44.572449 10.342094
v 7.658431 44.501274 10.025719
v 7.658431 44.501274 10.342094
v 7.680389 44.424335 10.025719
v 7.680389 44.424335 10.342094
v 7.686914 44.344589 10.025719
v 7.686914 44.344589 10.342094
v 7.677757 44.265106 10.025719
v 7.677757 44.265106 10.342094
vn 0.1518 -0.2047 -0.9670
vn 0.5497 -0.7414 -0.3849
vn 0.5497 -0.7414 0.3849
vn 0.1518 -0.2047 0.9670
vn 0.4034 -0.5442 -0.7356
vn 0.5956 -0.8033 -0.0000
vn 0.4034 -0.5442 0.7356
vn -0.1014 -0.2338 -0.9670
vn -0.3672 -0.8467 -0.3849
vn -0.3672 -0.8467 0.3849
vn -0.1014 -0.2338 0.9670
vn -0.2695 -0.6215 -0.7356
vn -0.3979 -0.9174 -0.0000
vn -0.2695 -0.6215 0.7356
vn -0.2532 -0.0291 -0.9670
vn -0.9169 -0.1053 -0.3849
vn -0.9169 -0.1053 0.3849
vn -0.2532 -0.0291 0.9670
vn -0.6730 -0.0773 -0.7356
vn -0.9935 -0.1141 -0.0000
vn -0.6730 -0.0773 0.7356
vn -0.5497 0.7414 0.3849
vn -0.1518 0.2047 0.9670
vn -0.4034 0.5442 -0.7356
vn -0.5956 0.8033 -0.0000
vn -0.4034 0.5442 0.7356
vn -0.1518 0.2047 -0.9670
vn -0.5497 0.7414 -0.3849
vn 0.2695 0.6215 -0.7356
vn 0.3979 0.9174 -0.0000
vn 0.2695 0.6215 0.7356
vn 0.1014 0.2338 -0.9670
vn 0.3672 0.8467 -0.3849
vn 0.3672 0.8467 0.3849
vn 0.1014 0.2338 0.9670
vn 0.6730 0.0773 -0.7356
vn 0.9935 0.1141 -0.0000
vn 0.6730 0.0773 0.7356
vn 0.2532 0.0291 -0.9670
vn 0.9169 0.1053 -0.3849
vn 0.9169 0.1053 0.3849
vn 0.2532 0.0291 0.9670
vn 0.8740 -0.4859 -0.0000
vn 0.7624 -0.6471 -0.0000
vn 0.6216 -0.7834 -0.0000
vn 0.4567 -0.8896 -0.0000
vn 0.2744 -0.9616 -0.0000
vn 0.0816 -0.9967 -0.0000
vn -0.1145 -0.9934 -0.0000
vn -0.3060 -0.9520 -0.0000
vn -0.4859 -0.8740 -0.0000
vn -0.6471 -0.7624 -0.0000
vn -0.7834 -0.6215 -0.0000
vn -0.8896 -0.4568 -0.0000
vn -0.9616 -0.2744 -0.0000
vn -0.9967 -0.0816 -0.0000
vn -0.9934 0.1144 -0.0000
vn -0.9520 0.3060 -0.0000
vn -0.8740 0.4859 -0.0000
vn -0.7624 0.6471 -0.0000
vn -0.6216 0.7834 -0.0000
vn -0.4568 0.8896 -0.0000
vn -0.2744 0.9616 -0.0000
vn -0.0816 0.9967 -0.0000
vn 0.1145 0.9934 -0.0000
vn 0.3060 0.9520 -0.0000
vn 0.4859 0.8740 -0.0000
vn 0.6471 0.7624 -0.0000
vn 0.7834 0.6215 -0.0000
vn 0.8896 0.4568 -0.0000
vn 0.9616 0.2744 -0.0000
vn 0.9967 0.0816 -0.0000
vn 0.9934 -0.1144 -0.0000
vn 0.9520 -0.3061 -0.0000
vt 0.253469 0.000058
vt 0.360164 0.133561
vt 0.146774 0.133561
vt 0.445727 0.274293
vt 0.493210 0.423550
vt 0.013727 0.423550
vt 0.061211 0.274293
vt 0.493210 0.576449
vt 0.445727 0.725707
vt 0.061211 0.725707
vt 0.013727 0.576450
vt 0.360164 0.866439
vt 0.253469 0.999942
vt 0.146774 0.866439
vt 0.360164 0.133561
vt 0.146774 0.133561
vt 0.445727 0.274293
vt 0.493210 0.423550
vt 0.061211 0.274293
vt 0.493210 0.576449
vt 0.445727 0.725707
vt 0.061211 0.725707
vt 0.013727 0.576450
vt 0.360164 0.866439
vt 0.146774 0.866439
vt 0.360164 0.133561
vt 0.146774 0.133561
vt 0.445727 0.274293
vt 0.493210 0.423550
vt 0.493210 0.576450
vt 0.445727 0.725707
vt 0.061211 0.725707
vt 0.360164 0.866439
vt 0.146774 0.866439
vt 0.445727 0.725707
vt 0.061211 0.725707
vt 0.146774 0.866439
vt 0.360164 0.133561
vt 0.146774 0.133561
vt 0.360164 0.133561
vt 0.445727 0.274293
vt 0.061211 0.274293
vt 0.493210 0.423551
vt 0.013727 0.423551
vt 0.061211 0.274293
vt 0.146774 0.133561
vt 0.493210 0.576449
vt 0.013727 0.576449
vt 0.013728 0.423550
vt 0.360164 0.866439
vt 0.146774 0.866439
vt 0.061211 0.725707
vt 0.622055 0.000099
vt 0.869140 0.000099
vt 0.869140 0.062587
vt 0.622055 0.062587
vt 0.869140 0.125075
vt 0.622055 0.125075
vt 0.869140 0.187562
vt 0.622055 0.187562
vt 0.869140 0.250050
vt 0.622055 0.250050
vt 0.869140 0.312537
vt 0.622055 0.312537
vt 0.869140 0.375025
vt 0.622055 0.375025
vt 0.869141 0.437512
vt 0.622055 0.437512
vt 0.869141 0.500000
vt 0.622055 0.500000
vt 0.869141 0.562488
vt 0.622055 0.562488
vt 0.869141 0.624975
vt 0.622055 0.624975
vt 0.869141 0.687463
vt 0.622055 0.687463
vt 0.869141 0.749950
vt 0.622055 0.749950
vt 0.869141 0.812438
vt 0.622055 0.812438
vt 0.869141 0.874925
vt 0.622055 0.874925
vt 0.869141 0.937413
vt 0.622055 0.937413
vt 0.869141 0.999901
vt 0.622055 0.999901
vt 0.869141 0.999901
vt 0.622055 0.999901
vt 0.622055 0.937413
vt 0.869141 0.937413
vt 0.622055 0.874925
vt 0.869141 0.874925
vt 0.622055 0.812438
vt 0.869141 0.812438
vt 0.622055 0.749950
vt 0.869141 0.749950
vt 0.869141 0.687463
vt 0.622055 0.624975
vt 0.622055 0.562488
vt 0.622055 0.500000
vt 0.869141 0.500000
vt 0.622055 0.437512
vt 0.622055 0.375025
vt 0.869141 0.375025
vt 0.622055 0.312537
vt 0.869141 0.312537
vt 0.622055 0.250050
vt 0.869140 0.250050
vt 0.622055 0.187562
vt 0.869140 0.187562
vt 0.622055 0.125075
vt 0.869140 0.125075
vt 0.622055 0.062587
vt 0.869140 0.062587
vt 0.622055 0.000099
vt 0.869140 0.000099
s 0
f 24/1/1 5/2/1 11/3/1
f 4/4/2 3/5/2 9/6/2 10/7/2
f 38/8/3 2/9/3 7/10/3 8/11/3
f 1/12/4 25/13/4 6/14/4
f 5/2/5 4/4/5 10/7/5 11/3/5
f 3/5/6 38/8/6 8/11/6 9/6/6
f 2/9/7 1/12/7 6/14/7 7/10/7
f 24/1/8 11/15/8 17/16/8
f 10/17/9 9/18/9 15/6/9 16/19/9
f 8/20/10 7/21/10 13/22/10 14/23/10
f 6/24/11 25/13/11 12/25/11
f 11/15/12 10/17/12 16/19/12 17/16/12
f 9/18/13 8/20/13 14/23/13 15/6/13
f 7/21/14 6/24/14 12/25/14 13/22/14
f 24/1/15 17/26/15 23/27/15
f 16/28/16 15/29/16 21/6/16 22/19/16
f 14/30/17 13/31/17 19/32/17 20/23/17
f 12/33/18 25/13/18 18/34/18
f 17/26/19 16/28/19 22/19/19 23/27/19
f 15/29/20 14/30/20 20/23/20 21/6/20
f 13/31/21 12/33/21 18/34/21 19/32/21
f 20/30/22 19/35/22 27/36/22 28/23/22
f 18/33/23 25/13/23 26/37/23
f 23/38/24 22/28/24 30/19/24 31/39/24
f 21/29/25 20/30/25 28/23/25 29/6/25
f 19/35/26 18/33/26 26/37/26 27/36/26
f 24/1/27 23/38/27 31/39/27
f 22/28/28 21/29/28 29/6/28 30/19/28
f 31/40/29 30/41/29 36/42/29 37/27/29
f 29/43/30 28/30/30 34/23/30 35/44/30
f 27/31/31 26/33/31 32/34/31 33/32/31
f 24/1/32 31/40/32 37/27/32
f 30/41/33 29/43/33 35/44/33 36/42/33
f 28/30/34 27/31/34 33/32/34 34/23/34
f 26/33/35 25/13/35 32/34/35
f 37/26/36 36/17/36 4/45/36 5/46/36
f 35/29/37 34/47/37 38/48/37 3/49/37
f 33/21/38 32/50/38 1/51/38 2/52/38
f 24/1/39 37/26/39 5/46/39
f 36/17/40 35/29/40 3/49/40 4/45/40
f 34/47/41 33/21/41 2/52/41 38/48/41
f 32/50/42 25/13/42 1/51/42
f 39/53/43 40/54/43 42/55/43 41/56/43
f 41/56/44 42/55/44 44/57/44 43/58/44
f 43/58/45 44/57/45 46/59/45 45/60/45
f 45/60/46 46/59/46 48/61/46 47/62/46
f 47/62/47 48/61/47 50/63/47 49/64/47
f 49/64/48 50/63/48 52/65/48 51/66/48
f 51/66/49 52/65/49 54/67/49 53/68/49
f 53/68/50 54/67/50 56/69/50 55/70/50
f 55/70/51 56/69/51 58/71/51 57/72/51
f 57/72/52 58/71/52 60/73/52 59/74/52
f 59/74/53 60/73/53 62/75/53 61/76/53
f 61/76/54 62/75/54 64/77/54 63/78/54
f 63/78/55 64/77/55 66/79/55 65/80/55
f 65/80/56 66/79/56 68/81/56 67/82/56
f 67/82/57 68/81/57 70/83/57 69/84/57
f 69/84/58 70/83/58 72/85/58 71/86/58
f 71/87/59 72/88/59 74/89/59 73/90/59
f 73/90/60 74/89/60 76/91/60 75/92/60
f 75/92/61 76/91/61 78/93/61 77/94/61
f 77/94/62 78/93/62 80/95/62 79/96/62
f 79/96/63 80/95/63 82/76/63 81/97/63
f 81/97/64 82/76/64 84/98/64 83/73/64
f 83/73/65 84/98/65 86/99/65 85/71/65
f 85/71/66 86/99/66 88/100/66 87/101/66
f 87/101/67 88/100/67 90/102/67 89/67/67
f 89/67/68 90/102/68 92/103/68 91/104/68
f 91/104/69 92/103/69 94/105/69 93/106/69
f 93/106/70 94/105/70 96/107/70 95/108/70
f 95/108/71 96/107/71 98/109/71 97/110/71
f 97/110/72 98/109/72 100/111/72 99/112/72
f 99/112/73 100/111/73 102/113/73 101/114/73
f 101/114/74 102/113/74 40/115/74 39/116/74
